<mxfile host="app.diagrams.net" modified="2024-03-22T23:22:41.923Z" agent="Mozilla/5.0 (Windows NT 10.0; Win64; x64) AppleWebKit/537.36 (KHTML, like Gecko) Chrome/122.0.0.0 Safari/537.36" etag="tyRNF45jF8aiO3i011s1" version="24.0.7" type="device">
  <diagram name="Page-1" id="XMRDmHRHqDgMWABDxMRV">
    <mxGraphModel dx="3134" dy="2938" grid="1" gridSize="10" guides="1" tooltips="1" connect="1" arrows="1" fold="1" page="1" pageScale="1" pageWidth="850" pageHeight="1100" math="0" shadow="0">
      <root>
        <mxCell id="0" />
        <mxCell id="1" parent="0" />
        <mxCell id="DCx8q5uBIvwL8sgJVXqC-1" value="ZantyShop" style="swimlane;whiteSpace=wrap;html=1;startSize=50;rounded=0;strokeWidth=3;perimeterSpacing=2;fillColor=#e1d5e7;strokeColor=#9673a6;" parent="1" vertex="1">
          <mxGeometry x="-1690" y="-2190" width="900" height="2204" as="geometry">
            <mxRectangle x="-80" y="-510" width="140" height="50" as="alternateBounds" />
          </mxGeometry>
        </mxCell>
        <mxCell id="h8pIJFcHyucJTzf0V_R4-21" value="" style="whiteSpace=wrap;html=1;aspect=fixed;" parent="DCx8q5uBIvwL8sgJVXqC-1" vertex="1">
          <mxGeometry x="580" y="424" width="212" height="212" as="geometry" />
        </mxCell>
        <mxCell id="h8pIJFcHyucJTzf0V_R4-24" value="" style="whiteSpace=wrap;html=1;aspect=fixed;" parent="DCx8q5uBIvwL8sgJVXqC-1" vertex="1">
          <mxGeometry x="580" y="200" width="212" height="212" as="geometry" />
        </mxCell>
        <mxCell id="h8pIJFcHyucJTzf0V_R4-12" value="" style="whiteSpace=wrap;html=1;aspect=fixed;" parent="DCx8q5uBIvwL8sgJVXqC-1" vertex="1">
          <mxGeometry x="55" y="196" width="440" height="440" as="geometry" />
        </mxCell>
        <mxCell id="h8pIJFcHyucJTzf0V_R4-42" value="Home" style="html=1;shadow=0;dashed=0;shape=mxgraph.bootstrap.rrect;rSize=5;fillColor=#0085FC;strokeColor=none;fontSize=14;fontColor=#ffffff;" parent="DCx8q5uBIvwL8sgJVXqC-1" vertex="1">
          <mxGeometry x="30" y="1563" width="60" height="40" as="geometry" />
        </mxCell>
        <mxCell id="h8pIJFcHyucJTzf0V_R4-43" value="Profile" style="fillColor=none;strokeColor=none;fontSize=14;fontColor=#0085FC;" parent="DCx8q5uBIvwL8sgJVXqC-1" vertex="1">
          <mxGeometry x="90" y="1563" width="70" height="40" as="geometry" />
        </mxCell>
        <mxCell id="h8pIJFcHyucJTzf0V_R4-44" value="Contact" style="fillColor=none;strokeColor=none;fontSize=14;fontColor=#0085FC;" parent="DCx8q5uBIvwL8sgJVXqC-1" vertex="1">
          <mxGeometry x="160" y="1563" width="60" height="40" as="geometry" />
        </mxCell>
        <mxCell id="h8pIJFcHyucJTzf0V_R4-45" value="Raw denim you probably haven&#39;t heard of them jean shorts Austin. Nesciunt tofu stumptown aliqua, retro synth master cleanse. Mustache cliche tempor, williamsburg carles vegan helvetica. Reprehenderit butcher retro keffiyeh dreamcatcher synth. Cosby sweater eu banh mi, qui irure terry richardson ex squid. Aliquip placeat salvia cillum iphone. Seitan aliquip quis cardigan american apparel, butcher voluptate nisi qui." style="strokeColor=none;fillColor=none;whiteSpace=wrap;html=1;align=left;verticalAlign=top;fontSize=14;" parent="DCx8q5uBIvwL8sgJVXqC-1" vertex="1">
          <mxGeometry x="30" y="1618" width="780" height="80" as="geometry" />
        </mxCell>
        <mxCell id="h8pIJFcHyucJTzf0V_R4-46" value="Navbar" style="html=1;shadow=0;dashed=0;fontSize=16;align=left;spacing=15;rounded=1;glass=1;strokeColor=none;fontColor=#000000;fillColor=default;" parent="DCx8q5uBIvwL8sgJVXqC-1" vertex="1">
          <mxGeometry x="180" y="80" width="710" height="60" as="geometry" />
        </mxCell>
        <mxCell id="h8pIJFcHyucJTzf0V_R4-47" value="Home" style="fillColor=none;strokeColor=none;fontSize=14;fontColor=#ffffff;align=center;" parent="h8pIJFcHyucJTzf0V_R4-46" vertex="1">
          <mxGeometry width="70" height="40" relative="1" as="geometry">
            <mxPoint x="70" y="10" as="offset" />
          </mxGeometry>
        </mxCell>
        <mxCell id="h8pIJFcHyucJTzf0V_R4-48" value="New" style="fillColor=none;strokeColor=none;fontSize=14;fontColor=#000000;align=center;" parent="h8pIJFcHyucJTzf0V_R4-46" vertex="1">
          <mxGeometry width="70" height="40" relative="1" as="geometry">
            <mxPoint x="130" y="10" as="offset" />
          </mxGeometry>
        </mxCell>
        <mxCell id="h8pIJFcHyucJTzf0V_R4-49" value="Deals" style="fillColor=none;strokeColor=none;fontSize=14;fontColor=default;align=center;spacingRight=0;" parent="h8pIJFcHyucJTzf0V_R4-46" vertex="1">
          <mxGeometry width="80" height="40" relative="1" as="geometry">
            <mxPoint x="190" y="10" as="offset" />
          </mxGeometry>
        </mxCell>
        <mxCell id="h8pIJFcHyucJTzf0V_R4-50" value="About" style="fontSize=14;align=center;fillColor=none;strokeColor=none;fontStyle=0" parent="h8pIJFcHyucJTzf0V_R4-46" vertex="1">
          <mxGeometry width="80" height="40" relative="1" as="geometry">
            <mxPoint x="260" y="10" as="offset" />
          </mxGeometry>
        </mxCell>
        <mxCell id="h8pIJFcHyucJTzf0V_R4-51" value="Search" style="html=1;shadow=0;dashed=0;shape=mxgraph.bootstrap.rrect;rSize=5;fontSize=14;fontColor=#ffffff;strokeColor=#ffffff;fillColor=none;" parent="h8pIJFcHyucJTzf0V_R4-46" vertex="1">
          <mxGeometry x="1" width="70" height="40" relative="1" as="geometry">
            <mxPoint x="-80" y="10" as="offset" />
          </mxGeometry>
        </mxCell>
        <mxCell id="h8pIJFcHyucJTzf0V_R4-52" value="Search" style="html=1;shadow=0;dashed=0;shape=mxgraph.bootstrap.rrect;rSize=5;fontSize=14;fontColor=#6C767D;strokeColor=#CED4DA;fillColor=#ffffff;align=left;spacing=10;" parent="h8pIJFcHyucJTzf0V_R4-46" vertex="1">
          <mxGeometry x="1" width="180" height="40" relative="1" as="geometry">
            <mxPoint x="-270" y="10" as="offset" />
          </mxGeometry>
        </mxCell>
        <mxCell id="h8pIJFcHyucJTzf0V_R4-67" value="" style="shape=image;html=1;verticalAlign=top;verticalLabelPosition=bottom;labelBackgroundColor=#ffffff;imageAspect=0;aspect=fixed;image=https://cdn1.iconfinder.com/data/icons/social-media-circle-7/512/Circled_Instagram_svg-128.png" parent="h8pIJFcHyucJTzf0V_R4-46" vertex="1">
          <mxGeometry x="354.99999999999994" y="7.5" width="41.351351351351354" height="41.351351351351354" as="geometry" />
        </mxCell>
        <mxCell id="h8pIJFcHyucJTzf0V_R4-58" value="" style="shape=link;html=1;rounded=0;" parent="DCx8q5uBIvwL8sgJVXqC-1" edge="1">
          <mxGeometry relative="1" as="geometry">
            <mxPoint y="180" as="sourcePoint" />
            <mxPoint x="900" y="180" as="targetPoint" />
            <Array as="points">
              <mxPoint x="470" y="180" />
            </Array>
          </mxGeometry>
        </mxCell>
        <mxCell id="h8pIJFcHyucJTzf0V_R4-59" value="M" style="resizable=0;html=1;whiteSpace=wrap;align=left;verticalAlign=bottom;" parent="h8pIJFcHyucJTzf0V_R4-58" connectable="0" vertex="1">
          <mxGeometry x="-1" relative="1" as="geometry" />
        </mxCell>
        <mxCell id="h8pIJFcHyucJTzf0V_R4-60" value="N" style="resizable=0;html=1;whiteSpace=wrap;align=right;verticalAlign=bottom;" parent="h8pIJFcHyucJTzf0V_R4-58" connectable="0" vertex="1">
          <mxGeometry x="1" relative="1" as="geometry" />
        </mxCell>
        <mxCell id="h8pIJFcHyucJTzf0V_R4-62" value="" style="shape=link;html=1;rounded=0;" parent="DCx8q5uBIvwL8sgJVXqC-1" edge="1">
          <mxGeometry relative="1" as="geometry">
            <mxPoint y="650" as="sourcePoint" />
            <mxPoint x="900" y="650" as="targetPoint" />
            <Array as="points">
              <mxPoint x="470" y="650" />
            </Array>
          </mxGeometry>
        </mxCell>
        <mxCell id="h8pIJFcHyucJTzf0V_R4-63" value="M" style="resizable=0;html=1;whiteSpace=wrap;align=left;verticalAlign=bottom;" parent="h8pIJFcHyucJTzf0V_R4-62" connectable="0" vertex="1">
          <mxGeometry x="-1" relative="1" as="geometry" />
        </mxCell>
        <mxCell id="h8pIJFcHyucJTzf0V_R4-64" value="N" style="resizable=0;html=1;whiteSpace=wrap;align=right;verticalAlign=bottom;" parent="h8pIJFcHyucJTzf0V_R4-62" connectable="0" vertex="1">
          <mxGeometry x="1" relative="1" as="geometry" />
        </mxCell>
        <mxCell id="h8pIJFcHyucJTzf0V_R4-68" value="" style="shape=image;verticalLabelPosition=bottom;labelBackgroundColor=default;verticalAlign=top;aspect=fixed;imageAspect=0;image=data:image/jpeg,/9j/4AAQSkZJRgABAQAA2ADYAAD/4QCMRXhpZgAATU0AKgAAAAgABQESAAMAAAABAAEAAAEaAAUAAAABAAAASgEbAAUAAAABAAAAUgEoAAMAAAABAAIAAIdpAAQAAAABAAAAWgAAAAAAAADYAAAAAQAAANgAAAABAAOgAQADAAAAAQABAACgAgAEAAAAAQAABQSgAwAEAAAAAQAACCQAAAAA/+0AOFBob3Rvc2hvcCAzLjAAOEJJTQQEAAAAAAAAOEJJTQQlAAAAAAAQ1B2M2Y8AsgTpgAmY7PhCfv/AABEICCQFBAMBIgACEQEDEQH/xAAfAAABBQEBAQEBAQAAAAAAAAAAAQIDBAUGBwgJCgv/xAC1EAACAQMDAgQDBQUEBAAAAX0BAgMABBEFEiExQQYTUWEHInEUMoGRoQgjQrHBFVLR8CQzYnKCCQoWFxgZGiUmJygpKjQ1Njc4OTpDREVGR0hJSlNUVVZXWFlaY2RlZmdoaWpzdHV2d3h5eoOEhYaHiImKkpOUlZaXmJmaoqOkpaanqKmqsrO0tba3uLm6wsPExcbHyMnK0tPU1dbX2Nna4eLj5OXm5+jp6vHy8/T19vf4+fr/xAAfAQADAQEBAQEBAQEBAAAAAAAAAQIDBAUGBwgJCgv/xAC1EQACAQIEBAMEBwUEBAABAncAAQIDEQQFITEGEkFRB2FxEyIygQgUQpGhscEJIzNS8BVictEKFiQ04SXxFxgZGiYnKCkqNTY3ODk6Q0RFRkdISUpTVFVWV1hZWmNkZWZnaGlqc3R1dnd4eXqCg4SFhoeIiYqSk5SVlpeYmZqio6Slpqeoqaqys7S1tre4ubrCw8TFxsfIycrS09TV1tfY2dri4+Tl5ufo6ery8/T19vf4+fr/2wBDAAICAgICAgMCAgMEAwMDBAUEBAQEBQcFBQUFBQcIBwcHBwcHCAgICAgICAgKCgoKCgoLCwsLCw0NDQ0NDQ0NDQ3/2wBDAQICAgMDAwYDAwYNCQcJDQ0NDQ0NDQ0NDQ0NDQ0NDQ0NDQ0NDQ0NDQ0NDQ0NDQ0NDQ0NDQ0NDQ0NDQ0NDQ0NDQ3/3QAEAFH/2gAMAwEAAhEDEQA/AP38ooooAKKKKACiiigAooooAKKKKACiiigAooooAKKKKACiiigAooooAKKKKACiiigAooooAKKKKACiiigAooooAKKKKACiiigAooooAKKKKACiiigAooooAKKKKACiiigAooooAKKKKACiiigAooooAKKKKACiiigAooooAKKKKACiiigAooooAKKKKACiiigAooooAKKKKACiiigAooooAKKKKACiiigAooooAKKKKACiiigAooooAKKKKACiiigAooooAKKKKACiiigAooooAKKKKACiiigAooooAKKKKACiiigAooooAKKKKACiiigAooooAKKKKACiiigAooooAKKKKACiiigAooooAKKKKACiiigAooooAKKKKACiiigAooooAKKKKACiiigAooooAKKKKACiiigAooooAKKKKACiiigD/9D9/KKKKACiiigAooooAKKKKACiiigAooooAKKKKACiiigAooooAKKKKACiiigAooooAKKKKACiiigAooooAKKKKACiiigAooooAKKKKACiiigAooooAKKKKACiiigAooooAKKKKACiiigAooooAKKKKACiiigAooooAKKKKACiiigAooooAKKKKACiiigAooooAKKKKACiiigAooooAKKKKACiiigAooooAKKKKACiiigAooooAKKKKACiiigAooooAKKKKACiiigAooooAKKKKACiiigAooooAKKKKACiiigAooooAKKKKACiiigAooooAKKKKACiiigAooooAKKKKACiiigAooooAKKKKACiiigAooooAKKKKACiiigAooooAKKKKACiiigAooooAKKKKACiiigAooooAKKKKACiiigAooooA//R/fyiiigAooooAKKKKACiiigAooooAKKKKACiiigAooooAKKKKACiiigAooooAKKKKACiiigAooooAKKKKACiiigAooooAKKKKACiiigAooooAKKKKACiiigAooooAKKKKACiiigAooooAKKKKACiiigAooooAKKKKACiiigAooooAKKKKACiiigAooooAKKKKACiiigAooooAKKKKACiiigAooooAKKKKACiiigAooooAKKKKACiiigAooooAKKKKACiiigAooooAKKKKACiiigAooooAKKKKACiiigAooooAKKKKACiiigAooooAKKKKACiiigAooooAKKKKACiiigAooooAKKKKACiiigAooooAKKKKACiiigAooooAKKKKACiiigAooooAKKKKACiiigAooooAKKKKACiiigAooooAKKKKAP/0v38ooooAKKKKACiiigAooooAKKKKACiiigAooooAKKKKACiiigAooooAKKKKACiiigAooooAKKKKACiiigAooooAKKKKACiiigAooooAKKKKACiiigAooooAKKKKACiiigAooooAKKKKACiiigAooooAKKKKACiiigAooooAKKKKACiiigAooooAKKKKACiiigAooooAKKKKACiiigAooooAKKKKACiiigAooooAKKKKACiiigAooooAKKKKACiiigAooooAKKKKACiiigAooooAKKKKACiiigAooooAKKKKACiiigAooooAKKKKACiiigAooooAKKKKACiiigAooooAKKKKACiiigAooooAKKKKACiiigAooooAKKKKACiiigAooooAKKKKACiiigAooooAKKKKACiiigAooooAKKKKACiiigD/9P9/KKKKACiiigAooooAKKKKACiiigAooooAKKKKACiiigAooooAKKKKACiiigAooooAKKKKACiiigAooooAKKKKACiiigAooooAKKKKACiiigAooooAKKKKACiiigAooooAKKKKACiiigAooooAKKKKACiiigAooooAKKKKACiiigAooooAKKKKACiiigAooooAKKKKACiiigAooooAKKKKACiiigAooooAKKKKACiiigAooooAKKKKACiiigAooooAKKKKACiiigAooooAKKKKACiiigAooooAKKKKACiiigAooooAKKKKACiiigAooooAKKKKACiiigAooooAKKKKACiiigAooooAKKKKACiiigAooooAKKKKACiiigAooooAKKKKACiiigAooooAKKKKACiiigAooooAKKKKACiiigAooooA//U/fyiiigAooooAKKKKACiiigAooooAKKKKACiiigAooooAKKKKACiiigAooooAKKKKACiiigAooooAKKKKACiiigAooooAKKKKACiiigAooooAKKKKACiiigAooooAKKKKACiiigAooooAKKKKACiiigAooooAKKKKACiiigAooooAKKKKACiiigAooooAKKKKACiiigAooooAKKKKACiiigAooooAKKKKACiiigAooooAKKKKACiiigAooooAKKKKACiiigAooooAKKKKACiiigAooooAKKKKACiiigAooooAKKKKACiiigAooooAKKKKACiiigAooooAKKKKACiiigAooooAKKKKACiiigAooooAKKKKACiiigAooooAKKKKACiiigAooooAKKKKACiiigAooooAKKKKACiiigAooooAKKKKAP/1f38ooooAKKKKACiiigAooooAKKKKACiiigAooooAKKKKACiiigAooooAKKKKACiiigAooooAKKKKACiiigAooooAKKKKACiiigAooooAKKKKACiiigAooooAKKKKACiiigAooooAKKKKACiiigAooooAKKKKACiiigAooooAKKKKACiiigAooooAKKKKACiiigAooooAKKKKACiiigAooooAKKKKACiiigAooooAKKKKACiiigAooooAKKKKACiiigAooooAKKKKACiiigAooooAKKKKACiiigAooooAKKKKACiiigAooooAKKKKACiiigAooooAKKKKACiiigAooooAKKKKACiiigAooooAKKKKACiiigAooooAKKKKACiiigAooooAKKKKACiiigAooooAKKKKACiiigAooooAKKKKACiiigD/9b9/KKKKACiiigAooooAKKKKACiiigAooooAKKKKACiiigAooooAKKKKACiiigAooooAKKKKACiiigAooooAKKKKACiiigAooooAKKKKACiiigAooooAKKKKACiiigAooooAKKKKACiiigAooooAKKKKACiiigAooooAKKKKACiiigAooooAKKKKACiiigAooooAKKKKACiiigAooooAKKKKACiiigAooooAKKKKACiiigAooooAKKKKACiiigAooooAKKKKACiiigAooooAKKKKACiiigAooooAKKKKACiiigAooooAKKKKACiiigAooooAKKKKACiiigAooooAKKKKACiiigAooooAKKKKACiiigAooooAKKKKACiiigAooooAKKKKACiiigAooooAKKKKACiiigAooooAKKKKACiiigAooooA//X/fyiiigAooooAKKKKACiiigAooooAKKKKACiiigAooooAKKKKACiiigAooooAKKKKACiiigAooooAKKKKACiiigAooooAKKKKACiiigAooooAKKKKACiiigAooooAKKKKACiiigAooooAKKKKACiiigAooooAKKKKACiiigAooooAKKKKACiiigAooooAKKKKACiiigAooooAKKKKACiiigAooooAKKKKACiiigAooooAKKKKACiiigAooooAKKKKACiiigAooooAKKKKACiiigAooooAKKKKACiiigAooooAKKKKACiiigAooooAKKKKACiiigAooooAKKKKACiiigAooooAKKKKACiiigAooooAKKKKACiiigAooooAKKKKACiiigAooooAKKKKACiiigAooooAKKKKACiiigAooooAKKKKAP/0P38ooooAKKKKACiiigAooooAKKKKACiiigAooooAKKKKACiiigAooooAKKKKACiiigAooooAKKKKACiiigAooooAKKKKACiiigAooooAKKKKACiiigAooooAKKKKACiiigAooooAKKKKACiiigAooooAKKKKACiiigAooooAKKKKACiiigAooooAKKKKACiiigAooooAKKKKACiiigAooooAKKKKACiiigAooooAKKKKACiiigAooooAKKKKACiiigAooooAKKKKACiiigAooooAKKKKACiiigAooooAKKKKACiiigAooooAKKKKACiiigAooooAKKKKACiiigAooooAKKKKACiiigAooooAKKKKACiiigAooooAKKKKACiiigAooooAKKKKACiiigAooooAKKKKACiiigAooooAKKKKACiiigD/9H9/KKKKACiiigAooooAKKKKACiiigAooooAKKKKACiiigAooooAKKKKACiiigAooooAKKKKACiiigAooooAKKKKACiiigAooooAKKKKACiiigAooooAKKKKACiiigAooooAKKKKACiiigAooooAKKKKACiiigAooooAKKKKACiiigAooooAKKKKACiiigAooooAKKKKACiiigAooooAKKKKACiiigAooooAKKKKACiiigAooooAKKKKACiiigAooooAKKKKACiiigAooooAKKKKACiiigAooooAKKKKACiiigAooooAKKKKACiiigAooooAKKKKACiiigAooooAKKKKACiiigAooooAKKKKACiiigAooooAKKKKACiiigAooooAKKKKACiiigAooooAKKKKACiiigAooooAKKKKACiiigAooooA//S/fyiiigAooooAKKKKACiiigAooooAKKKKACiiigAooooAKKKKACiiigAooooAKKKKACiiigAooooAKKKKACiiigAooooAKKKKACiiigAooooAKKKKACiiigAooooAKKKKACiiigAooooAKKKKACiiigAooooAKKKKACiiigAooooAKKKKACiiigAooooAKKKKACiiigAooooAKKKKACiiigAooooAKKKKACiiigAooooAKKKKACiiigAooooAKKKKACiiigAooooAKKKKACiiigAooooAKKKKACiiigAooooAKKKKACiiigAooooAKKKKACiiigAooooAKKKKACiiigAooooAKKKKACiiigAooooAKKKKACiiigAooooAKKKKACiiigAooooAKKKKACiiigAooooAKKKKACiiigAooooAKKKKAP/0/38ooooAKKKKACiiigAooooAKKKKACiiigAooooAKKKKACiiigAooooAKKKKACiiigAooooAKKKKACiiigAooooAKKKKACiiigAooooAKKKKACiiigAooooAKKKKACiiigAooooAKKKKACiiigAooooAKKKKACiiigAooooAKKKKACiiigAooooAKKKKACiiigAooooAKKKKACiiigAooooAKKKKACiiigAooooAKKKKACiiigAooooAKKKKACiiigAooooAKKKKACiiigAooooAKKKKACiiigAooooAKKKKACiiigAooooAKKKKACiiigAooooAKKKKACiiigAooooAKKKKACiiigAooooAKKKKACiiigAooooAKKKKACiiigAooooAKKKKACiiigAooooAKKKKACiiigAooooAKKKKACiiigD/9T9/KKKKACiiigAooooAKKKKACiiigAooooAKKKKACiiigAooooAKKKKACiiigAooooAKKKKACiiigAooooAKKKKACiiigAooooAKKKKACiiigAooooAKKKKACiiigAooooAKKKKACiiigAooooAKKKKACiiigAooooAKKKKACiiigAooooAKKKKACiiigAooooAKKKKACiiigAooooAKKKKACiiigAooooAKKKKACiiigAooooAKKKKACiiigAooooAKKKKACiiigAooooAKKKKACiiigAooooAKKKKACiiigAooooAKKKKACiiigAooooAKKKKACiiigAooooAKKKKACiiigAooooAKKKKACiiigAooooAKKKKACiiigAooooAKKKKACiiigAooooAKKKKACiiigAooooAKKKKACiiigAooooA//V/fyiiigAooooAKKKKACiiigAooooAKKKKACiiigAooooAKKKKACiiigAooooAKKKKACiiigAooooAKKKKACiiigAooooAKKKKACiiigAooooAKKKKACiiigAooooAKKKKACiiigAooooAKKKKACiiigAooooAKKKKACiiigAooooAKKKKACiiigAooooAKKKKACiiigAooooAKKKKACiiigAooooAKKKKACiiigAooooAKKKKACiiigAooooAKKKKACiiigAooooAKKKKACiiigAooooAKKKKACiiigAooooAKKKKACiiigAooooAKKKKACiiigAooooAKKKKACiiigAooooAKKKKACiiigAooooAKKKKACiiigAooooAKKKKACiiigAooooAKKKKACiiigAooooAKKKKACiiigAooooAKKKKAP/1v38ooooAKKKKACiiigAooooAKKKKACiiigAooooAKKKKACiiigAooooAKKKKACiiigAooooAKKKKACiiigAooooAKKKKACiiigAooooAKKKKACiiigAooooAKKKKACiiigAooooAKKKKACiiigAooooAKKKKACiiigAooooAKKKKACiiigAooooAKKKKACiiigAooooAKKKKACiiigAooooAKKKKACiiigAooooAKKKKACiiigAooooAKKKKACiiigAooooAKKKKACiiigAooooAKKKKACiiigAooooAKKKKACiiigAooooAKKKKACiiigAooooAKKKKACiiigAooooAKKKKACiiigAooooAKKKKACiiigAooooAKKKKACiiigAooooAKKKKACiiigAooooAKKKKACiiigAooooAKKKKACiiigD/9f9/KKKKACiiigAooooAKKKKACiiigAooooAKKKKACiiigAooooAKKKKACiiigAooooAKKKKACiiigAooooAKKKKACiiigAooooAKKKKACiiigAooooAKKKKACiiigAooooAKKKKACiiigAooooAKKKKACiiigAooooAKKKKACiiigAooooAKKKKACiiigAooooAKKKKACiiigAooooAKKKKACiiigAooooAKKKKACiiigAooooAKKKKACiiigAooooAKKKKACiiigAooooAKKKKACiiigAooooAKKKKACiiigAooooAKKKKACiiigAooooAKKKKACiiigAooooAKKKKACiiigAooooAKKKKACiiigAooooAKKKKACiiigAooooAKKKKACiiigAooooAKKKKACiiigAooooAKKKKACiiigAooooA//Q/fyiiigAooooAKKKKACiiigAooooAKKKKACiiigAooooAKKKKACiiigAooooAKKKKACiiigAooooAKKKKACiiigAooooAKKKKACiiigAooooAKKKKACiiigAooooAKKKKACiiigAooooAKKKKACiiigAooooAKKKKACiiigAooooAKKKKACiiigAooooAKKKKACiiigAooooAKKKKACiiigAooooAKKKKACiiigAooooAKKKKACiiigAooooAKKKKACiiigAooooAKKKKACiiigAooooAKKKKACiiigAooooAKKKKACiiigAooooAKKKKACiiigAooooAKKKKACiiigAooooAKKKKACiiigAooooAKKKKACiiigAooooAKKKKACiiigAooooAKKKKACiiigAooooAKKKKACiiigAooooAKKKKAP/0f38ooooAKKKKACiiigAooooAKKKKACiiigAooooAKKKKACiiigAooooAKKKKACiiigAooooAKKKKACiiigAooooAKKKKACiiigAooooAKKKKACiiigAooooAKKKKACiiigAooooAKKKKACiiigAooooAKKKKACiiigAooooAKKKKACiiigAooooAKKKKACiiigAooooAKKKKACiiigAooooAKKKKACiiigAooooAKKKKACiiigAooooAKKKKACiiigAooooAKKKKACiiigAooooAKKKKACiiigAooooAKKKKACiiigAooooAKKKKACiiigAooooAKKKKACiiigAooooAKKKKACiiigAooooAKKKKACiiigAooooAKKKKACiiigAooooAKKKKACiiigAooooAKKKKACiiigAooooAKKKKACiiigD/9L9/KKKKACiiigAooooAKKKKACiiigAooooAKKKKACiiigAooooAKKKKACiiigAooooAKKKKACiiigAooooAKKKKACiiigAooooAKKKKACiiigAooooAKKKKACiiigAooooAKKKKACiiigAooooAKKKKACiiigAooooAKKKKACiiigAooooAKKKKACiiigAooooAKKKKACiiigAooooAKKKKACiiigAooooAKKKKACiiigAooooAKKKKACiiigAooooAKKKKACiiigAooooAKKKKACiiigAooooAKKKKACiiigAooooAKKKKACiiigAooooAKKKKACiiigAooooAKKKKACiiigAooooAKKKKACiiigAooooAKKKKACiiigAooooAKKKKACiiigAooooAKKKKACiiigAooooAKKKKACiiigAooooA//T/fyiiigAooooAKKKKACiiigAooooAKKKKACiiigAooooAKKKKACiiigAooooAKKKKACiiigAooooAKKKKACiiigAooooAKKKKACiiigAooooAKKKKACiiigAooooAKKKKACiiigAooooAKKKKACiiigAooooAKKKKACiiigAooooAKKKKACiiigAooooAKKKKACiiigAooooAKKKKACiiigAooooAKKKKACiiigAooooAKKKKACiiigAooooAKKKKACiiigAooooAKKKKACiiigAooooAKKKKACiiigAooooAKKKKACiiigAooooAKKKKACiiigAooooAKKKKACiiigAooooAKKKKACiiigAooooAKKKKACiiigAooooAKKKKACiiigAooooAKKKKACiiigAooooAKKKKACiiigAooooAKKKKAP/1P38ooooAKKKKACiiigAooooAKKKKACiiigAooooAKKKKACiiigAooooAKKKKACiiigAooooAKKKKACiiigAooooAKKKKACiiigAooooAKKKKACiiigAooooAKKKKACiiigAooooAKKKKACiiigAooooAKKKKACiiigAooooAKKKKACiiigAooooAKKKKACiiigAooooAKKKKACiiigAooooAKKKKACiiigAooooAKKKKACiiigAooooAKKKKACiiigAooooAKKKKACiiigAooooAKKKKACiiigAooooAKKKKACiiigAooooAKKKKACiiigAooooAKKKKACiiigAooooAKKKKACiiigAooooAKKKKACiiigAooooAKKKKACiiigAooooAKKKKACiiigAooooAKKKKACiiigAooooAKKKKACiiigD/9X9/KKKKACiiigAooooAKKKKACiiigAooooAKKKKACiiigAooooAKKKKACiiigAooooAKKKKACiiigAooooAKKKKACiiigAooooAKKKKACiiigAooooAKKKKACiiigAooooAKKKKACiiigAooooAKKKKACiiigAooooAKKKKACiiigAooooAKKKKACiiigAooooAKKKKACiiigAooooAKKKKACiiigAooooAKKKKACiiigAooooAKKKKACiiigAooooAKKKKACiiigAooooAKKKKACiiigAooooAKKKKACiiigAooooAKKKKACiiigAooooAKKKKACiiigAooooAKKKKACiiigAooooAKKKKACiiigAooooAKKKKACiiigAooooAKKKKACiiigAooooAKKKKACiiigAooooAKKKKACiiigAooooA//W/fyiiigAooooAKKKKACiiigAooooAKKKKACiiigAooooAKKKKACiiigAooooAKKKKACiiigAooooAKKKKACiiigAooooAKKKKACiiigAooooAKKKKACiiigAooooAKKKKACiiigAooooAKKKKACiiigAooooAKKKKACiiigAooooAKKKKACiiigAooooAKKKKACiiigAooooAKKKKACiiigAooooAKKKKACiiigAooooAKKKKACiiigAooooAKKKKACiiigAooooAKKKKACiiigAooooAKKKKACiiigAooooAKKKKACiiigAooooAKKKKACiiigAooooAKKKKACiiigAooooAKKKKACiiigAooooAKKKKACiiigAooooAKKKKACiiigAooooAKKKKACiiigAooooAKKKKACiiigAooooAKKKKAP/1/38ooooAKKKKACiiigAooooAKKKKACiiigAooooAKKKKACiiigAooooAKKKKACiiigAooooAKKKKACiiigAooooAKKKKACiiigAooooAKKKKACiiigAooooAKKKKACiiigAooooAKKKKACiiigAooooAKKKKACiiigAooooAKKKKACiiigAooooAKKKKACiiigAooooAKKKKACiiigAooooAKKKKACiiigAooooAKKKKACiiigAooooAKKKKACiiigAooooAKKKKACiiigAooooAKKKKACiiigAooooAKKKKACiiigAooooAKKKKACiiigAooooAKKKKACiiigAooooAKKKKACiiigAooooAKKKKACiiigAooooAKKKKACiiigAooooAKKKKACiiigAooooAKKKKACiiigAooooAKKKKACiiigD/9D9/KKKKACiiigAooooAKKKKACiiigAooooAKKKKACiiigAooooAKKKKACiiigAooooAKKKKACiiigAooooAKKKKACiiigAooooAKKKKACiiigAooooAKKKKACiiigAooooAKKKKACiiigAooooAKKKKACiiigAooooAKKKKACiiigAooooAKKKKACiiigAooooAKKKKACiiigAooooAKKKKACiiigAooooAKKKKACiiigAooooAKKKKACiiigAooooAKKKKACiiigAooooAKKKKACiiigAooooAKKKKACiiigAooooAKKKKACiiigAooooAKKKKACiiigAooooAKKKKACiiigAooooAKKKKACiiigAooooAKKKKACiiigAooooAKKKKACiiigAooooAKKKKACiiigAooooAKKKKACiiigAooooA//R/fyiiigAooooAKKKKACiiigAooooAKKKKACiiigAooooAKKKKACiiigAooooAKKKKACiiigAooooAKKKKACiiigAooooAKKKKACiiigAooooAKKKKACiiigAooooAKKKKACiiigAooooAKKKKACiiigAooooAKKKKACiiigAooooAKKKKACiiigAooooAKKKKACiiigAooooAKKKKACiiigAooooAKKKKACiiigAooooAKKKKACiiigAooooAKKKKACiiigAooooAKKKKACiiigAooooAKKKKACiiigAooooAKKKKACiiigAooooAKKKKACiiigAooooAKKKKACiiigAooooAKKKKACiiigAooooAKKKKACiiigAooooAKKKKACiiigAooooAKKKKACiiigAooooAKKKKACiiigAooooAKKKKAP/0v38ooooAKKKKACiiigAooooAKKKKACiiigAooooAKKKKACiiigAooooAKKKKACiiigAooooAKKKKACiiigAooooAKKKKACiiigAooooAKKKKACiiigAooooAKKKKACiiigAooooAKKKKACiiigAooooAKKKKACiiigAooooAKKKKACiiigAooooAKKKKACiiigAooooAKKKKACiiigAooooAKKKKACiiigAooooAKKKKACiiigAooooAKKKKACiiigAooooAKKKKACiiigAooooAKKKKACiiigAooooAKKKKACiiigAooooAKKKKACiiigAooooAKKKKACiiigAooooAKKKKACiiigAooooAKKKKACiiigAooooAKKKKACiiigAooooAKKKKACiiigAooooAKKKKACiiigAooooAKKKKACiiigD/9P9/KKKKACiiigAooooAKKKKACiiigAooooAKKKKACiiigAooooAKKKKACiiigAooooAKKKKACiiigAooooAKKKKACiiigAooooAKKKKACiiigAooooAKKKKACiiigAooooAKKKKACiiigAooooAKKKKACiiigAooooAKKKKACiiigAooooAKKKKACiiigAooooAKKKKACiiigAooooAKKKKACiiigAooooAKKKKACiiigAooooAKKKKACiiigAooooAKKKKACiiigAooooAKKKKACiiigAooooAKKKKACiiigAooooAKKKKACiiigAooooAKKKKACiiigAooooAKKKKACiiigAooooAKKKKACiiigAooooAKKKKACiiigAooooAKKKKACiiigAooooAKKKKACiiigAooooAKKKKACiiigAooooA//U/fyiiigAooooAKKKKACiiigAooooAKKKKACiiigAooooAKKKKACiiigAooooAKKKKACiiigAooooAKKKKACiiigAooooAKKKKACiiigAooooAKKKKACiiigAooooAKKKKACiiigAooooAKKKKACiiigAooooAKKKKACiiigAooooAKKKKACiiigAooooAKKKKACiiigAooooAKKKKACiiigAooooAKKKKACiiigAooooAKKKKACiiigAooooAKKKKACiiigAooooAKKKKACiiigAooooAKKKKACiiigAooooAKKKKACiiigAooooAKKKKACiiigAooooAKKKKACiiigAooooAKKKKACiiigAooooAKKKKACiiigAooooAKKKKACiiigAooooAKKKKACiiigAooooAKKKKACiiigAooooAKKKKAP/1f38ooooAKKKKACiiigAooooAKKKKACiiigAooooAKKKKACiiigAooooAKKKKACiiigAooooAKKKKACiiigAooooAKKKKACiiigAooooAKKKKACiiigAooooAKKKKACiiigAooooAKKKKACiiigAooooAKKKKACiiigAooooAKKKKACiiigAooooAKKKKACiiigAooooAKKKKACiiigAooooAKKKKACiiigAooooAKKKKACiiigAooooAKKKKACiiigAooooAKKKKACiiigAooooAKKKKACiiigAooooAKKKKACiiigAooooAKKKKACiiigAooooAKKKKACiiigAooooAKKKKACiiigAooooAKKKKACiiigAooooAKKKKACiiigAooooAKKKKACiiigAooooAKKKKACiiigAooooAKKKKACiiigD/9b9/KKKKACiiigAooooAKKKKACiiigAooooAKKKKACiiigAooooAKKKKACiiigAooooAKKKKACiiigAooooAKKKKACiiigAooooAKKKKACiiigAooooAKKKKACiiigAooooAKKKKACiiigAooooAKKKKACiiigAooooAKKKKACiiigAooooAKKKKACiiigAooooAKKKKACiiigAooooAKKKKACiiigAooooAKKKKACiiigAooooAKKKKACiiigAooooAKKKKACiiigAooooAKKKKACiiigAooooAKKKKACiiigAooooAKKKKACiiigAooooAKKKKACiiigAooooAKKKKACiiigAooooAKKKKACiiigAooooAKKKKACiiigAooooAKKKKACiiigAooooAKKKKACiiigAooooAKKKKACiiigAooooA//X/fyiiigAooooAKKKKACiiigAooooAKKKKACiiigAooooAKKKKACiiigAooooAKKKKACiiigAooooAKKKKACiiigAooooAKKKKACiiigAooooAKKKKACiiigAooooAKKKKACiiigAooooAKKKKACiiigAooooAKKKKACiiigAooooAKKKKACiiigAooooAKKKKACiiigAooooAKKKKACiiigAooooAKKKKACiiigAooooAKKKKACiiigAooooAKKKKACiiigAooooAKKKKACiiigAooooAKKKKACiiigAooooAKKKKACiiigAooooAKKKKACiiigAooooAKKKKACiiigAooooAKKKKACiiigAooooAKKKKACiiigAooooAKKKKACiiigAooooAKKKKACiiigAooooAKKKKACiiigAooooAKKKKAP/0P38ooooAKKKKACiiigAooooAKKKKACiiigAooooAKKKKACiiigAooooAKKKKACiiigAooooAKKKKACiiigAooooAKKKKACiiigAooooAKKKKACiiigAooooAKKKKACiiigAooooAKKKKACiiigAooooAKKKKACiiigAooooAKKKKACiiigAooooAKKKKACiiigAooooAKKKKACiiigAooooAKKKKACiiigAooooAKKKKACiiigAooooAKKKKACiiigAooooAKKKKACiiigAooooAKKKKACiiigAooooAKKKKACiiigAooooAKKKKACiiigAooooAKKKKACiiigAooooAKKKKACiiigAooooAKKKKACiiigAooooAKKKKACiiigAooooAKKKKACiiigAooooAKKKKACiiigAooooAKKKKACiiigD/9H9/KKKKACiiigAooooAKKKKACiiigAooooAKKKKACiiigAooooAKKKKACiiigAooooAKKKKACiiigAooooAKKKKACiiigAooooAKKKKACiiigAooooAKKKKACiiigAooooAKKKKACiiigAooooAKKKKACiiigAooooAKKKKACiiigAooooAKKKKACiiigAooooAKKKKACiiigAooooAKKKKACiiigAooooAKKKKACiiigAooooAKKKKACiiigAooooAKKKKACiiigAooooAKKKKACiiigAooooAKKKKACiiigAooooAKKKKACiiigAooooAKKKKACiiigAooooAKKKKACiiigAooooAKKKKACiiigAooooAKKKKACiiigAooooAKKKKACiiigAooooAKKKKACiiigAooooAKKKKACiiigAooooA//S/fyiiigAooooAKKKKACiiigAooooAKKKKACiiigAooooAKKKKACiiigAooooAKKKKACiiigAooooAKKKKACiiigAooooAKKKKACiiigAooooAKKKKACiiigAooooAKKKKACiiigAooooAKKKKACiiigAooooAKKKKACiiigAooooAKKKKACiiigAooooAKKKKACiiigAooooAKKKKACiiigAooooAKKKKACiiigAooooAKKKKACiiigAooooAKKKKACiiigAooooAKKKKACiiigAooooAKKKKACiiigAooooAKKKKACiiigAooooAKKKKACiiigAooooAKKKKACiiigAooooAKKKKACiiigAooooAKKKKACiiigAooooAKKKKACiiigAooooAKKKKACiiigAooooAKKKKACiiigAooooAKKKKAP/0/38ooooAKKKKACiiigAooooAKKKKACiiigAooooAKKKKACiiigAooooAKKKKACiiigAooooAKKKKACiiigAooooAKKKKACiiigAooooAKKKKACiiigAooooAKKKKACiiigAooooAKKKKACiiigAooooAKKKKACiiigAooooAKKKKACiiigAooooAKKKKACiiigAooooAKKKKACiiigAooooAKKKKACiiigAooooAKKKKACiiigAooooAKKKKACiiigAooooAKKKKACiiigAooooAKKKKACiiigAooooAKKKKACiiigAooooAKKKKACiiigAooooAKKKKACiiigAooooAKKKKACiiigAooooAKKKKACiiigAooooAKKKKACiiigAooooAKKKKACiiigAooooAKKKKACiiigAooooAKKKKACiiigD/9T9/KKKKACiiigAooooAKKKKACiiigAooooAKKKKACiiigAooooAKKKKACiiigAooooAKKKKACiiigAooooAKKKKACiiigAooooAKKKKACiiigAooooAKKKKACiiigAooooAKKKKACiiigAooooAKKKKACiiigAooooAKKKKACiiigAooooAKKKKACiiigAooooAKKKKACiiigAooooAKKKKACiiigAooooAKKKKACiiigAooooAKKKKACiiigAooooAKKKKACiiigAooooAKKKKACiiigAooooAKKKKACiiigAooooAKKKKACiiigAooooAKKKKACiiigAooooAKKKKACiiigAooooAKKKKACiiigAooooAKKKKACiiigAooooAKKKKACiiigAooooAKKKKACiiigAooooAKKKKACiiigAooooA//V/fyiiigAooooAKKKKACiiigAooooAKKKKACiiigAooooAKKKKACiiigAooooAKKKKACiiigAooooAKKKKACiiigAooooAKKKKACiiigAooooAKKKKACiiigAooooAKKKKACiiigAooooAKKKKACiiigAooooAKKKKACiiigAooooAKKKKACiiigAooooAKKKKACiiigAooooAKKKKACiiigAooooAKKKKACiiigAooooAKKKKACiiigAooooAKKKKACiiigAooooAKKKKACiiigAooooAKKKKACiiigAooooAKKKKACiiigAooooAKKKKACiiigAooooAKKKKACiiigAooooAKKKKACiiigAooooAKKKKACiiigAooooAKKKKACiiigAooooAKKKKACiiigAooooAKKKKACiiigAooooAKKKKAP/1v38ooooAKKKKACiiigAooooAKKKKACiiigAooooAKKKKACiiigAooooAKKKKACiiigAooooAKKKKACiiigAooooAKKKKACiiigAooooAKKKKACiiigAooooAKKKKACiiigAooooAKKKKACiiigAooooAKKKKACiiigAooooAKKKKACiiigAooooAKKKKACiiigAooooAKKKKACiiigAooooAKKKKACiiigAooooAKKKKACiiigAooooAKKKKACiiigAooooAKKKKACiiigAooooAKKKKACiiigAooooAKKKKACiiigAooooAKKKKACiiigAooooAKKKKACiiigAooooAKKKKACiiigAooooAKKKKACiiigAooooAKKKKACiiigAooooAKKKKACiiigAooooAKKKKACiiigAooooAKKKKACiiigD/9f9/KKKKACiiigAooooAKKKKACiiigAooooAKKKKACiiigAooooAKKKKACiiigAooooAKKKKACiiigAooooAKKKKACiiigAooooAKKKKACiiigAooooAKKKKACiiigAooooAKKKKACiiigAooooAKKKKACiiigAooooAKKKKACiiigAooooAKKKKACiiigAooooAKKKKACiiigAooooAKKKKACiiigAooooAKKKKACiiigAooooAKKKKACiiigAooooAKKKKACiiigAooooAKKKKACiiigAooooAKKKKACiiigAooooAKKKKACiiigAooooAKKKKACiiigAooooAKKKKACiiigAooooAKKKKACiiigAooooAKKKKACiiigAooooAKKKKACiiigAooooAKKKKACiiigAooooAKKKKACiiigAooooA//Q/fyiiigAooooAKKKKACiiigAooooAKKKKACiiigAooooAKKKKACiiigAooooAKKKKACiiigAooooAKKKKACiiigAooooAKKKKACiiigAooooAKKKKACiiigAooooAKKKKACiiigAooooAKKKKACiiigAooooAKKKKACiiigAooooAKKKKACiiigAooooAKKKKACiiigAooooAKKKKACiiigAooooAKKKKACiiigAooooAKKKKACiiigAooooAKKKKACiiigAooooAKKKKACiiigAooooAKKKKACiiigAooooAKKKKACiiigAooooAKKKKACiiigAooooAKKKKACiiigAooooAKKKKACiiigAooooAKKKKACiiigAooooAKKKKACiiigAooooAKKKKACiiigAooooAKKKKACiiigAooooAKKKKAP/0f38ooooAKKKKACiiigAooooAKKKKACiiigAooooAKKKKACiiigAooooAKKKKACiiigAooooAKKKKACiiigAooooAKKKKACiiigAooooAKKKKACiiigAooooAKKKKACiiigAooooAKKKKACiiigAooooAKKKKACiiigAooooAKKKKACiiigAooooAKKKKACiiigAooooAKKKKACiiigAooooAKKKKACiiigAooooAKKKKACiiigAooooAKKKKACiiigAooooAKKKKACiiigAooooAKKKKACiiigAooooAKKKKACiiigAooooAKKKKACiiigAooooAKKKKACiiigAooooAKKKKACiiigAooooAKKKKACiiigAooooAKKKKACiiigAooooAKKKKACiiigAooooAKKKKACiiigAooooAKKKKACiiigD/9L9/KKKKACiiigAooooAKKKKACiiigAooooAKKKKACiiigAooooAKKKKACiiigAooooAKKKKACiiigAooooAKKKKACiiigAooooAKKKKACiiigAooooAKKKKACiiigAooooAKKKKACiiigAooooAKKKKACiiigAooooAKKKKACiiigAooooAKKKKACiiigAooooAKKKKACiiigAooooAKKKKACiiigAooooAKKKKACiiigAooooAKKKKACiiigAooooAKKKKACiiigAooooAKKKKACiiigAooooAKKKKACiiigAooooAKKKKACiiigAooooAKKKKACiiigAooooAKKKKACiiigAooooAKKKKACiiigAooooAKKKKACiiigAooooAKKKKACiiigAooooAKKKKACiiigAooooAKKKKACiiigAooooA//T/fyiiigAooooAKKKKACiiigAooooAKKKKACiiigAooooAKKKKACiiigAooooAKKKKACiiigAooooAKKKKACiiigAooooAKKKKACiiigAooooAKKKKACmSOUGQM0+mOSoyBmgBPM5PHQZoSVXUN0zUCJISzO3UYxSbTDDtx5hHNAFnenTNOBB6VSiPmKGaIqT2q0uB2xQA8kDk0m5exprkFSOvtUYwP4cUATbqTevfimbh/exTdqtyfm96AJwynoaWowqjpxTST03UATUmQKhCyHq1SYA+8aAHbl9aNy+tR/I3TmlwAOlAD9y+tG5fWo+PSk20AS7l9aQNmmhKNuOc4oAeTimF/QUnJ/ipCD/AH6AJQcjNLUQOBjdS5H96gCSioicjAam4b+/QBPRUGG/v0hVj/HQBYyKMiq2xv79Gxv79AFnIoyKrbG/v0bG/v0AWCaTdUSgr1fNOz/tUAP3UbqZn/aowf71AD91KDUeD/fpQD/ezQBJkUZFN2mmnigB+4etG5fWoeCfu0uB6UASFhQGBqPCjlhgU5fL/hOaAJKKZhuxppODgtQBISB1ppkUd6TCkcnNM2Ln7vNACiUn+E1KDkZ6U0K397NBJA6ZoAGbHQZpQ2e1QsGY8HbSqr/380AT5qLzcuVAyAM5p+D0JzVaRXjQbT3oAlWdCPn+U+hp4fLlccDvUTwxycuOfWkhjkViWfcPSgCzRRRQAUUUUAFFFFABRRRQAUUUUAFFFFABRRRQAUUUUAFFFFABRRRQAUUUUAFFFFABRRRQAUUUUAFFFFABRRRQAUUUUAFFFFABRRRQAUUUUAFFFFABRRRQAUUUUAFFFFABRRRQAUUUUAFFFFABRRRQAUUUUAFFFFABRRRQAUUUUAf/1P38ooooAKKKKACiiigAooooAKKKKACiiigAooooAKKKKACiiigAooooAKKKKACiiigAooooAKKKKACiiigAooooAKKKKACiiigAooooAKKKKACiiigAprdKdSHpQBXyGB2nOOa/Nr9qL9vuL9nTxO+gTaHHfNG4XLSFc5/4EK/SgBPvLX85n/BXPQRb+IodY8vb590F3Y64oA96tv8AgsToUyK1x4at4mPVTMeP/H63bb/grz4QlwJdHtk/7an/AOLr+akjJ+bk0mBQB/Tnbf8ABWj4fyMPNsLVB3Pmnj/x6tqL/gq38L5DiSO0X/tof/iq/lz9qTAoA/qjh/4Kl/B+QfvJbNf+2h/+KrQj/wCConwY/wCfuyX/ALaH/wCKr+UzApcYoA/rEh/4KdfA6T/W6nZJ/wADP+Naif8ABSv4AOPm1uxU/wC+f8a/knxmkwKAP65U/wCCkn7PvG7xDYj/AIGf8avJ/wAFHv2cnHz+JrAf8DP+NfyG0YzQB/X9B/wUU/ZqfO7xZYR/8CP+NXF/4KH/ALMvQ+MbD/vo1/HsvGcLmm5BPPFAH9ia/wDBQz9mQj/kcbD/AL6NWB/wUH/ZaIyfG2ng/wC8a/jmDNnC801kZeWGKAP7IV/4KCfsst/zPGn/APfRqdP2/wD9lVjiTx1pyj13Gv41QT2qYRNjdKcL60Af2Uj9vv8AZO/6H3Tv++jTv+G+v2Tv+h+07/vo1/GiwRT8pzTS2aAP7Nl/b0/ZPYZ/4T3TvzP+FL/w3l+yf/0Punf99H/Cv4ywxAxuxS7z/fNAH9mf/DeP7KB4Xx7p2f8AeP8AhS/8N3fsqf8AQ+af/wB9Gv4y95HIc0vnSf3zQB/Zn/w3d+yp/wBD5p//AH0acP27v2VMf8j5p/8A30a/jK86T++aXzX/AOehoA/s2/4bt/ZT/wCh80//AL6NH/Ddv7Kf/Q+af/30a/jJ81/+eho81/8AnoaAP7Nv+G7f2U/+h80//vo0f8N2/sp/9D5p/wD30a/jI86T++aPOk/vmgD+zU/t3/sor97x7p35mm/8N4/sof8AQ+6d+Zr+Msyuermk8xv7xoA/s1/4bx/ZQ/6H3TvzNVz+31+ycDj/AIT7Tv8Avo1/Gl5jf3jTOPWgD+y//hvv9k7/AKH7Tv8Avo1HJ+39+ykgzF4705j/ALxr+NT5fWgBfWgD+yFv+Cgv7LQ/5njT/wDvo1Gf+Cg37LX/AEO2n/8AfRr+OPC/3qML60Af2Jt/wUL/AGY1yF8ZaeQOh3Gqzf8ABQ/9mXt4xsP++jX8e2QBgHNOJWTaAMEUAf2ASf8ABRD9mkKSPF1g/tuNUn/4KM/s4xj5PE1gf+BH/Gv5DHWNcbW5puTQB/XHL/wUh/Z+B+TxFYn/AIGf8arN/wAFKPgAnXXbFj/vn/Gv5JaTGaAP6yp/+Cm3wKiz5Wq2L4/2z/jWXL/wVD+DK52Xlm3/AG0P+Nfyk4xS0Af1RTf8FTPhLGMpLaN/20P+NY0//BVv4aR/6uK0f/tqf/iq/l3yaSgD+nC5/wCCtHgSM/udOtZR3/en/wCLrDuf+CvXhO3yY9Dtn/7an/4uv5rRJtBHrURJbrQB/RzP/wAFj9DTIj8M27Y/6bH/AOLr6q/ZO/bqi/ae8TyaDFokem7YpJNyOW/1YPqx9K/keYAV+13/AAR/2f8ACzppi2D9juRt/wCAtQB/SBhoVG9t2TUqIQ5OeCOlMGQg3DPPep0YMNwoAdRRRQAUUUUAFFFFABRRRQAUUUUAFFFFABRRRQAUUUUAFFFFABRRRQAUUUUAFFFFABRRRQAUUUUAFFFFABRRRQAUUUUAFFFFABRRRQAUUUUAFFFFABRRRQAUUUUAFFFFABRRRQAUUUUAFFFFABRRRQAUUUUAFFFFABRRRQAUUUUAf//V/fyiiigAooooAKKKKACiiigAooooAKKKKACiiigAooooAKKKKACiiigAooooAKKKKACiiigAooooAKKKKACiiigAooooAKKKKACiiigAooooAKKKKACkb7p+lLUcmccUAQRqyx4PrX4af8FkNHEfgrw/qsa8zaiyk/RRX7oDJz6V+Qn/AAV50R9S+D3h94lBMF/K7fTatAH8w46UtHH8PSigAooooAKKKDxzQAUUDnpSkEUAJRTipVQx6GnCJyFKjO7oByaAIiSOlOUk9FFdZ4f8C+KPE90lppWm3MryHCkQuV/MLX3F8M/+Cbn7QXj2OG9TToIrOTBJeUo2D7EUAfniWI7D8KmjguHOVjd/opNf0CfDz/gj54fuooz8QLy7tpeNwt5dw9/4hX2L4U/4Jg/Ajwv5TxTXdyYwOJlDA4+rGgD+UAafqc/yx2Uxz6Rsf6V0Gl+BPFurP5Vnp87tjOGjcD/0Gv7NvDv7LHwi8NRolvoVjcbMDM1tGx4+oNem23wm+Gtso8rwxpSEcZW0iB/9BoA/iz0/4BfE/UsfZ9Ic59mH/stdTD+yh8bLgboNDLD3Lf8AxNf2bxfD/wADw/6rQdPT6W6D+lXF8H+FVGF0mzH0hT/CgD+Mxf2OPj1KN66Dwf8Aab/4mnf8MafHz/oA/wDjzf8AxNf2bDwr4bAwNMtR/wBsl/wpf+EW8Of9A21/79L/AIUAfxkf8MafHz/oAj/vpv8A4ml/4Yz+Pv8A0Af/AB5v/ia/s2/4Rfw5/wBA21/79L/hS/8ACMeHf+gba/8AfpaAP4yP+GM/j7/0Af8Ax5v/AImk/wCGNPj5/wBAEf8AfTf/ABNf2cf8Ix4d/wCgba/9+lpD4X8OH/mG2v8A36X/AAoA/jI/4Y0+Pn/QB/8AHm/+Jo/4Y0+Pn/QBH/fTf/E1/Zv/AMIt4c/6Btr/AN+l/wAKP+EW8Of9A21/79L/AIUAfxk/8MZ/H3/oA/8Ajzf/ABNH/DGfx9/6AP8A483/AMTX9m//AAjHh3/oG2v/AH6Wj/hGPDv/AEDbX/v0tAH8ZH/DGfx9/wCgD/483/xNH/DGfx9/6AP/AI83/wATX9m//CMeHf8AoG2v/fpaP+EY8O/9A21/79LQB/GR/wAMZ/H3/oA/+PN/8TR/wxn8ff8AoA/+PN/8TX9m/wDwjHh3/oG2v/fpaP8AhGPDv/QNtf8Av0tAH8ZH/DGfx9/6AP8A483/AMTR/wAMafHzvoI/76b/AOJr+zf/AIRjw7/0DbX/AL9LSHwv4cP/ADDbX/v0v+FAH8ZH/DGnx8/6AP8A483/AMTR/wAMafHz/oA/+PN/8TX9m/8Awi3hz/oG2v8A36X/AAo/4Rbw5/0DbX/v0v8AhQB/GR/wxv8AHtCC2gjH+83/AMTTm/Y1+Pe4bdC+9yPmb/4mv7K5PDXhuRJI1021yv8A0yX/AApD4c8MwxLJLYWiKg5Zo0AH4kUAfxReOv2c/il8ONKfWfFmmra28YBLbiTz7ECvDa/WX/gpL+0PpXjDxhJ4F8IxQixtRJBeFUCkSIe2Bz1r8mqACiiigAooooAKKKKAEIJNIRigkilVHc4AoAQAsQAMmv3v/wCCRnw11hbx/iBJEyWpW4t88gZ+Yelfjv8ABD4W6/8AFfxxp/hfw9B587zI7g5C+WrDdzj0r+yD4CfCLRfg/wDD/TvDmjQqhMEUsx2gHzWQF+nvmgD2vbhsseCMU6Iqp8oHOOaYwmLkYGwDj60+JWxukADe1AE1FFFABRRRQAUUUUAFFFFABRRRQAUUUUAFFFFABRRRQAUUUUAFFFFABRRRQAUUUUAFFFFABRRRQAUUUUAFFFFABRRRQAUUUUAFFFFABRRRQAUUUUAFFFFABRRRQAUUUUAFFFFABRRRQAUUUUAFFFFABRRRQAUUUUAFFFFABRRRQB//1v38ooooAKKKKACiiigAooooAKKKKACiiigAooooAKKKKACiiigAooooAKKKKACiiigAooooAKKKKACiiigAooooAKKKKACiiigAooooAKKKKACiiigAprdKdTW6UARr90fWvzP/AOCoOltqHwYtmUZ8mWZ//HRX6Xj7g+tfDP7fumrqPwRviwz5MM7j/vkUAfx5r0paQDFLQAUUUUAFSoAw2t92oqmhjDEl+lADAw+633c1YRVkfbb4wOfmqGMb38oqTnhQOpPavun9lH9ivxn8e9cgmuLdrbSVZXlaZWj3Rg/MFYkc4oA+X/Anwq8Y/EnWodJ0DT55nndVEixOYhu77gMY/Gv2c/Z4/wCCUUsq2niD4rH92u2QR20/Pvld1frX8Cf2XPhx8CtCh0vw7p6F1QKXmCyt27kZr6Witkt42EICkjp2/KgDw/4afs7fC74aaatnoGkW0q7QA1zBHI/Huyk17Ta2UVgu22t4YIx0ESKg/QVZEbAKx6jrimtOjfIyt+VAEiKjnIzmrNV4yiD5QasDmgAooooAKKKKACiiigAooooAKKKKACiiigAooooAKKKKACiiigAooooAKKKKAKFxvV1VMbW+961+fP7f/wC0ZbfBn4UajpWl3SrreoWzPZ7WBIK5HOOR0r7m8aeLNI8CeHr3xRrLhbWyj8yTJAOB9a/kE/bM+Puo/Gv4pao0lw0mn2FzJHYgE4ETYPPY8mgD5P8AEeu3/ijV7rXdRkLz3UjSSEnPzN161g1JIE48vPH3vrUdABRRRQAUUUUAFFFFADxypHXNXI2luQtoiZkdgqhRzzxUVrhH89uQnUV9u/sVfs6aj8a/izpq3MBk0hXJmfBCqylSAW6DvQB+s3/BMH9lgeD9AT4meKLXGos5EG4ceVKCRwfwr9qlACgAYAHArlPCGhWHhXQrDw9YRKkdpbxxfKAB+7UDtXWUAFFFFABRRRQAUUUUAFFFFABRRRQAUUUUAFFFFABRRRQAUUUUAFFFFABRRRQAUUUUAFFFFABRRRQAUUUUAFFFFABRRRQAUUUUAFFFFABRRRQAUUUUAFFFFABRRRQAUUUUAFFFFABRRRQAUUUUAFFFFABRRRQAUUUUAFFFFABRRRQAUUUUAf/X/fyiiigAooooAKKKKACiiigAooooAKKKKACiiigAooooAKKKKACiiigAooooAKKKKACiiigAooooAKKKKACiiigAooooAKKKKACiiigAooooAKKKKACkYZBpaaxxQBX+fYB3zXyp+2Tpw1D4J+IAy7hDY3D/AE+UV9WgkzEdsV4b+0nZLefA/wAaFxkppFyR9dtAH8Qb7dx29KbTmRo2KtwRTaAEPSpWjMJUvyGGeKYBuOOmadlnI3/Mq8UAPSIO3J2j3qNd2duCQTgY9akx5x67VHGa+k/2aPgRrnxw8f2PhzT4WNqJFllm27k2xsCw/EUAe/8A7FH7Gmv/AB78UW2sarB5Oi25EpaVCFcwncVDepAr+pL4ZfDrwp8OdBt9C8MWa2kECAbDgtuwATkAdcVhfBf4U+H/AIN+BrHwv4ctVgRY0aRU/wCejKNx7dTXsCwhW87+NuCfagCzsUnNOxRRQAm0ZzS4FFFABgUUUUAFFFFABRRRQAUUUUAFFFFABRRRQAUUUUAFFFFABRRRQAUUUUAFITilpj/dOOvagCKSVgxA4C/rUTvLJskjYIo5bPpUeJZFUFsFTls9xXg37SXxh0z4PfDLVfEM9wsFytq72qlsM7qRwvvQB+YH/BTr9qg6bpEvwz8KXgiM6SW+oIGyW6kdMY7V/OrIzXEu8nLvySfWvT/jH8StU+Kvj3U/F2pyM32+cygPyRkV5YjeXJuHY0AKHKBoz3NNpcB9z579KSgAooooAKBRRjPFADtp556frUixrKuQdhXrnvR8pChVzs+8fWgKkkyg/Kp7mgDa8OaFf+IdWg0nTY2mnmbCxoMs30Ff1tfsI/s6WvwU+F8Es0SfbtYWK83AfMm5TkHvnmvyQ/4JkfsuSeN/GkfxH8T2mLDR7hdiyr/rUbByp54r+laytItPt4rC2wqRqFiA/hUdqAL6RpAuFHJ5NWKgLqAGHzEcVMORmgBaKKKACiiigAooooAKKKKACiiigAooooAKKKKACiiigAooooAKKKKACiiigAooooAKKKKACiiigAooooAKKKKACiiigAooooAKKKKACiiigAooooAKKKKACiiigAooooAKKKKACiiigAooooAKKKKACiiigAooooAKKKKACiiigAooooA//9D9/KKKKACiiigAooooAKKKKACiiigAooooAKKKKACiiigAooooAKKKKACiiigAooooAKKKKACiiigAooooAKKKKACiiigAooooAKKKKACiiigAooooAKjk6VJSN0P0oAau1vmWvIPj7GZPgz4viQbt+lXA/SvW4RhK80+M6b/hT4pQd9Nn/lQB/Dt4ktDZaxcWzLtKN0rCrvPiXEYPGWoRnjD/AONcHQAhOBUgLbNgHLc0zOOTUoVihl6Y6UAaWmaZLqV9b6fAc+c6qcerED+tf1W/8E7/ANmW1+Enw4g13V7QLq12fPjlZcP5UwLAfTBFfiJ/wT5+Bn/C3fjVpbalb+Zo0KuZnYbkEqFSuffg1/W5o2nRaRpdrpcAAjtIUhQDptjUKP0FAFhd+fMxg9MVOmWXLcGpKKACiiigAooooAKKKKACiiigAooooAKKKKACiiigAooooAKKKKACiiigAooooAKKKKACmOpbGDjFPprZxgUAZOo30FhBcXd2wgggQu8jdAor+Yz/AIKV/tO3vj7x2/gDQ7pjpWj3LqJEbKTIwYcCv1u/b8/aY074MfDi60O3mVtR1aOW0HzYZCQMEciv5QdU1rU/EN5calqkjXM0vzM78nNAGHKQznaML2po6YpRRQAFdpGDnNFFFABRRRQAUYzwKKOf4etAEqMYiUJ+9wa9p+B/wu1D4w/EHSfCGnxMy3Mwid1GQM+1eOxRZZEUebLJxt9DX9IH/BMn9laHwr4ej+JfiG2zcamsd1ZPIvMfQHaePQ0Afpt8AvhLpXwn+HeleHrC3WCWO2RLnaMF3XPJr2fynhBlP7xv4R6Cp4HZsqwxt4z61YoAqKjRruxnPb61aHQUtFABRRRQAUUUUAFFFFABRRRQAUUUUAFFFFABRRRQAUUUUAFFFFABRRRQAUUUUAFFFFABRRRQAUUUUAFFFFABRRRQAUUUUAFFFFABRRRQAUUUUAFFFFABRRRQAUUUUAFFFFABRRRQAUUUUAFFFFABRRRQAUUUUAFFFFABRRRQAUUUUAFFFFAH/9H9/KKKKACiiigAooooAKKKKACiiigAooooAKKKKACiiigAooooAKKKKACiiigAooooAKKKKACiiigAooooAKKKKACiiigAooooAKKKKACiiigAooooAKQ9KWkPSgBi/KtedfFlfM+HPiWP10+b+VeiBixx6VwfxOQP4A1//bspR+lAH8TfxngFv8RdViHG2T/GvLK9o/aBhW3+K2txL0WX+prxegA479Km8wylYVHBIH51DgngV6/8E/A7/Ej4iaV4Pt0LPduOnX5SP8aAP6Pf+CYvwWh8C/C2TV9Qtwl7fTR3EMjL82x1Y8H06V+q0MolXI7cV5p8JPDkXhX4daFpEcCxPbWMEbYGMlVxk16ZCiovy9+aAJaKKKACiiigAooooAKKKKACiiigAooooAKKKKACiiigAooooAKKKKACiiigAooooAKKKqtdJG/ly8MelAFquK+IPi7T/BHhTUfEeoyiKOzt5Jst0Oxc4rrnnSMEsccZr8LP+CpX7VMulWf/AAqbw9chb2KTfceW2MxSgDBI69DxQB+VH7YXx+vfjr8TtS1xLgvpDSZtkDZRWBOcCvkFI5VVimTGRyfamyzvN971Jx7modzYIycHtQAnA4HIooHFFABRRRQAUUUvy4680AJQDt59Kcq56/hXReGvD134m1yw0DTUaW7vZhEqAcZbp0oA+u/2J/2d9U+NvxR0y4a3aTTNOuUkvDjKiMjHP4kV/XT4S8M6V4Q8N2nhnSlEdtp0QiTaMYA56V8YfsIfs72XwW+F9lqGoW4TV9QtlFyCv3WUg8Hr29K+8mkQMgI+/wBaALMQXYNvPvUlMQAdKfQAUUUUAFFFFABRRRQAUUUUAFFFFABRRRQAUUUUAFFFFABRRRQAUUUUAFFFFABRRRQAUUUUAFFFFABRRRQAUUUUAFFFFABRRRQAUUUUAFFFFABRRRQAUUUUAFFFFABRRRQAUUUUAFFFFABRRRQAUUUUAFFFFABRRRQAUUUUAFFFFABRRRQAUUUUAf/S/fyiiigAooooAKKKKACiiigAooooAKKKKACiiigAooooAKKKKACiiigAooooAKKKKACiiigAooooAKKKKACiiigAooooAKKKKACiiigAooooAKKKKACg9KKQ9KAIwMEn2rifiMN/gLXB/wBOcv8AKu4/hNcR8QP+RF1vP/PnL/KgD+LL9o1dvxe11f8Apr/U14dXu37SYx8Ytex/z1/qa8JoAM7eRX6i/wDBMH4b/wDCQ/G7SvGBi82DTZikmRkZO09Pwr8uvrX9I3/BIT4drpXgXXfEN9D+8e7jeIkc7SvbNAH7VwxokSIgwqgADHapgAOlV5XCL5o6dOKnTlQfWgB1FFFABRRRQAUUUUAFFFFABRRRQAUUUUAFFFFABRRRQAUUUUAFFFFABRRRQAUUZFIWUcEgUALVSUoGG4ZHrjNW+orE1G9j0mCe7uGVYIYnlYsf7oJ7/SgDwT9p34zaR8FPhvqHiTUZljaeGW3hGQW8x0IXjr1Ir+OX4q/EPWfib4zv/E+tzNLPPIwGWJGwMdvX2Nfoh/wUh/ahvPil43m8D6JdZ0W0ZHIU8+bGcNyOOor8rp9rN5idD60AQUUUUAFFFFABRRRQAU75NoA+8TTacoUnkEmgB7xvEy9xnjFfsP8A8Ezv2YJ/HfitfiHr9r/oVoI7m1LLwzKeeDx3r83Pgb8MdT+K3xB0/wAM2ULzhp4vN2AnajnGTjoOK/sP/Z9+Eun/AAU+HOmeDLSFFltI9ruoBJyB1YdenrQB7i1vDBCFiQRxxjhVGB+QqSKSKVA+Pu+tPYGVBnoetN/dupgAIHSgCdB39afUMXA29hU1ABRRkUUAFFFFABRRRQAUUUUAFFFFABRRSZHSgBaKMiigAooz3oyKACijOaKACiiigAooooAKKKKACiiigAooooAKKKKACiiigAooooAKKKKACiiigAooooAKKKKACiiigAooooAKKKKACiiigAooooAKKKKACiiigAooooAKKKKACiiigAooooAKKKKACiiigD//0/38ooooAKKKKACiiigAooooAKKKKACiiigAooooAKKKKACiiigAooooAKKKKACiiigAooooAKKKKACiiigAooooAKKKKACiiigAooooAKKKKACiiigApD0paD0oAjHHFcX8RDjwHrhP/PnL/KuzH3iK4f4mts8A64f+nOX+VAH8XH7SB3fGDXj/ANNf6mvC69t/aIbf8W9cb1l/qa8SoAcqO7BUGWPQCv7I/wBh7wSvgz4J6C+wK2qWUM5xxzg1/JZ8GfC//CZfEbSPDu3f9rl249a/tP8Ag7pI0j4b+GtLC7PsNhHFj6ZoA9OYKH8vseanQ5H0qqm5pdzduKuCgAooooAKKKKACiiigAooooAKKKKACiiigAooooAKKKKACiiigAooooAKKKKAKtznblDh/wCGmGNWCvMcuB2qw6oWDkZI6VVKEEzTHODxQBYDlYyfyr80v+ChX7Sw+D3w2u9E0i5Vddu9qgKcnyJRg/L16GvvT4geN9J+H/hW98R6vMscUEbYLHHJUkfyr+P39rf4/a38cfijfavNM7w2ry2sYPI2Rtgd/QUAfL2r382s6rc6hK7PJcSvMxYknc7Fj19zWc/3fm4amZeJ8g80rs7vuk60ANooooAKKKKACiiigAqzajMoQdX+UHtzVanpI8bK6/wnOaAP6Ff+CYfwi+Hfgzw4nxS13VNPh1XUo2gdJ5kDAJyDtY8fer9oY/iX8PT+6PiHTtw/6eE/xr+JbT/ih430fT44dL1JoLdSdsYJ4P4GtBPjX8QottydVcufdv8AGgD+2VPH3gd+ItbsX+k6n+tacHifw/c829/bvn+7Ipr+J+2/aT+K9kwa11d1I9c//FV3Glftr/tB6RgWXiBlA6fKT/7NQB/Z5Fc21wN8MiyAf3Tmp1cPxgiv5BtC/wCCkf7U2iuFh8T4hJy6+Wcn/wAfr6a8Ff8ABWj4jaYEPi03N/jG4oNufzJoA/pi2gdKhLAHCsAK/GPwJ/wV4+H+qJHDrWiXiuxClnkUAZ4z0r7v+H37XXwQ8fxxtHrtlYyyqCI5pxuyR06UAfWDcjcpzTkbPBPNc7o+v6Vq8Yn0i7ivYG6NEdwrfXyvNO0/PjkUATUUUUAFFFFABRRRQAVEwVG8zualqhdXEdvHLNccRRIXJPQAUASqspffkbTUjsMgY/GvlvxH+118IPCmqy6Lqer2kU0JwwaYAj9Kw/8Ahtn4IbJGGu2TbRnHnjn9KAPrny7lnwzAxnt7UJMJHMceRsOOa5nwn4qsfG2g6d4l0CZZLG9TzFKncCp966dgsJYxLy3JNAFiNQuecmpKii24yvU9aloAKKKKACiiigAooooAKKKKACiiigAooooAKKKKACiiigAooooAKKKKACiiigAooooAKKKKACiiigAooooAKKKKACiiigAooooAKKKKACiiigAooooAKKKKACiiigAooooAKKKKAP/U/fyiiigAooooAKKKKACiiigAooooAKKKKACiiigAooooAKKKKACiiigAooooAKKKKACiiigAooooAKKKKACiiigAooooAKKKKACiiigAooooAKKKKACiiigCI/Idx5zxXBfFNsfD3X3/ALljKf0rvX+YD61558XWEfwy8SyemnTH9KAP4sfj1OLj4pazKBgNL/U15Aq7gxz92vSvjDOJ/iBqko5LSf415gGIBHrQB9nfsE+GZfEv7THg+3+7H9sAY4yO1f2Nabp66dp8NlEceUgXI9q/l9/4JY+E49Y+LVnrwTJ027TJx0yFNf1KUARhDkHNOUMM7jmnUUAFFFFABRRRQAUUUUAFFFFABRRRQAUUUUAFFFFABRRRQAUUUUAFITgE0tFADEYuMkYpSwFGQOKj27zmgBzlQPMPaq7vGInedgY+uT0FSTAbfmPyjqPWvmT9qb45aL8EPhbqfiK6ZDcxx5igJwXBB5B4oA/K/wD4Kg/tUi3tW+FXhaYypdRh5biJspG0fBUjjn5vSvwJ+2AxyOy5uJHLGT69a734neOtX+IPjLUtdvbh7lLu4lljRjnYrnOPwrzQjBwaABiSc0MzM25jSUUAFFFFADgpYErzikPAzn8KmWVYo2Ucl/0qHaAu5uvYUAOkVU24YNkZ+lIqg9TinghVyY+PWpraze6mWEcO5wq+uelAFMcnGafuwQpO5c9K+qvhl+xz8bviXdRNp3hu9WwlAIuVUFcH/wCtX6QfDP8A4JBaxqlvDqfibXnsnJG62ki6f+OGgD8P3kVm/wBURHjhfQ1VK732xr16Cv6qPCP/AAS6+FOhRRrrItdTKgZ3xkZ/QV9AaN+wh+zFp0Cpc+CNNnlUffKkHP50AfxwDS9QPIgc/hUUlrdw/wCsRl+tf2lx/sYfs0KvPgXTv++T/jWfqH7Ef7Ml8m0eBdNB/wB0/wCNAH8XpJ7nJqRpJCu3dkelf10+Kf8Agnb8AdXTydK8M2NhuGN6oTg/rXyH46/4I/8AhzVzLc6B4mj0/qVijh/+wNAH85671OcVpaZqd9o94l5p0hjmQghh2I5r9G/in/wTR+M3guaUeGLO81+KPJDxxgAgfgK+EfGXw18cfD+drHxXpM2mzKcESjB9KAPpj4Yft3fHv4ay29va+I7l9PiIzbocAjuOvpX66fAb/gqz4S8RmDSPGmmvZ3WAJb64lG1s/Qk8V/N2vlom0qGc1GN0b7D8hPU0Af3P+AvjT8OfiNYx3nhbXLS+MgzthYkgH8K9OacLg4yp/i7V/D58Nvj58SfhPdxt4S1u5toIiMxxEAFR2r9j/wBmv/gqskn2fw58TLTbH8scl/cy8e7cN/SgD9+gwbBXkHvSkgDJ4FeS/Dr4weAPihpsF/4M1eC+R1BKwknbnp1r1GTc5EYPHc0AWFZW5U5p1V4FVAQpzzVigArh/iLeix8D6/dv92CwnkP0VSa7ivmL9rLx7Z+Avg9rtxeOI/7Qsrm2jJOMsyY/rQB/Il+0F4lTxV8UdV1aE7oZJOB16E15LZWpuL2CKL5fObGPSmajePPfTzSnezSMcn3JrY8HxSXHibTomHyzTBR+RoA/sk/YwsfsP7NHgWBOGGnKCfX5jX1PgLgHnPevnz9leD7H8BPB1sRjZYqP1NfQUoONw7UAORETO3vT6Ymcc0+gAooooAKKKKACiiigAooooAKKKKACiiigAooooAKKKKACiiigAooooAKKKKACiiigAooooAKKKKACiiigAooooAKKKKACiiigAooooAKKKKACiiigAooooAKKKKACiiigAooooA//1f38ooooAKKKKACiiigAooooAKKKKACiiigAooooAKKKKACiiigAooooAKKKKACiiigAooooAKKKKACiiigAooooAKKKKACiiigAooooAKKKKACiiigApD0NLTW5UgehoAjT5krzL40vs+Evip/TTJ/5V6JHG6wgEnO7NeWfH2cQ/BfxlIONmk3B/SgD+J74jSGbxffSN/E9cU6hQDWrr14b/VZrkndvbrWW4JxigD96/wDgjH4bTUI/F+sOMtZ3cO046ZRK/oMr8eP+CR3h1dI+H2uXojEZvDC5IH3uF/wr9h6ACiiigAooooAKKKKACiiigAooooAKKKKACiiigAooooAKKKKACiiodn73fk4xjFAE1BqD5g5IOaRSzEluBQA7a2ac7CNSfSozIE+8cL6mvzj/AGxf24vCvwI0640bQ7iK916VXRbdzgCRe2QT6elAH0d8ff2l/AHwE8Oyan4svYYbySMyWtvKcedjIPcelfy+/tf/ALYHij9o3xEyqzWGkW2+JLeJ90c6E5DEHNeEfGL42+N/jB4iutc8TajcSrcSM62jOWigB/hTPavFjz1oAul0gjESHLPzu7j2qkaDz1ooAKKKUKWOKAEoqSUBVAHWogDtzQBJGm9unA604FVcs3zBTwD3qROIiIRvLDn1Ffo3+xn+w94h+O2tW2s6zDLb6JDIvnTKM/K2OcEDNAHz98Bv2XfiX8dtYih8PaZNJYF9sk0YyFzj2Nfv9+zR/wAE1/h58NYYNW8cRR69dcO0F5F9xjzjjb0Nffnwt+EHgz4U6DZ6J4c0+CBreJUaZE2u5X+I+9etYAoA5XQ/DHh3wzZrZeGtOhs4UG0JCCAO3qa6GGN0j2lyxznNWAqr0GKdjFAEaBhw1Iw54XNS0UAMUkj5hijKA0+k2igBjNxwM1HsHXyxU+BS0AQFFZSjoMEYI9jXgXxK/Zu+E3xNsprbXdBsnupQf9IZCXGR169q+hKTapOcc0Afzv8A7SX/AASo1PTY7rxH8M5rjUGXc/2WKMKqqOf7ua/F7xr4H8T+ANXm0HxbZNZ3sJwyP16kD+Vf3fSxpLG0UgDKwIIPQg18cftHfsgfDn43+Gri3/s2Cx1NVd0uYIh5sjEcAnNAH8asbiMFXX73f0pu4oCo5Br7A/aS/ZD8e/s96rIusWcp0uVyltcNkl8Zznjivj9VYMOM+xoA98+FP7RfxK+FWoW114d1i6ht7Ygm1jcKkgHQHiv3i/Zq/wCCongvxVZ22g/EqS20a5QLH5ruWeT1Y5av5oTgFs8GrEE0sB8+3cpIvRhwRQB/d94M8a+HPHGlLrHhu5S6tnAIkTod3Irsa/iy+Dv7W/xY+FGoQXOn6rc3kMJH+iSzERED2x2r9evhb/wVz0y9hgt/Htra6csaBHdCWOVGO+KAP3Tr8Ov+CtnxzsrXwxa/DKwmVL+2uhLKFPzFHCjn24ruPiX/AMFVfhXD4euD4Lv4ry9khZVVhtwzLjrk96/nw+M/xf8AEnxm8Z3nizxDKzSTnAQsWACk4/nQB5Gx8xix6sa9B+GUb3Pj7QLRl4+1qP0NefdK9S+Cied8V/DKNzuvkH6GgD+zr4A232X4Q+GIB/BaAfqa9mkfEZPpXm3wghEPw30WMDAW3GB+NekuAYsUASIcoDTqan3RTqACiiigAooooAKKKKACiiigAooooAKKKKACiiigAooooAKKKKACiiigAooooAKKKKACiiigAooooAKKKKACiiigAooooAKKKKACiiigAooooAKKKKACiiigAooooAKKKKACiiigD//W/fyiiigAooooAKKKKACiiigAooooAKKKKACiiigAooooAKKKKACiiigAooooAKKKKACiiigAooooAKKKKACiiigAooooAKKKKACiiigAooooAKKKKACmO20U+oZiAoz60AL1Jr58/ad1BdO+BfjDecGbSrlB/wB819BSSKgGc8+lfIn7ajX0nwb1Sy0+GWaS5tp4wsSlzyB2UGgD+MbksSaUseleoP8AB34hxh2/sO/IHpay/wDxNFv8G/iHcMiLod+DL90m1lAH1+WgD+p3/gnX4b/sL4I6PebNv9o2UUmcdeSP6V+hlfNP7I+htoP7PngfT7qIw3cOlxrMrKVIYM3Y819LUAFFFFABRRRQAUUUUAFFFFABRRRQAUUUUAFFFFABRRRQAUUUUAFRSAP8ucGpaiaNd+8nBoAZ8sCjJzmmvgDexCr3JOBilcoW2ucYr4N/ba/an0T4DeB7iJ7kf2hfLJb28ceGdZMDBYDJUe9AHmH7dH7b2kfBjRbzwd4Xnjm1mdXt5Oh8tuxVhn0r+Yjxx498SfEHXbjxH4iupbiedzJh3LhSfTNWPiH8SfEvxM8Qz+IvEs7S3Fw+9huJUH2BrgXJJO3oaAHyTGbGQBj0qOnEggD0ptABRRRQAUhz2paOSQB3oAFRjyelKX/hWn7JAWjOOK674f8AhS98aeKtP8NafGZLnUJhDFwdu4gnk9ulAH1t+xH+y9rHx78ewTT27jR9PnT7Y5yPkYDoDwetf1lfDj4deG/hx4YsvDugW0dvHaRLEzogRnx3bHU18/fsf/ALTfg98K9IjNukesTWq/bCoGC4Pr36V9e/Zg8ZVyQW64NAD4yM4U5+tT1AsO1l29FGKnoAKKKKACiiigAooooAKKKKACkJxS0xgT0oAcDnio5CqDDfxcU5QR1odQ67T3oA8o+J/wAIPCHxa8O3XhvxTaRSxXEbRiYxq8ke7+JSehr+YX9sr9ifxD8CPEF5qXh62kufD0kjtFO2S4jXPJAzjp61/WbDAIc4JP1Oa4P4j/Dnw/8AE3w1e+FfEVrHLaX0RidyimRAe6k8g/Q0Afwluqq5DZH1GDTQShyK/Qj9tj9j/wAQfATxbdX9rbM+h3kjyWTplysQ4+fGQDkHrX58MrZCnrQA8y45Awad5jeV5GByc5qFiTwR0qTEezIzvoAkCEqI1+9nPNFyjpJtkABwOnSo3feQx4I449KHILZUkj3oAZXsHwAi874zeEouu7UUH/jrV4/Xt37N0Rm+OnguIdW1OMf+OtQB/af8N4fI8FaVD02wgfrXbk5BFcx4OhNv4asI2/gjwa6QcNz0NAEy9MUtNUYzTqACiiigAooooAKKKKACiiigAooooAKKKKACiiigAooooAKKKKACiiigAooooAKKKKACiiigAooooAKKKKACiiigAooooAKKKKACiiigAooooAKKKKACiiigAooooAKKKKACiiigD//X/fyiiigAooooAKKKKACiiigAooooAKKKKACiiigAooooAKKKKACiiigAooooAKKKKACiiigAooooAKKKKACiiigAooooAKKKKACiiigAooooAKKKKACkOO9LUcgJX5etACO4QfOM1Ture1vojFeQpNER911DD8iKmWXc3lup+vansrD5YyBQBzcXhLwwqqqaPp+wdmtYs/8AoNKfCnhd96No1gF7EWsQ/wDZa6Ax5Vs/fx17UqP5aIrck0AVbKC3hVbeBBFHD8qIo2gD2AxWpVcoryK47dasUAFFFFABRRRQAUUUUAFFFFABRRRQAUUUUAFFFFABRRRQAUUUUAFV51Vlwx46j61YqjeNHCj3E5xHEpdvYKMk0AeWfF74g6N8O/A1/wCJNauEga1hlkg3MF3SIuVHPX6V/ID+058fvEPx3+Iuo+Kr+dnt5n2pFyFXYTyF6D8q/R7/AIKjftOSa/r7/C/w5dk2lo6TM8bZU5wGGR9K/E+RjzKp+/1oAgooooAKKKKACiiigAppOCDTqcNvOaAHqjODIT1Ffqx/wS9+CkXj/wCIVz4h1CDfHpDRXEZI46gd/rX5Rxs5YIO9f1Of8EtPhknhf4QW3jAoFbXLNPmx1wVNAH6p2tvFaQJbwjCIMAVYpqAhQDTqACiiigAooooAKKKKACiiigAooooAKKKKACiiigAooooA8N+OfwX8N/GnwZfeF9at0ka4iMaOQAVznox6da/kQ/aV+AuvfArx7f6RqUDLbSzyNZuFO3yl4GT0Nf2ry/fEeCQ3Wvzw/by/ZhsPjl8P7zVNPtl/trT4THbPjsck8AAn86AP5IsswJ7d6bXReKNA1Hwrrl9oF/GUktJ3ibIxkocVztABRRRQAV73+y8nmftA+Bk9dVj/APQWrwSvob9k5PM/aO8AJ66xGP8Ax1qAP7WNCj8vRreM9kxWqfvLVe1TyreOPsBirDH51FAEgOaWo4znP1qSgAooooAKKKKACiiigAooooAKKKKACiiigAooooAKKKKACiiigAooooAKKKKACiiigAooooAKKKKACiiigAooooAKKKKACiiigAooooAKKKKACiiigAooooAKKKKACiiigAooooA//9D9/KKKKACiiigAooooAKKKKACiiigAooooAKKKKACiiigAooooAKKKKACiiigAooooAKKKKACiiigAooooAKKKKACiiigAooooAKKKKACiiigAooooAKMZoooAMCm7BnNOooAQgEYpnlJxx93pUlFADFjVCSvfrT6KKACiiigAooooAKKKKACiiigAooooAKKKKACiiigAooooAa7BF3Goy53Aj7tSsoYYbpTCEI2CgAJIbcThfSvnr9pj4q6Z8KPhdquu30ojM9tPbRktj55Iyq/qa9+nyw2DoOc/SvwT/wCCufxk2xR/Cuyn/eA290wB7fKTxQB+GHjzxXqHi3xFf6pqUpmlluZSGP8Ad3kj9K44HAzjg9KJAPvZySeaXdujCDtQA2iiigAooooAKKKKACkPUUtNagDovDNpFqWv2dk67hNKqgfWv7KP2MdHj0P9nPwfpipsENtgD04Ffx6/Cq3W5+Ivh6B+RJfRqRX9qfwLsY9O+GGh2UQwsUWBigD2eiiigAooooAKKKKACiiigAooooAKKKKACiiigAooooAKKKKAK8nmBGIPPamNEksBilGd6kEVM24uPSlIDHI7UAfzMf8ABS/9mA+CfFEnxE8OWZh0qRWe7Crw00pBzn8DX46ADlj64xX9tX7S/wAJ9N+M3ws1XwnexKzyL5ilhn/Vq2PX1r+NX4meDNQ8B+LtU0DUYGgeC8mWJWGMorkAj2xQBwDRlCNx69qQrtYjOeKmkGUEsjZbpt74qqCcmgABr6V/ZAiEn7SfgDPQaxF/6C1fNa96+p/2NIPM/aM8CP8A3dWiP/jrUAf2oBFGPajaM5706igBAoHTvS0UUAFFFFABRRRQAUUUUAFFFFABRRRQAUUUUAFFFFABRRRQAUUUUAFFFFABRRRQAUUUUAFFFFABRRRQAUUUUAFFFFABRRRQAUUUUAFFFFABRRRQAUUUUAFFFFABRRRQAUUUUAFFFFAH/9H9/KKKKACiiigAooooAKKKKACiiigAooooAKKKKACiiigAooooAKKKKACiiigAooooAKKKKACiiigAooooAKKKKACiiigAooooAKKKKACiiigAooooAKKKKACiiigAooooAKKKKACiiigAooooAKKKKACiiigAooooAKKKKACiiigAooooAaxwMiqxyZ1I6Yq3jNQs8ajf6UAZur3Rs9Kvbr+KG3lk/BVJ/pX8c37bnxJ/4WV8adQ1lLnzvs++065x5TFcfhiv6vf2gPFg8FfDbVtbZtqm3liyTj76MK/ih8Z376n4t1m9c582/unH0aVjQBzqRxknc2OMj61EpK596WigAooooAKKKKACiiigApD1FLTT2FAHpHwnZI/iT4ekJwqX0RzX9p/wOukuPhpo8wOQ8Xyn16V/Ex4BuFsvGmjzucLHdIxNf2f/ALLmoprHwY8PXqAGNoMofXpQB9FDpzS0UUAFFFFABRRRQAUUUUAFFFFABRRRQAUUUUAFFFFABRRRQBGSxBwKRspGSoyfSpaKAKssKyRkEffUqR9a/m1/4KtfAMeHvGsfxD0i28jTTBGkrIuFMr7Scn1JzX9KZ6Gvij9t34RD4xfBTUtKhh3XFuxuAwGW2wqW/pQB/HZIUP7xh8x+Xb/WqToUbaf85rY1mzk0nWb2wmXLW9xLDg/7Dlf6VjyBw+JOtAAg4NfW/wCxQvmftC+CtvJXVIs/98tXyVnBb6V9f/sNx7v2hPCLempxf+gtQB/ZvRRRQAUUUUAFFFFABRRRQAUUUUAFFFFABRRRQAUUUUAFFFFABRRRQAUUUUAFFFFABRRRQAUUUUAFFFFABRRRQAUUUUAFFFFABRRRQAUUUUAFFFFABRRRQAUUUUAFFFFABRRRQAUUUUAFFFFAH//S/fyiiigAooooAKKKKACiiigAooooAKKKKACiiigAooooAKKKKACiiigAooooAKKKKACiiigAooooAKKKKACiiigAooooAKKKKACiiigAooooAKKKKACiiigAooooAKKKKACiiigAooooAKKKKACiiigAooooAKKKKACiiigAooooAKKKKACqssWY2UHqc1LMwSMse1QPIkab8k96APgH/gpR4mbwx+zXqFzG21zcwp1xwwIr+Rm7mNxdzznrJI7f99Emv6M/+Ctnxj05fBh+EtvKj3N15N3hSDwuM88+tfzikYJFACUUUUAFFFFABRRRQAUUUUAFHcH0opyhScN36UAPguXtrpLmLho2DD6iv6/v+CdnjODxH+zT4Us9++6trMGYdxnFfx/pC3mYb+Hk1/Qv/wAEi/isl5aav4Nu5QI7G2iSBSeSSy0Afu9RUe4jLN07U12fbujFAE1FMVicfrT6ACiiigAooooAKKKKACiiigAooooAKKKKACiiigAooooAZIu9cZxWNrdlFqWj3mnBQwngliIP+2pX+tbMi71xnFQKql++cYoA/ji/bp+EjfCX423+kxxlIZ1+1ZxjmZi39a+LSxdgTX9AX/BXX4WCOwj+IcMJMrywW5YDtlRX8/fQ/Q0APc4Y19pfsKRBvj54Ub01GL+Rr4sbn5q+4P2CU8348+Gwf+WeoREfkaAP7GaKKKACiiigAooooAKKKKACiiigAooooAKKKKACiiigAooooAKKKKACiiigAooooAKKKKACiiigAooooAKKKKACiiigAooooAKKKKACiiigAooooAKKKKACiiigAooooAKKKKACiiigAooooA//0/38ooooAKKKKACiiigAooooAKKKKACiiigAooooAKKKKACiiigAooooAKKKKACiiigAooooAKKKKACiiigAooooAKKKKACiiigAooooAKKKKACiiigAooooAKKKKACiiigAooooAKKKKACiiigAooooAKKKKACiiigAooooAKKKKACikyPypevIoAY7KqktyK8q+L3xG0P4VeBNR8WaxMscMCEckZyytjAP0r0+4dDCx3gY6knpX87P/BUf9qN9a1JPhX4Zu91jJCRdiNs/vYyB1HTqaAPy8/aO+MWsfGH4j6jrV9OZI4p5o4ck/wCqD/L+gr59lZXbK+mKcTE0m98kd/XNRFdpwOlACUUUUAFFFFABRRRQAUUUUAFPQfNn05plA6igCR5meRnUdRg19g/sUfF26+FXxj0RjN5dlqN5Glyc8bACee3avkEOqSOo/iGKnsLybTrpbiBis0ZyjA9DQB/eX4a1+z8T6Lba5p7h7W7TfGwIOR+FayOd5XtX5Wf8E2P2lrT4j/DyDwJq1yBd6FBHAvmNguTg8Z5PWv1NDnY4TqOnvQBPDEYy2T945qxVdPMJU5GB1qxQAUUUUAFFFFABRRRQAUUUUAFFFFABRRRQAUUUUAFFFFACHpVdmVR5g69KnY4GarrENp7jOaAPiv8Abs+HK/Ez4KXmmeUHks993nHOIl3f0r+PDU4Ps2oXVvjHlTSJ/wB8sRX92fjrTYNX8Ia5bSKGE2nXUQB9WiYV/FD8dvB7+CPiRq2hyIUZZnk2n0d2oA8dznFfc/7Aa5+PWge1/F/I18MAdM+tfdv7AAz8edC/6/4v5GgD+w2iiigAooooAKKKKACiiigAooooAKKKKACiiigAooooAKKKKACiiigAooooAKKKKACiiigAooooAKKKKACiiigAooooAKKKKACiiigAooooAKKKKACiiigAooooAKKKKACiiigAooooAKKKKAP/1P38ooooAKKKKACiiigAooooAKKKKACiiigAooooAKKKKACiiigAooooAKKKKACiiigAooooAKKKKACiiigAooooAKKKKACiiigAooooAKKKKACiiigAooooAKKKKACiiigAooooAKKKKACiiigAooooAKKKKACiiigAooooAKKKKAIHCnKr1brTV3woS5yB0ApX2pkrwTWLr2u2Hh3SZtW1SVYoIF3OzHAxQB8j/tm/tB6b8B/hfqV/ay+Xq08JktwG+Y9RwK/kS8aeK7/xp4p1HxNeyM8t5PJN82cjec19uft+ftK6j8ZPiVc6PDM7ado0stqgzlWXORjnpzX56R5DbwOBQA7coQhhyTmmHbn5elSxKs0h3nAwetQ8AkD1oAKKKKACiiigAooooAKKKKACiiigAooooA+kf2aPjbrHwU+IWm69BI62YnV5kX+NQK/r6+CfxX0H4t+CNN8R6PcJLJLbq8yhgzRs2eGx0NfxACd1iAlB+Ufuz6V+kn7CP7Yur/BbxXBoGt3T/wBgXsym6QttTauByc0Af1gRYB44z+tWK4nwP4v0Xxzodn4h0W5jnguYlkAQ52hu1dtQAUUUUAFFFFABRRRQAUUUUAFFFFABRRRQAUUUUAFFFFADXOFPeoIFYI27uTVmoS534HSgCrPZpdWcttIMiRWX/voYr+ST/gph4Ql8M/tLax5SYge3gwQOMktX9c7ltoK1/OH/AMFc/CItfFa+L9mPtMsUW7HXb/8AroA/EhuFVTxzX3p/wT8jj/4XloZ7/bov5GvguV97ZFfef/BPePf8ctEOfu30X8jQB/YJRRRQAUUUUAFFFFABRRRQAUUUUAFFFFABRRRQAUUUUAFFFFABRRRQAUUUUAFFFFABRRRQAUUUUAFFFFABRRRQAUUUUAFFFFABRRRQAUUUUAFFFFABRRRQAUUUUAFFFFABRRRQAUUUUAFFFFAH/9X9/KKKKACiiigAooooAKKKKACiiigAooooAKKKKACiiigAooooAKKKKACiiigAooooAKKKKACiiigAooooAKKKKACiiigAooooAKKKKACiiigAooooAKKKKACiiigAooooAKKKKACiiigAooooAKKKKACiiigAooooAKazbR0zTqCM0AIOlJuGcUjk4wKhWNs5JoAJQrgpnaW6GvyA/wCCmX7UI+H3g9fh54dn36hq8EkTyRtgxOpbqOPSv0k+NXxM0z4VeA9W8W6pIqHTrdpo1Y48wggYz+NfxzftE/GLWPjN8TNV8T3Vw8lrPctJaxk5WNWA4X2oA8TvL64v7uW9viZp5m3SOepY+tUSTgqDwT0pZGyQO/em0ASbl2bQuD61HRRQAUUUUAFFFFABRRRQAUUUUAFFFFABRRRQA4uzbQ5yq9BSq5Vjj7p7UyigD9c/2Cf29NQ+Fur2/gPx/cNPpFxINl1M+I7dFwAuM+/pX9Kfg7xvonjjQode8P3CXcEyqwaM5HzDNfweRv5bq/ociv0x/Y3/AG7/ABb8FNbtdE8Q3EmqaM7YKzvhI1zgDjHQGgD+r1Jgx2t8relPR2Y8jFeQfC34xeBPjN4ft/EHgrUorwOi+Z5XOyTGWT8DkV6qhcnfISnbFAFlpNpxjj1prykFdg3Ann2qNVZGw/IPrTxGUfcvQ9vSgCxRRRQAUUUUAFFFFABRRRQAUUUUAFFFFAB1pu0Y4p1FAEaIyghjmvxT/wCCyXhxIfhHoeuJy8uq7DxzgbP8a/bCvzS/4KcfD3XfiT8HNP0jRLJruW2vWmAXk9E/woA/k22qsYbOSe3pX3r/AME9kcfHHRGXkG9iz+RrwJ/2aPjMsrRr4cuGGSBxX2t+wz8C/in4X+M2j6hrOjz21vFeRtIzdAADQB/VRRRRQAUUUUAFFFFABRRRQAUUUUAFFFFABRRRQAUUUUAFFFFABRRRQAUUUUAFFFFABRRRQAUUUUAFFFFABRRRQAUUUUAFFFFABRRRQAUUUUAFFFFABRRRQAUUUUAFFFFABRRRQAUUUUAFFFFAH//W/fyiiigAooooAKKKKACiiigAooooAKKKKACiiigAooooAKKKKACiiigAooooAKKKKACiiigAooooAKKKKACiiigAooooAKKKKACiiigAooooAKKKKACiiigAooooAKKKKACiiigAooooAKKKKACiiigAooooAKKKKACkY4FLUUwO0EdutACqcnmoLm7S3Xcx6etEcsjOSAPLHQ96+Iv24f2hNM+B/wAMbp/tCpfazFLb22D8yyAZGOcigD8qP+CoX7U8+veJf+FV6BcbBpc8kF6kbffUhuGHfnFfij5YJZl6DqfStzxh4p1Pxl4hu/EWrzNNdXb75HdixJ+prmQzAEA9etACvEUOWPXke9NpSSevakoAKKKKACiiigAooooAKKKKACiiigAooooAKKKKACiiigAzt5xmnfPGQ6HH0ptFAH1J+z5+1N8QPgLr9vdaTdyz2G8eZatJtiwx+ZsD2r+mf9mT9tT4d/HrSbazN9DDrQQeZboemB1yT6iv49K7TwV8QPE/gDV4dW8O3s1rJC6tiNygYKc4OOxoA/u3hlDtsXDLjIP1qcNucr6V+HH7Hn/BSzSNctLTwZ8UpktLjASOZBvdnbgAk7fSv2l8P+ItE1/TYNR0i6W4gmGUZSCT9cE0AdRRVYzqGKJywqQM5XpzQBLRUcb7856ipKACiiigAooooAKKKKACiiigAooooAKydU03TdXhNpqMCXCLztcZFa1JtXOcUAefDwB4LVEZdEtGJPJ2VqWHgfwtpl19sstOgglzkFFwQa63avpS0AFFFFABRRRQAUUUUAFFFFABRRRQAUUUUAFFFFABRRRQAUUUUAFFFFABRRRQAUUUUAFFFFABRRRQAUUUUAFFFFABRRRQAUUUUAFFFFABRRRQAUUUUAFFFFABRRRQAUUUUAFFFFABRRRQAUUUUAf/1/38ooooAKKKKACiiigAooooAKKKKACiiigAooooAKKKKACiiigAooooAKKKKACiiigAooooAKKKKACiiigAooooAKKKKACiiigAooooAKKKKACiiigAooooAKKKKACiiigAooooAKKKKACiiigAooooAKKKKACiiozIobFAElRyY2kntTIZ0mUsMgAkc8dKJVSVeTwpznPHFAHN+IvEdn4Z8PXviC/dY4bKF5nyR91Bk4FfyUft2/tEXXxq+KupCxuXk0K3m32ahjjJyD8vQV+t3/BS/wDang8CeHm+H3hW5H9qXTtBeAEEeTIAOMdD1r+aa7lmNw+9i7E5yx3Hn3oAqkknJpKUkk5PWkoAKKKKACiil2nG6gBKKbupc4oAWinBSc+1IVIAPr0oASikz2paACiiigAooooAKKKKACiiigAooooAKsW4gZmW4zgDjb61XqSKZ4HLoAc8c80AT2NxPa3AltpXhkU5VkJVgR05Ffo9+yp+3v47+CN7b6L4guPtmkErHI8xMzqncjcDzX5su/msXfg+1CySD5R37mgD+2H4I/tHfD/44eHY9U8MX8XmtGHZJmWN+cfwk5717/HKVjPlHdK34rmv4gPhd8Y/Gnwo1a21jwvfzRvA4co8jmM47bc4I/Cv6GP2TP8AgpB4S+IlpZ+FvHkjW+r4WLzWUQwlz1O5gBjn1oA/XeIMEBf7x649alrJ0jWdO1myjvtOuIp4XUMGjdXGD7g1f89d+znnv2oAnoqIyqH2dfenBwTigB9FNDAtt700SgyGPByKAJKKKKACiiigAooooAKKKKACiiigAooooAKKKKACiiigAooooAKKKKACiiigAooooAKKKKACiiigAooooAKKKKACiiigAooooAKKKKACiiigAooooAKKKKACiiigAooooAKKKKACiiigAooooAKKKKACiiigAooooAKKKKACiiigD//Q/fyiiigAooooAKKKKACiiigAooooAKKKKACiiigAooooAKKKKACiiigAooooAKKKKACiiigAooooAKKKKACiiigAooooAKKKKACiiigAooooAKKKKACiiigAooooAKKKKACiiigAooooAKKKKACiiigAooooAKqOm0FIupOc1bqBQy5B570AVmYmcQtwhXk+9eQfHD4naL8Ivh/qev6nOsQNvMsGWAPm7Dt69eSK9bu7qCO2lnl4jhRpGY9AEGT/ACr+bb/gpt+1M3jnxK/wt8PXROm2LRz7kbKF1I3DII5+WgD80Pjv8UNb+Lvj/UfGGrTs7TuVCnIwEZscZ968VRmaTzWPTmr9zlwLwyDMhwV7is+QDdhelADpH8xy/rTKMEcGigAooooAKaSelOpMgHmgBo60p+Y8UhOa6Pwv4cvPE2t2WjWSlpr2ZYYwBklm6cUAYjQOiBgQc9hTvMA8skfd617r8X/gH44+DUkM3iS1ljhuXKIWQqDjnvXhPBYllIV+hNACSr83mdn5FRU594OD0HSm0AFFFFABRRRQAUUUUAFFFFABRRRQAUUUUAFKMZ56UlKCoILDI7igCWWYyqsS8BelaNpqWo27xyW07QPB90qxQ/mCKynA3b4hhe1SDAKtJ84PYUAfqL+y7/wUW8f/AAsurTw741uXvdCQqhjjUmQov+0Sa/ok+DP7Q3w9+M+hwahoWoQRyMq5tpJVM2SPTg8V/E5LMRtOeR932r1n4Q/Gzx38JPEMOt+FdRa1eJtx6sOozxkelAH9wokCkFOV9O9WtyggnjNfkl+yT/wUZ8IfEqG28P8AjqQ2epgBPtdzIFRiox05+8a/VfS9W07XbRbyxkWWN1DKynIIIyDQBoSblbzF6GpkcN2xTYshcN2p6sCcYxQA+iiigAooooAKKKKACiiigAooooAKKKKACiiigAooooAKKKKACiiigAooooAKKKKACiiigAooooAKKKKACiiigAooooAKKKKACiiigAooooAKKKKACiiigAooooAKKKKACiiigAooooAKKKKACiiigAooooAKKKKACiiigAooooA//9H9/KKKKACiiigAooooAKKKKACiiigAooooAKKKKACiiigAooooAKKKKACiiigAooooAKKKKACiiigAooooAKKKKACiiigAooooAKKKKACiiigAooooAKKKKACiiigAooooAKKKKACiiigAooooAKKKKACiiigAqpMzQ/PnI6bat1yvizxFp/hjSbrV9VkWG2ghdzI3TcqkgfjigD4v/bo/aQsfgV8K7t7GYDVbw/Zxbo2JAk67d3YY+av5JvFutXfiDXLrVr2Uzy3Mry7/AGdi2PwzX2D+27+0dqHx0+KV7cxOw02yL2ghDZQmBtgbqf7ua+HScJtA4znNAEZ+Y5NA4xjtRRQApJY5PU0lFFABRRRQAUbMjdnviirFvF9oYx5xgZoAc1ukSB9wfPAx61+v/wDwTN/ZYHxA8Sp8QPFFl5mn2SpcWMki/L5sZJ+U889K/Nv4HfDHVvit8QdO8MaXC06faIjOFGcRlsEn2wK/sf8AgF8IdH+Dnw503wnpUSILdNzFRjO5VyP0oA8t/aw/Zp8N/H3wJNpt3bRtqFvG7WkzDJjkbjIGK/k1+Nfwd8VfBnxbe+E/EsMgjtJTFb3DrtWbHUrX9wpxtx93fwPavgX9sv8AZA8PfHXwhd3lpbxrrlrE7WzhcySSN6deeaAP5EQ3nFIydoHGTSBFaXy94A/vV6f8UfhN4o+E/iG68PeJbOWB4ZDGryDG7HevMRGrLhRn3oAJYvK4B3D1qKpllBjML+vX0qHpxQAUUUUAFFFFABRRRQAUUUUAFFFFABRRRQAoYgbQeKQEr0NFFACEZOaMcYpaKAL2n6hd6bcR3NnIY5I3Dqw7MpyD+dfrN+yp/wAFJPGPw3vbPQfiDPca3ZfLCrFwqxoflGcn+Efyr8i+vFWGaONBEo+YnJf29KAP7hfhV8c/Avxd0eDUvCWp297JIgZ4IX3MnGTnjtXse8BeTye9fxLfBX9ob4jfBDWYLzwhqtxDbqy+ZbxEAOmcsD9a/op/Za/4KEeAvipY22k+MruDSdUdQoimcl3c4AHU9aAP1ARnUDJ357055cMFXkms62vLe9tY7q0kBjk+7joatJIoYCUbWPTPegC4OnNLRRQAUUUUAFFFFABRRRQAUUUUAFFFFABRRRQAUUUUAFFFFABRRRQAUUUUAFFFFABRRRQAUUUUAFFFFABRRRQAUUUUAFFFFABRRRQAUUUUAFFFFABRRRQAUUUUAFFFFABRRRQAUUUUAFFFFABRRRQAUUUUAFFFFABRRRQB/9L9/KKKKACiiigAooooAKKKKACiiigAooooAKKKKACiiigAooooAKKKKACiiigAooooAKKKKACiiigAooooAKKKKACiiigAooooAKKKKACiiigAooooAKKKKACiiigAooooAKKKKACiiigAooooAKKKKACmLIjkhTnHWmyOysMDjvUBhXDqGKmTnIoAtkgAk9BX4rf8FRP2pV8MeGZfhb4au/Jvr1UmMsbYkAXhlxnod3pX6S/H34w6b8Gvhzqfi7VZVjNou1Qx+9uB5/Sv48vjf8T9Y+LPjzUfEmqztJGZ5RCS27EZbIA9qAPLZ7pr68knmG1pNzsf7zNySfcmsznBHbNSRPscueRgioh0z70AFFFFABRRRQAUd8UZ284zUxjYYTHLcigCJgVOGHWr9lHJPLHawL+9kcKMdTuOAKrB2UeUVDH1PWvtT9in9nnVvjl8TbK0jgZrC0Zbp5AM58htxU8dPloA/XH/AIJifsv23h3w/H8WdftALy8R4FhdeBjlWBx71+0ECycyPxxgJ2GK5vwdoGleFtAs9H0qBLe3giRNiDA3qoBOPwrqF3mQg8CgBohLNvY49vSpJE3MGxkipqKAPgz9rj9jzwt8cvDtxfafZRw61HG2xo0y8rtnnPNfy4/G34G+Nfgt4kudI8R2MlrGZGMTuMbkXv0r+3yR1Uhf4j0r5Z/aE/Zj+H/x38N3Wka9AlrNMhUXscYaaM89D70AfxbLgxlAuSTndTAD27V9tftPfsafEX4D6vc3L2Ej6IGZork5yyE/KcAdxXxP5e1SrEiQHG2gBqgudqjmhgVO1utOeOSFtr/KTTOerHJoAKKKKACiiigAooooAKKKKACiiigAooooAKKKKACnybVAVfm75plFAEqSenyH1rW0nWtV0i7ivtJne1uYWDiaM4YEdD+FYlORtrjJwM80AfsR+yP/AMFJtf8Ah9LbeF/iPMdTsjti+23knKDu2AR6V/QX8Kfix4O+LejR+I/CV+moQyIJDs6IDX8O8kRdvNjGIxzuFfTHwG/al8f/AAM1y3u9G1Ce5so3UtaySERFV7YHagD+1AOMDPegyKCATya+Bf2WP24fAPx40y102a7hg10qqPbrjAkPbJPv6V912UafPIsnmbjnrkD6UAaORS1Wh3ZbPPNWaACiiigAooooAKKKKACiiigAooooAKKKKACiiigAooooAKKKKACiiigAooooAKKKKACiiigAooooAKKKKACiiigAooooAKKKKACiiigAooooAKKKKACiiigAooooAKKKKACiiigAooooAKKKKACiiigAooooA//T/fyiiigAooooAKKKKACiiigAooooAKKKKACiiigAooooAKKKKACiiigAooooAKKKKACiiigAooooAKKKKACiiigAooooAKKKKACiiigAooooAKKKKACiiigAooooAKKKKACiiigAooooAKKKRs4OOtAC0VErOI8yYDUqsWTd3oAjmdARE3V+lV7maCC2d532InVicYqyzYGXAz2r8/f29/2j7H4JfCrUbTS7lBrt/bNJaLkEblyOe46UAfkh/wAFMv2oX8eeLB4C8OXROn2qSW92FOAZEIxwODX5B+VKwJzn8a3fEuu6j4m1+71/VHMk99K0znOQC3XFc8c5OCaAHKSw8vHGeadJHsOV5WkVyq7Rim7jjHagBKKKKACiiigAzjmpoxvQvuO8Hge1RL1GamjVy27oOgHrQB0Xhrw9qGu+ILPSNOjM0tzIibQCeHYA9M+tf1o/sJ/s32nwK+GNq11br/al3/pLSMAXCTruxu64w3SvyS/4Jj/syT+M/FUfxH8RWpOm2jyRASLzvzlSFb6da/pftbSC2tIbWEARwoqKBxwoAFADYpFkUugATt9afE/mjngipJIEkUL90A544p5iUgdselAElFFFAFaZwJFQ/wAXeo5EjJGOSOx6GrbKGHNG0YxQB5t4/wDht4V+I2ly6V4ltIp0kQr80YfHGOM1/PN+2V/wTi8ReBJrvxf8N7drvSmYyybzhlZjuIVRu4HOK/pgWMJnHOfWsvUtNs9SgeC/hjuEdSpjkUOuCMdDkUAfwcXel6lbXctldQvFJCWVxKpU5U4OMj2rHcAPgV/UL+1t/wAE6PDPxTjuvFvgKEWurqhYxIwgiIQZPyqQMn6V/Ol8VfhH4z+FfiO50DxRYSxTQHmRI28ojJAw2MZ4oA8mop6IZAQnUdaTaVb5+g60ANopTtz8vTtSUAFFFFABRRRQAUUUUAFFFFABRRRQAUUUUAFWIInlLbQCFGTn0qvSgkdCR9KAJHIC4iYkdwaamVIlUA45INKZCUCYGKjGRQB2Hhzxn4g8GajFq/hu/nsp1O/9zIU5/Cv3k/Yx/wCClcWoR2Xgb4uSJauu2GCdBveRB/E7HHPPvX89ZcgEetWLS8uLWQPbyNE4OQ6MVYfQjmgD+8/w7rukeItPh1XR7lLi3uEDqVYHhuRnBNdDX8pP7IX7f3jL4NaxaeHvFFybnw7Iw815czTK2QFClskDBNf0ufC/4weEvir4dttd8N3sU3nIhMe9d4LDJ+UHNAHrVFRq56HrUazYOxxz7UAWKKjEgbgdaTeyth+/SgCWiiigAooooAKKKKACiiigAooooAKKKKACiiigAooooAKKKKACiiigAooooAKKKKACiiigAooooAKKKKACiiigAooooAKKKKACiiigAooooAKKKKACiiigAooooAKKKKACiiigAooooAKKKKAP/9T9/KKKKACiiigAooooAKKKKACiiigAooooAKKKKACiiigAooooAKKKKACiiigAooooAKKKKACiiigAooooAKKKKACiiigAooooAKKKKACiiigAooooAKKKKACiiigAooooAKKKKACiiigAoOccUUh6cUAV2jkc4Y8UpkWP5ACcVKu7HJqFiIA8rc8ZoA5Txz4s0nwT4au/FGsSBILGMyNkgHA+tfyG/tqfHrUPjV8Tr+X7Szafp1xJHbrkgGNufoetfrD/AMFP/wBqZfD+iJ8O/Dt2DLqCSQXSRtkoRk/NjpX86rNJd3Pm3D7mlOWJoAd5W1PKJyz8r9KqkYOD2qZpMEqeWXhT2xUHXk0AFFFFABRRRQAUUUUAH1r2T4KfDLW/jB8QtM8I6VCXeZgchTtwjLnJH1ryCO3mnkWKNSWfoAOtf0j/APBMT9luHwtoy/E3xJabdRDq1qzjH7uQE9DnPQUAfpr8CPhVovwj+H2maHpduI2NtC0+AM+bs+Y8e5Ne4W6MifN3OahjjlSMqWGc5GPSrSNuHTGKAH0UUUAFFFFABRRRQAVnPGxnEyHGOMGtE1QlG0fvgW5420ASGME+YMHIwR2NfNXx6/Zg+HPxz0Cey17T0W6ZWMUkSrG3mEcZYDOM+9fSyll+Yfdx071GrTFy5/1Z4A70AfyPftQ/sHfEb4E6pcalp9v9s0eRyIhbq0zqBk5baTxXwbPbPbQ+XqCMkmPlQjDKf9oda/u68R+FdC8WaVNpWu2q3FvOhR1KgnB64JBr8SP2uf8AgmVa6mb3xh8KI0tCd0skD/vHYDoFA2880AfzyDgUtd743+Gvi/4fatcaT4i064tmgcrvkjKK2PTNcF060AFFLg0BWboM0AJRRRQAUUUUAFFFFABRRRQAUUUUAFFFFABRRRQAxutJRS4NAEqScgMTj2r60/Zv/an8f/ALxBb6no987WIfbJFMWk+Rj82FJI6ZxxXyTHsVsyDIqUnzu+COn0oA/s7/AGaf2rPAf7Qfhe31PSrpIL3bskgndUkLoPmIQ4OCQcV9VrMEwrjcT3A7Gv4efhD8Z/GHwX8UWviDwvetDIjoJRkspi3ZYAZAyRmv6mP2SP2yPCvx08MWYvrpIdU2hXilcByVAH3evJoA+8ZYy2HjPI5qSM7wN33hUUTEzMuflxkU+NwZnUdqALFFFFABRRRQAUUUUAFFFFABRRRQAUUUUAFFFFABRRRQAUUUUAFFFFABRRRQAUUUUAFFFFABRRRQAUUUUAFFFFABRRRQAUUUUAFFFFABRRRQAUUUUAFFFFABRRRQAUUUUAFFFFABRRRQAUUUUAf/1f38ooooAKKKKACiiigAooooAKKKKACiiigAooooAKKKKACiiigAooooAKKKKACiiigAooooAKKKKACiiigAooooAKKKKACiiigAooooAKKKKACiiigAooooAKKKKACiiigAooooAKKKKACkbODilooAotNLGAWBO7j6V4J+0L8YNM+EHw41rxFf3SQ3UNq8lmC2GkdSOF9TjNe83t5b2FtJd30gjgjUs7N0VR3NfzG/8FMP2m7j4gfEKT4a+HrgvpmhXTqZUbMcqMGHAzn9BQB+b/xm+J2pfFjx/q3i/UXZjfzmYBzkjIrympJlVZ3VRgA1HQAUUUUAFFFFABRRRQAozkZH0qT5S23pnrTULb1zyqmug0Pw9f8AinWLfSNIhaW4uG2qqDJJoA+xf2H/ANne/wDjj8VdNjvofM0e2nEdwWXKc4Iye1f1w+FfDmn+EPDth4cs4wsFnAkI29PkGK+MP2D/ANnLTPg18MLLUpIkXUNXhiuZTtwyP0IPvxX3rL5e3Yx5PagAGGcFOQBip1yBzVcgwxfuxnmrKnIBoAWiiigAooooAKKKKACiiigAooooAKQqpGCAR70tFAHx5+0T+x/8PPjtpdwt7ZQx6k6tsuH6Kx74Ar+cT9pL9hX4j/BPU7i7trSXVtLDMyyW0R2RoOxJNf17SFt4UDg9a5zxT4Z0TxVpsmh+ILRbyyuF2yRt0IoA/g6u4pre4aCdSjocMh4KkdjVoKPL3xsIsdVPev6F/wBrT/gmJpGsR3Xiz4WRxWcuGdrSCMs8jHnPTH61+D3xC+GPjP4aa1LpXi7TJ7RomZV84AblBxkYNAHn5iSbLoduOoqvnNSkEnKDbnt7UxlCnCnNADaKKKACiiigAooooAKKKKACiiigAooooAKKKKACiiigAr1f4P8AxQ8SfCvxbb+I/D121s8Lo0gXPzIhzjqK8ooBx0OCaAP7B/2OP2tvDv7QHhG2S5uVTW4Yt1xFI+ZMcAZFfdY2I2/GGfrX8QnwE+Nfib4IeMrTxN4cuZIQZU+2JGcGWJTnaea/rf8A2ZP2gdD/AGg/Alh4i06ZEvTEJbm23bnjzj73Ud/WgD6iooooAKKKKACiiigAooooAKKKKACiiigAooooAKKKKACiiigAooooAKKKKACiiigAooooAKKKKACiiigAooooAKKKKACiiigAooooAKKKKACiiigAooooAKKKKACiiigAooooAKKKKACiiigD/9b9/KKKKACiiigAooooAKKKKACiiigAooooAKKKKACiiigAooooAKKKKACiiigAooooAKKKKACiiigAooooAKKKKACiiigAooooAKKKKACiiigAooooAKKKKACiiigAooooAKKKKACmO+3oMmn1FIyoNx78UARy3BjAIGQSBUrOFUE8Z6VXXbv8k8/xVxnxA8Y6f4H8M6j4i1WRY4bS3klUt0JQZxQB8Rft/ftLWPwg+G1xommzq+qamktqyhtrxEgYbrX8n2ra9qOtX82r6nM1xd3Ry8jH5ia+qv2w/j/f/HH4nanq1pcF9N8zMSK2UGCQcV8eupVEkHftQA6RiwBZcHufWoqUszfe7UlABRRRQAU5QD1OKbTWoAC3PFL2zTMGnE5GKAJYvMyXUZC9RX7I/wDBMX9ltvG/ieT4j+J7fy7PS545reKRcrOpC98e/rX5qfAn4Wat8WviDo/hXS4mkjvLlYp2UZ2gg1/Yz8AvhHpXwg+HeleFrSBY57e2WKdwuGZgTyaAPYdOsY7OCO1tkEUEI2xoOgX0FaJiRiCRkikHJG08CpaAExximopQYJzT6KACiiigAooooAKKKKACiiigAooooAKKKKAI1VgxJOQeg9KTy8tljmpaKAIpE3IVBxmvlH48fsn/AA1+OOjXEGqabbQ6mykR3ZUs4wO31PtX1hIpddoOPeqskiDCKfmoA/kb/aX/AGDviN8FdRu7/Tbe41PTAzOJtgVVVjkDoOgr8+pY3gdopRtdGKsvoRwa/vD8U+EdC8ZabJpviKyiuYHUgiQZHTFfiv8Atb/8E1bfWZLzxv8ACi2aSTYS1jBHtjG3ktnBNAH88oilI3BeKYSABiu08YeDPEvgLXJ9C8T2z2V1Afmjb6kD+VclLKkwxsCEenegCCiiigAooooAKKKKACiiigAooooAKKKKACiiigAo49KKKAFUlc+9fcv7FP7UniD4E/ECxs5blzo+oTRw3CltqJGOeenHFfDNPjd43EkbFWU5BHagD+73wN460rx54XsfFOjSLLbXsQlVkORg12D3KRqrucKec1/Pr/wTB/a0e3vR8K/F155guGjtdPWVsnsTtH51/QJJLbyIqABtw+UetAFxGDruHQ9KdUca7VA6e1SUAFFFFABRRRQAUUUUAFFFFABRRRQAUUUUAFFFFABRRRQAUUUUAFFFFABRRRQAUUUUAFFFFABRRRQAUUUUAFFFFABRRRQAUUUUAFFFFABRRRQAUUUUAFFFFABRRRQAUUUUAFFFFAH/1/38ooooAKKKKACiiigAooooAKKKKACiiigAooooAKKKKACiiigAooooAKKKKACiiigAooooAKKKKACiiigAooooAKKKKACiiigAooooAKKKKACiiigAooooAKKKKACiiigAooooAKqyRs8oz90VapkmNpOcUAR/KoZ2wCAefYV+F3/BUP8AaobSLI/Cbw/cKt3FJun8tsExygDkjPoa/Tv9pj416Z8GPhlqHiTUZ1ilmjltohkZ3uhC8fU1/Hf8WviBrHxK8ZX3inV53mknkYAsxb5Qxx1+tAHnbyt5jZOS55P1pqxyNuKcrHyaipQSM4JGetAAQ2dx4BpKKKACiiigApM4paVVDdaAGFvSrFrbPcyBFBJPQDkmpIY4GQlid6847V9sfsPfs/an8bPilZzG2L2GmTRT3G4HYYycH2NAH6zf8EvP2XY/C3hY/FXXLbe+sQRzWZlXO1gV6Z6d6/aQP8qrJw8nasbwl4X0vwfoFr4e0iJYrW0TZGiqFAH0HFdIVUnJHSgBkZXGB261JUbhdpzwPaml1GEHccUATUV+Z37aP7Zvib9mnVorXTLa3m3wq481d33sex9a/P8AH/BYbx2SXewsQxGMeX/9jQB/RjmivzN/Yr/bR139pHU59I1KCCJ4oWmPlLg8Z9h6V+k+BAVwSd3FAFuiiigAooooAKKKKACiiigAooooAKKKKAI5CAuScCoisUa+Y3NWCARg0FQRgjigCuzl1zGNw96jKQzxGFlGxgQy9iD1FXAAOBSbQOgoA+FP2mv2Jvh/8cNGuJoLOOx1QBnSS3iAZ2xwCc9M1/Mt+0V+y34/+AviKew1ixkFiJCkU3LE4z14r+1FW+civIPir8HPCnxS0S80fXdPt5vtkbRmZo1aRN3dSeQaAP4bCCDg8Ulfp9+2H+wH4q+C2o3HiTwvA1zoW9nDsxZhGueSBnFfmOyusrxuu055BGCKAIaKUqFOBSUAFFFFABRRRQAUUUUAFFFFABRRRQAUUUUAFB4ooAzxQB2vgDxlq3gDxPY+KtFkZbuykEsYDbQSPev7Af2Q/jvpXxp+FOmXsEyzarYWsaXq9dspycZ78EV/GWBtyD17V+rv/BMD4/SeB/ibb/DzUrgra6/dJuLnhQoUcE8CgD+pSHJXJ6nrUtVbSWK5t454TujdQVI5yKsgYoAWiiigAooooAKKKKACiiigAooooAKKKKACiiigAooooAKKKKACiiigAooooAKKKKACiiigAooooAKKKKACiiigAooooAKKKKACiiigAooooAKKKKACiiigAooooAKKKKACiiigD//Q/fyiiigAooooAKKKKACiiigAooooAKKKKACiiigAooooAKKKKACiiigAooooAKKKKACiiigAooooAKKKKACiiigAooooAKKKKACiiigAooooAKKKKACiiigAooooAKKKKACimu2xd3WmeaMgYPNAEtZes3MVlp095O4SO3jaViTjhAWPX6Vf85d+wc+/avzc/wCChX7TVv8AB/4eXehaRcBNXu1CgA5PlSrg8dehoA/In/gpB+09P8VvGs/grw5cn+xrMoTg4zLEQG5HHVa/Kt5PMjCEfMDzWnquq3GrXNzeXEheS5uJJSWJJy7Fu/1rNbKfKeH7/SgCCiiigAooooAKKKDQAU5AS4HqeaNhK7hz7VJCXVvlHLcY+tAHRaF4cuvEXiGx8P6bG8kl5MkK7QTy5xyRX9a37B37Odh8F/hZp899bqmsXUGy5YgZ4wRz1r8j/wDgmd+zFJ468V/8Jt4otGbS7WNJ7RiuAZoySeTwe1f0r21qEVVChIY8bFUYxigDSVdowKWgHNFADHQOpU9DUSeW5yp5XipznHFQiMRg7Op5oA/nu/4LBykeJbSI4z9kiI/8dr8JZZHcqWABGOlfuj/wWHCDxbZHnd9ii/ktfhT1UN3zQB+z/wDwR21mZvjXq+mTlQiaUzAdOTvr+lTCk881/Kz/AMEodY/sv9oDUHmbHm6cIxjjrvr+qOJlwpHUgUAT0UUUAFFFFABRRRQAUUUUAFFFFABRRRQAUUUUAFRMxVvapaY6lhgUAIQD8wpgkDAqc0+NWC4al2qvIFAHzv8AtPJpcXwM8YahqkMc0dppzOu9Fdh8y9Mg+tfxf+MJbbUvEWo6hpw2QtKWC428YHQV/W9+3v4yXwl8CPEtqj7X1WwkjAPfDA/0r+P+S4Sd/M5Er8t6ZoApgHvS0Mx3HNBz9aACiikBzQAtFB45pAc0ALRRRQAUUUUAFFFFABRRRQAUh6UtIeRQBYkIaJCvVRzXT+EfEd54L1y08R6W7JeW53RspIwfwrkAWAIHQ1OkpVlY/wANAH9sH7LXxJtviJ8ItBv0lEs8FlClwc5O8jnNfSXWvwz/AOCRfxY+3+E9Z8IavKZLuW9QWozwEUHj9a/cdcouWoAkJxS1FvDHGKloAKKKKACiiigAooooAKKKKACiiigAooooAKKKKACiiigAooooAKKKKACiiigAooooAKKKKACiiigAooooAKKKKACiiigAooooAKKKKACiiigAooooAKKKKACiiigAooooA//R/fyiiigAooooAKKKKACiiigAooooAKKKKACiiigAooooAKKKKACiiigAooooAKKKKACiiigAooooAKKKKACiiigAooooAKKKKACiiigAooooAKKKKACiiigAooooAKKKKAAjNR7o87M80shIUletVWRFHmE4fGaAOL8e+LtL+H/he+8SalKsdtboxJY4+faSOfwr+Qb9rz4/6t8eviTfarPMwtbOSS1RWPVYm2gj8Fr9Sf8AgqB+1hJZW7/CTwndlo7uMSTtE2VV4+CCPX5jX8/s0kk8jSyn5pGLNnuT3oAYqlnyvRefyp8jiaQseOP5UpzGPLjO4nnIphRdmDw1ADKKKKACiiigAqUA+X5hIBHGKip8eC4MoyuKAH/NA25CNx/rXrvwW+GWt/FLx9p3hvSoWld7iEzYUtiIuNx9uM15ZDZvcvHDD800siogHX5jgV/R/wD8Exf2Wl8K6HH8VfElsBqV2jwBXXDhcHafpzQB+lf7P3wm0z4N/DfTPBVhCqfZl80so6l1XIzj2r3jJdA3QdxVMmQsISMBOd3Yj0qYOzMcHKGgC0uAPl6U6mRhQoC9KfQAU1utOprdaAP53/8AgsR/yN9l/wBeUX/stfhXCgd8HsM1+6n/AAWI/wCRvsv+vKL/ANlr8LI2CJuH3jxQB9sfsIeK/wDhF/jbaXAbb9qaGD/vpiP61/YdYkvDFIejRIfzFfw8fAPWZNG+LPhmVSR5mp2qn6GQV/b5oN4t5o1nOnRoI/8A0EUAbVFFFABRRRQAUUUUAFFFFABRRRQAUUUUAFFFFABRRRQAUUU1uVNAH4m/8FgPHz6J4X8NaDaycag80UoHptc8/lX83bgI+F7V+sn/AAVU+I7eJvin/wAImXLf2BeSDbnplWH9a/J3lt0hoAYqlm5r3L4U/CPVPilFPpGgxl9RJJjwu75VBzwK8RjG7KE4Dd/Sv1p/4JUwQyfGayiuk3M3mgE91OKAPy28ReGNY8Mahc6Rq0LwT28rRlHXaTtOCQPSuY6V/RH/AMFFv2KYNVsbn4r/AA8shHPAAk1tEm6Ry3Lv0HHBr+ee8tZbS5mtpgVkhkZHB6hlOCPzoAgBzwaNuDUdPBzQAtFFFABRRRQAUUUUAFFFFABRRRQAUUUUAfpF/wAEyPiDP4b/AGi9C0KSTZZ3bO8g6AkFQP51/WXDcJc26TxnKuAR+NfxFfs2+KH8HfFvRteibY8L7QRx95lr+0rwBdf2h4J0W8dstc2UMv8A30oNAHZDbndUlVgjbMH1qyOlABRRRQAUUUUAFFFFABRRRQAUUUUAFFFFABRRRQAUUUUAFFFFABRRRQAUUUUAFFFFABRRRQAUUUUAFFFFABRRRQAUUUUAFFFFABRRRQAUUUUAFFFFABRRRQAUUUUAFFFFAH//0v38ooooAKKKKACiiigAooooAKKKKACiiigAooooAKKKKACiiigAooooAKKKKACiiigAooooAKKKKACiiigAooooAKKKKACiiigAooooAKKKKACiiigAooooAKKKKAK8u9ztQ4IpylkUKTuIpSCCcDr3pvEXLHJPSgBHdyNuNue/pXzH+1L8cNK+CXwt1XxNcTql/BH+4iLbXcEHkV9HX+q22mWsl9qJENvEMs56AV/K/wD8FFv2n7n4r/ECXwzotyf7M0oy2k0aNlJCDwSOaAPz++KHjrVfiF401LxLqc7TG5uZZI9xztV2ziuAfDEHOeKYW646GnsqKRsbdxzQAgJU5HBpGyxy3JoooAKKKKACiiigAqYKZfm+6g4J7ZqGuh0DRr7xHqlro+mIZXuJUTav+0wGf1oA+w/2Jf2dNT+N3xNshJGx021YTNMVyhaFt239K/rp8HaBpvhfQbPQ9OiWBLeGNCi+qqAT+OK+LP2D/wBm22+CHwrtFvoP+JneYuxK64cJOu/b9Pmr71iQlvNYYbp+FAFgqCCp6GmrGiJsUYX0p9FACKoUYHSloooAQ9KY56U89KY/QUAfzuf8FhiT4xsh/wBOUX8lr8LVIB5r90f+Cw3/ACOVl/15RfyWvwsxk0Adf4DvTp/jTQ9SY4FvfwSZ9Nrg1/ap+zl4qHjX4V6R4gWTzVmTaGzn7qrX8QtpM0MyyKcFCGH1Ff1w/wDBM7xYmtfsv+HbSaTfdRtKXBPOMJigD9EaKKKACiiigAooooAKKKKACiiigAooooAKKKKACoW3biM4yMCpqYwBB4yaAK6l4YwrtvYnrXP+MtbXw74V1LXHfatlbtKW6YC10C5xul4J6Zr45/bb+Jdr8OPgprkdxMEl1aymt4cnB3cHigD+Wz9rTxi3j348eK/Ecc3mxXN0XU5yMV83M2UVF9KtX1/c3txJeXLF5J+WY9TUOFj8p/XrQAw4EZHev1o/4JVSlvjlpSk9pcf+O1+SbvuZiOhr9Vv+CU9x/wAX/wBJiz2l/mtAH9Q+r6NY61plxpd/GJYZ0ZGU9DuBH9a/l0/4KI/snn4SeNbjxb4ZsPJ0K62ljGuI/OmIJ59cmv6o2wBxXzx+0b8INH+MXw41HQdUgSVo4pZoiw3HzEQlQPxAoA/iV8vZneMsTjFMZSh2MuCK9V+LHw91X4a+OdR8Na3E0E0UjsiOMHaWO39K8vldj8ki/OO/c0AQ0UUUAFFFFABRRRQAUUUUAFFFFABRRRQBt+G7uSy12zuI22ssqc/8CFf2+fBC/TUvhP4WnQ7nXSrQE/8AbMV/DhZkre27DtKn8xX9pP7IeqNqfwb0R3OfKs7ZPySgD6iDHeFPpUtVxlpt3bFWKACiiigAooooAKKKKACiiigAooooAKKKKACiiigAooooAKKKKACiiigAooooAKKKKACiiigAooooAKKKKACiiigAooooAKKKKACiiigAooooAKKKKACiiigAooooAKKKKAP/0/38ooooAKKKKACiiigAooooAKKKKACiiigAooooAKKKKACiiigAooooAKKKKACiiigAooooAKKKKACiiigAooooAKKKKACiiigAooooAKKKKACiiigAooooAKKKKAIJXZPmx8o6mo3Xz2jkQ/KKeI2MjFvu1598SfG2mfDbwZq/jLU5Vit9MgMzZI6AgcDvQB8Cf8FGP2mLX4VfDy68K2VyIdU1a2f7MFbDZUkcflX8sGp6vc6rqtzq94TLNdSGSTdzljX0b+1d8ddX+NvxN1PVZ5TJp0Vy/wBi+YkeWwHbtzmvl2gAJznjGTT3VFI2HPFMooAKKKKACiiigBQCQT6UgGSAO9OCsQWHQdaASgyR16UAOETspcDgHBr9iv8AgmR+y6/jjxPD8RNetPN0yykaM71ym7OV7f7Nfmx8FPhbqvxc8faZ4R0qN3N0wLbc4+UjPOPev7GfgL8J9H+Enw503w/o8KxyNbwvPhQp8wL83T60Aez29tFZwQwwnbHDGsKqOgCAKP5VcjVk4ySD3qqIRJDtz3zVtMg7fagCSiiigAooooAQ9KY3I4qSo6AP52f+CwzD/hNrGL+L7DEcfgtfhkqFxheor9xf+Cwxx8RbAf8AUPj/AJJX4dRv5bE+uRQAAKFBz82eRX9EH/BIP4gw6rb33gcT7m06z80x5+7uOP6V/O6VPX1r9Nv+CY/xJXwJ8Ybm1Zwh1WKG2XJ6ks1AH9YeajeVI2VGOC3SoVDi3y33sU3YGiWR+qc0AWwQelLTE5UN60+gAooooAKKKKACiiigAooooAKKKKAComDFuOlS1WmPlndk/NxQBEWd5mXHCjI+tfz8/wDBXT4wfbH07wDZT7Z9Pu38+NT/AAsCOfyr9z/iL4ltfB3g7VteupRGLK1lnViQMlBnFfxu/tQfFS4+L/xb1rxg8xe3u5MxrnKggnoPxoA+cXIaNR3FRfM2Ae1OooAa2OK/UL/glZMq/tH6NCTyyzED8Vr8vsZYCv0g/wCCWt2E/au8O2hP34pz+RSgD+tRXVxle3FNkVGjKsAysMEHoc0IoTKevNMkBCcetAH87X/BWP4CvpOsr8WtPtvLgvpYrXCjCgrjJ/Wvw8lOG8vqR3r+zb9s74UW3xT+DmpWcybzp0E94oxn5kTP9K/jY1ixk0++ntZwVkjldSD6AkUAZVFFFABRRRQAUUUUAFFFFABRRRQAUUUUAWLJd17AP+mifzFf2U/sR7v+FLadu7Qwf+gGv42bEhbuE9/MT+Yr+zT9i+3a3+C2l7hjfb27f+OUAfWkeCCfeparQsQxWrNABRRRQAUUUUAFFFFABRRRQAUUUUAFFFFABRRRQAUUUUAFFFFABRRRQAUUUUAFFFFABRRRQAUUUUAFFFFABRRRQAUUUUAFFFFABRRRQAUUUUAFFFFABRRRQAUUUUAFFFFAH//U/fyiiigAooooAKKKKACiiigAooooAKKKKACiiigAooooAKKKKACiiigAooooAKKKKACiiigAooooAKKKKACiiigAooooAKKKKACiiigAooooAKKKKACiims20ZoAdRVcTgymLuBmn+YTytAENxJHErGRtobv0Ar8CP8AgqJ+1MC8Hwr8J3ZIVpLbVArY4+YjBHXtX6pfta/HPRvgz8L9UvZp1j1K8tpEsgWHEoweR1r+PH4j+ONY+IPi7UPFGtzGW6vZTI/J25PoKAONnbcxyScdCetV6cN6g56Gm0AFFFFABRRRQAUUOQDhaQZPNAC7WbhTV2KOW6ZbSJN0jcAAVSRS77Qetfdf7DP7PF38bPixpq6pAz6JaXAju2UEHBweD070Afq7/wAEwf2XYPC2ht8RPE9ri+81JLXeuR5bjPf6V+1IZBHhBgDjArlfCfhbT/C+hWOg6ZGsNtYwrCoUAEhemcdTXXIioMDpQBVt4PKyxJyc4GamhL4xJ96nGFS27JzTwoDbqAHUUUUAFFFFACE4FMTkGntyKjBwwA70Afzl/wDBYlsfEnTwP+gfH/JK/D3rX7ef8FiWP/C0dOj7f2dH/JK/EVeCSKADdkYHavZ/2f8AxTJ4S+LfhrV95SNNRgMhzj5VNeMjjp3q3ZXk1hcw3VucSQOHQ+4oA/u58BeLrTxx4Ys/EdiweG6Xcp7YrrwpyQehr87/APgnD8TR42/Z/wBA0ueYSX9lagzjOSM7R9a/QmZpogrIRsX7/wBKALS8cDtTqiiO9d46N0qWgAooooAKKKKACiiigAooooAKKazbRmqpkmQ73+57daALlQSgkHdjaBnNMknJO2PrjNeCftB/HLw58GfAF94i1i4VJGiligTcN/m7fl+XrjJFAH5uf8FRv2kbTwz4Qi+Hfhq8I1Mzst2qtj9zIAOoOexr+bOZ5H+diSCScmva/jj8WdW+MvxG1TxnrEzubn5FXJCYRmxhenQ141kTW6xrwY+TmgCrRRRQAmSrZFff/wDwTNmNn+1x4ZmP/PCf9THX5/t1r7i/4J7XrWn7UPhucHBWKUfmyUAf2HxHzAkvqoNSkktjt1rN0yVpNNgk7sin8xV9WOzL9aAOf8W2J1PwzqWmsoYXVtLCR7OpFfxoftieB0+H/wAdtd8PQpsji2uB0++zf4V/ag4EitGRwRiv5VP+CpfhJNL+PWq64qFftJjTPbgt/jQB+XFFFFABRRRQAUUUUAFFFFABRRRQAUUUUAXtKhNxqdrEP4pU/wDQhX9tv7Nekf2J8HvDkZGPN061f84xX8ZHwq0GTxJ4603So1LNJIpwOvDCv7bvhlaNZ/DTw1ZqMGHTbVCP91BQB6AMebkelTVCu3eP72KmoAKKKKACiiigAooooAKKKKACiiigAooooAKKKKACiiigAooooAKKKKACiiigAooooAKKKKACiiigAooooAKKKKACiiigAooooAKKKKACiiigAooooAKKKKACiiigAooooA//1f38ooooAKKKKACiiigAooooAKKKKACiiigAooooAKKKKACiiigAooooAKKKKACiiigAooooAKKKKACiiigAooooAKKKKACiiigAooooAKKKKACiiigApr42knsM06msVA+boaAKEbK488A7mO0/SqWt6jb6Dplxq1y4SC1jMshJx8q9ea18LAvyj5a/Ln/gox+09B8J/AMvh7RrxXv9V8y0lhjbLorAYLD0oA/Ij/gox+0pN8XfiTd+GNIuWOl6Tcs0O1vlIbI6jg1+Z6Rgq+8ZbtVq+vbnU7p7y8ctOxyzHvVVZiJFY8hTQBLcujRxKowVGDVanO6u7Nj7x4ptABRRRQAUHpRRQAzBpc4GKUselKiFmGehoA3/AAr4ev8AxXrVt4f0tDJd3j7IgBk5+gr+uL9hX9nDTvgp8MbG+lgVdS1eCOeckDcJBx35HSvyJ/4Jjfstv488ZH4ia/ZGK30KaOe2aVcCUED7h79a/patYPsNv5SL+7iGI1HYUAXflOVFSgYGKhjOMcEbuanoAKKKKACiiigAooooAQ9KbjkGnHpSbh0zzQB/Nt/wWKl/4uvpy/8AUNj/AJJX4oiv2h/4LEMf+Fuacnc6bHx+CV+LwGKAFoFFFAH7T/8ABJb4xp4d8W614U1S4wl5BFBZoWx824ev0r+kMJ+6Ec/JcfMa/h//AGfPG958P/i14d16CbyYba+jkmPQbQD1r+0L4X+NIPiF4F0zxVBIHS/hEiPnIOaAPSIgqKI16LwKkqOPhQCcn1qSgAopNw9aAQelAC0UUhIHWgBaKMjrSAg9KAFooppZV+8cUAJIwRSxqlvmIKHknoccYq1NseI5G4V4f8Wfjp4J+D3h651fxFqVuskSnZAZAsh4OMZoA6n4i+PfDvw48N3Os63ew2iQozgzOE3MFJAGe57V/K3+27+1nq/x88YXOmaZcPFodu42RkkEvGcE5GAQcelSfti/treKfj7rdxo1tcSxeHI3wsBPJeM4DbgenHpX58SOznzJDnnp3xQA7d5n7teFHNMPUiMH3qR2iJzANv1pkcpUtj+IUAR0UUUAI3SvrH9inUf7N/aC0C8zjarj82Svk49K9/8A2YrsWXxf0ecttw2M/VloA/tZ8Lyef4fsJf79vE35qK25eQFHrXK+BJRL4P0eQHIaygP5oK6zAAJoAikYxsG9cCv52P8Agr1o8UGr2uqquHnu9pPrgV/ROP3ygN1Br8B/+CxEEaabpMoxuN+R+goA/AiiiigAooooAKKKKACiiigAooooAKKUKzdBmjacE44HWgD7T/YC8Inxf+0r4c06WIvA2/dxkZBWv7CtDsxpumW1gOBDEqAeyjFfzt/8Ei/hj/a3iSb4gSW5J0u68oSY6bgD/Sv6OGX5wcdqAAJmTfU1V42YqSRjmrAoAKKKKACiiigAooooAKKKKACiiigAooooAKKKKACiiigAooooAKKKKACiiigAooooAKKKKACiiigAooooAKKKKACiiigAooooAKKKKACiiigAooooAKKKKACiiigAooooA//W/fyiiigAooooAKKKKACiiigAooooAKKKKACiiigAooooAKKKKACiiigAooooAKKKKACiiigAooooAKKKKACiiigAooooAKKKKACiiigAooooAKKKKACo5ApHz1JUM7IkTySHaiKWYnsByTQB5t8UfiBpfw98H6pr+qXC26W9rM8TOcb3RSQo96/jr/ac+N+r/Gz4lal4pu2k+yyvtijY52lCec5Nfqf/AMFS/wBqX7bMPhH4SvMfZZkmlmib76vgMpH4V+EdxJI8m3kDOce5oAgJYkl+tJTmzuOeabQAUUUUAFFFFABRRSjJOB17UASRECQiQZzXsfwR+F2q/Fr4i6R4V02Bpre4ulimZRlY1YHk+1eXRWct2kdtbIZLhzggdea/o0/4JefsvQeF/C6/E7xJbAzanBHLAJFwY2Ur0NAH6c/s/wDwm0z4Q/DnSfCtiirNaW6xTOoxuINe44b1qMbfvq2A1Oz/ALdADsN60Yb1puf9ujP+3QA7DetGG9abn/boz/t0AOw3rRhvWm5/26M/7dAC7X/vUbX/AL36UmT/AHqXJ/vUAKFbPLZqPYPNDZp+T/ephQlgd1AH81H/AAWP3/8AC7dK2nH/ABKk/klfjLgjrX7H/wDBY6Rx8ctKUHj+yk/klfjhyetABSgZOPWko57daALKyNAQIwQV+8fWv6cv+CW3x8h8efDw+ANRm2Hw3bRxQo7feyV6fnX8xau5428j7x9RX2D+xV8bb34RfGHSWSYw6bf3aC85wpQD+L8hQB/ZSi9COg6VMelcv4P8Uad4u8O2Ov6bIskF5EJVKnIwSa6brQA0ICc0AbTwKa8yxdaY8khwVU4oAmLe+KZkMeu6hRuHzLisfVdRs9NQTXk4tUB+8e/tQBtF0+6xxQUOPkOK8X1z4+fCTw07f8JD4gtLQJ1aQkdPwr5o+I3/AAUR+Avg2Nm0TX7HV5Vz+7RyDx+VAH34rM2VHBFcf4g8deFPC8Elz4tv4dMhj58y4JAI9eAa/BX4v/8ABXrU9UjudI8H+H308jKR3kUv3v8AaHzn+VfmN8Tf2sPjP8UDLHr/AImu5rSTIFvIwKhT2oA/eT9o/wD4Kb+Bvh7b3WheBwurXRBCXVpKMIRx0JFfgR8Z/wBoz4g/GzW5rzxdfzXFo5by4ZDnapOQOp6V8+/aWedri4Pmljls9zTJZPM+fd34WgCRs5MeNidQKrc96tSy+cAjDaQBzVUgjrQAUUUUAFFFFAARlSa9I+EWpDS/H2l3bHAWVRn6stebk4BFaegzPba1YypwRcRf+higD+6b4aFJPh/4dZf+Wum2r/nGtdzJwoA9a8r+Ct8mo/DHwrOnIXSLNT9fKWvVmXceelAEIyJye2K/nz/4LA3yyDTrPPzR3pJH4Cv6E/lxu9K/mI/4KxeL49R+Klz4bR8m0lR8Z6Zz/hQB+QNFFFABRRRQAUUUUAFFFFABRz2oo57UATbjCFKnk/eFLGlxM/kwKWMn8I70kkBVY3J/1lfW37Gfwau/i/8AGLRtLeAzactwI7hsZUA46/nQB/R7/wAE8PhBF8K/gvBKkQibXUhvHAGMkg19/wBcx4M0GDwx4W0zw/bgLHYW6QqBxwtdPQAUUUUAFFFFABRRRQAUUUUAFFFFABRRRQAUUUUAFFFFABRRRQAUUUUAFFFFABRRRQAUUUUAFFFFABRRRQAUUUUAFFFFABRRRQAUUUUAFFFFABRRRQAUUUUAFFFFABRRRQAUUUUAf//X/fyiiigAooooAKKKKACiiigAooooAKKKKACiiigAooooAKKKKACiiigAooooAKKKKACiiigAooooAKKKKACiiigAooooAKKKKACiiigAooooAKKKKACvl79rf4wN8F/hJf8AiRI1ke4WS0XccbWlXaCPcZr6hr82f+CozIv7Oh3nA+3x/wA1oA/li+IHi7VPGfiy+17Vbl7qeeV/nc5IUsSB+Ga492Zl2AfMvVu9OudpnkVOSZG/nTAHjYq/UigCIHj3oG49BSFCKB7nFAD9r9SMCj5fWnAr2bJ9KRmP90UARlvSlB45o3A9RUiwPIN0YyKAI9wo3enWnGN06ik39sCgDpfB/iL/AIRnxNp+vzW63qWc6yvbvwsoX+E4xwa/Xrw1/wAFedb8KaPaaFo3gGztrOzG1Io5XC49Mb6/GDaPWjA9TQB+4j/8FovFhPHga1UdgJn4/wDH6Z/w+h8W/wDQj2v/AH+f/wCLr8PCcdKTJoA/cT/h9D4s/wChHtf+/wA//wAXR/w+h8Wf9CPa/wDf5/8A4uvw9AHWm/hQB+4n/D6HxZ/0I9t/3+f/AOLoH/BaHxaenge1/wC/z/8Axdfh3x6UvH0oA/cT/h8/4u/6Ee2/7/P/APF0f8Pn/F3/AEI9t/3+f/4uvw8+X1NHy+poA/cT/h9F4sHB8D2v/f5//iqP+H0fiz/oR7b/AL/P/wDFV+HgcDjGaXzB/dFAH7hf8PofFb/KfBNsue/nP/8AFUR/8FnfF+d//CEWzAcf65//AIqvw83j+6KcVdBzwD0oA+sf2tv2odR/al8c2vjHU9Kj0d7a0FsIo2LA4C85JPpXyWKsGMCDe5+bPA9qjeTzDuwF4xxQAyg+1FB4oAFkZTn8/erdndyW1wJrdjFIDlWXqp9qp7hTfcUAf09/8Ex/2nF+IXguXwFr22G80VYrS0y2WuOASevH3q/XkOUUFhj19q/iY/Zj+NurfA/4oaR40t5T9kspxLPCWxHJjH3h36V/YP8AB34naT8U/Bmn+KdLmWZb2BJZ1U8Ru3YUAel6qsrWk8kWd6xOyD1IBI/M1/PD+0J+338bPhV43vvCGqaVLZOJZTATKQWiDEK34jFf0X8upEi4Xpn2r8Xf+CoX7LE/jHRW+J3hS08y/tkjiZEXA2KAWbPJ6CgD8uvEv/BQn45aipWHVryxZuySjgH8DXiXiD9rH9oLWl3XHjXVTAx4BkXGf++a+crqKWC6khu8h4WMbA9mU4I/MVA7O68fd9KAO81r4rfEPxCCNZ1+7u93XzGBz+lcA88kzmSYl2PUmkwR2FL83oKAGs2/qeB0HpTDig9aSgBwYbSuPxpUYL1GaaME8nFPwnqaAAFi24jNLtkPOKFTP3TTyAvDOQaAIiHHUUm40rY7HNNA556UAOyKXIoKoOjZpnfjmgCUR7x8vJ9KuWB26jaZH3Zo/wBGFVYWVXBc7amtMi7inHIWVT+tAH9qf7KGtJq3wg0RlO4xWdtH+UYr6Y3DlM84r4N/4J9azHrnwTt7pX3eQ0cX5KR/Svu3Z+/357dKAMzVr1dL0e8vZTxbQvKc+igmv49P29vGkXjj9orX9ZtZN0DhFUA5AKl6/qN/am+Jll8L/hRrOrX8ixm9tLi1iz/fZMDH51/GB4o1q88Q67d6teuXeaV/mJzxuOKAOfooooAKKKKACiiigApyqWz6Cm0pJCDHrQAfL2NSLE4G5hwKZtTYGU/N6U4ecMMeR6UASQxzXlwlvHkljhRX9Pv/AATK/Znf4YeBZPGevW26614RXlnJIvzIuAPlPHpX5PfsDfsvXfxm8dW/iG9tmfTtKnSSZSuUZWA6569a/qt8OaRZ+GtBsdB0+NUisYhFGgGAAM8CgDpEGFAPWn1DC4cHB5HWpqACiiigAooooAKKKKACiiigAooooAKKKKACiiigAooooAKKKKACiiigAooooAKKKKACiiigAooooAKKKKACiiigAooooAKKKKACiiigAooooAKKKKACiiigAooooAKKKKACiiigD//Q/fyiiigAooooAKKKKACiiigAooooAKKKKACiiigAooooAKKKKACiiigAooooAKKKKACiiigAooooAKKKKACiiigAooooAKKKKACiiigAooooAKKKKACvh39vv4YeLPix8FD4a8HW6XN99rSTY52jaCMnODX3FTJIo5V2yorj0YZH60AfyE/8O3P2nLqQz2ui25DSHGZiO/8Au1rp/wAEvf2r7qXcNEtMHv8AaD/8RX9bK2dovCwxj6KP8KmEUa9EUfhQB/JxF/wSp/arfBbRrTH/AF8//Y1sW/8AwSh/aXb/AF+lWw+lx/8AY1/VjgUtAH8skP8AwSc/aBJHnadCo74uP/sa1Yv+CTHxsJ/e2aAe0/8A9av6hqMCgD+ZCH/gkp8VT/rrcA+03/1q04v+CSPxJx80bD6TV/S5gUUAfzYR/wDBI3x63+tVx/21q/H/AMEifFnHmeYB3xLX9IFFAH85i/8ABInWT/y0n/7+f/Xqyv8AwSE1c8+bP/38/wDr1/RTgelLQB/PBB/wSEuuftdxcL6Yf/69XF/4JBRkc3V1/wB9/wD16/oSwDRgelAH8+I/4I/xH/l7uv8Avv8A+vU6/wDBIGx73l3/AN9f/ZV/QRgUmB6UAfgAn/BIHTz/AMvl3/31/wDZVOP+CPumNw95dgf73/2VfvzgUUAfgR/w550j/n+vP++//r0f8OedI/5/rz/vv/69fvvRQB+CCf8ABHjw9tG/UL0N3+b/AOyp/wDw538N/wDQQvv++v8A7Kv3swKMCgD8FF/4I7+Gc/PqN8B3+b/7KiX/AII/+FmcKmpX5AHdvT/gVfvSwGKY4AiY47GgD+Mf9sX9n/T/ANnX4h2vg2zmllWW1E+ZDk/w+59a+RWYMciv1H/4Kyy+b+0DYkdtOx/6BX5cjyRFk58zP4YoAb060YzxUzsZIhwBio+CgHcUARspU4NKvSkGM8808FmOF4oASORo2yPyr9df+Ccn7WV98OPGdp4C8T3ZbRtTmDO8rbjEFwAFzwBz61+SEkTBctjPbFalve3Nm0VzBI8FzFjy3iYqR9SMUAf3h6Xq1trdpb31g6y2txGJFZSDw3I6VW8Q6Hp3iDSrnQ9SiWaK5jeNg6hgA6lcjPcZr8PP+Ce37eMF8lr8L/iBc7ZzhYJW+75cfAy7d+R3r90bO+t9TijvLR1eGRAylSDkEZHSgD8U/ib/AMEnfDWv+LbrUvD9zdCynZpzztxI5LEY3dMmvOJv+CREdzGJorm6D5wV3YGB+Nfv5HP5j7UHHuKsqRu2igD+exv+CQNwelxc/wDff/16iP8AwSBuh/y8XP8A38/+vX9DlFAH86sn/BIfWQxEUkxXsTJ/9eq7/wDBInXx/HN/38/+vX9GVFAH84j/APBI3xIo/dGUt2zJ/wDXqjL/AMEj/G38CMf+2tf0kYHpS4FAH80cn/BJD4ig/u42/wC/1UJf+CSnxSB/dQbvrNX9NeBRgUAfzAT/APBJn4zDPkWaH6z/AP1qyZf+CTvx8APlafCT2zP/APWr+pXAowKAP5VJ/wDglB+0iB+60u3P1uP/ALGufuf+CVH7VS/6jRrQ/W5/+xr+sukwKAP5Hpf+CWf7W0Z50Ozx/wBfJ/8AiKz7j/gm5+1NYOkF1odqoyGys5PT/gFf11zYAwAMnpmq8ltbyLuaKNmH95RQB8If8E+/hx4z+F/wmuPD3jG3WCcXe7aGLcDd6gV94TOIybjOFUEnPYCmCO3hiPlIsYzyEAAz+FfGX7Yv7UPh/wCAngC9ka4Q6jcxtbpGuHYecu0HHJH3utAH5Z/8FWv2iv7Z1g/CHR7kH7E8d05jbqGxkEj/AHa/DMuxG1vXNdr488aax4+8UXniLWZXlnuJXIZmLHaWJHXtzXGSLsbB+939KAI6KKKACiiigAopVYqQRzUzqIZB33DP50AQVLEudxPTFDI5fjHSnlVRMfx9/TFAEUOAS3pzX0B+z/8ABPxB8aPHWnaNZQO1rNOqzMoPyowPPTFcj8JPhP4m+LPiuz8N+H7WWX7RKkbuFbaA3csBgV/Vr+x9+yL4Y/Z38J2zXkCza7cxKlyzgSqjLg5QnOOlAHsX7PPwI8P/AAT8C2Og6VAqXSQKk8m0BnIPcjrXvTwtcwvE3ynpkda0sCkwB0oAihjEUYQdQME+tTUUUAFFFFABRRRQAUUUUAFFFFABRRRQAUUUUAFFFFABRRRQAUUUUAFFFFABRRRQAUUUUAFFFFABRRRQAUUUUAFFFFABRRRQAUUUUAFFFFABRRRQAUUUUAFFFFABRRRQAUUUUAFFFFAH/9H9/KKKKACiiigAooooAKKKKACiiigAooooAKKKKACiiigAooooAKKKKACiiigAooooAKKKKACiiigAooooAKKKKACiiigAooooAKKKKACiiigAooooAKKKKACiiigAooooAKKKKACiiigAooooAKKKKACiiigAooooAKKKKACiiigAooooAa3SoZmIjcf7LfyqcjIqnMd0UrDoqN/KgD+UT/gqXcfafj5btn7tkR+W2vzOQAn5gSK/Rz/gplL9o+OqyDotsy/qtfnKhkX5VoAcA0p2jhaWVEUlUySOuKuWdndX1zDY2wLy3EgjQKMksxwBX7A/sxf8EyfEXxD8O2virxc0UFvdj/j3lBSUAYPOT3z6UAfjiu1UzjJNIjKc7gfwr+iLxl/wSM0y5tZI/CM9tZyYO1pm3D+Yr8z/AI2fsB/GT4PSTT+V/a9uhJ3WcLMAB77moA+EoAXlCp97tu6VLufcYVIyTyT0qa/0vVdHumtdTt5LSYHBWVSpBHsaz2VlPXdnrigDodJ1nUNEuo5tKmaCWNxIJEYqcqc9Rg1+7v7E/wDwUdhlmsvA3xRlbzkVYYpgu2PYvyrliMZ6Z5r8A4pMcN93071ZjvLi1uEmhkKshDKynBBByOlAH95Gma9p+t6fDqmj3ENzbzorK0Lq4G4Z5K56ZrcgPygEgn1Ffyjfsu/8FD/iB8HJ7Xw14ou3vtA3AeUikuNxxncS3Qe1f0S/BT9qD4W/F/RLe+0TUIbaeVebaaZTLnA7YHU0AfTdFQR3EckQlU8N096c0yKu4/l3oAlopiyKVDHjPrTsjtQAtFJuFG4UALRRSZ7UALRUZkx2zR5o9DQBJRTFcMM4pomUkg8fWgBJQjDa/APeqPlyYYXDAr/Dt64pdT1CwsbOS51GdLaBBlpJG2qB9a/NT9qP/goR8PfhTo13pfhif7brSqVjlt5FkRcZBBAHrjvQB9KftEftK+CvgN4Wuta1y9ikmVCkdtFIrTbnU7Ts5OAevFfylftF/H/xV8f/ABxda3qly32cMwhjJKrsRvk+XpnAFcl8aPjf40+NniOfxN4rvmmfcyxICyqIycgFckZxXjDTySYLHpjpQBJ5sjyMeA2MU1gogUn72ealEtuZjJIpI24H1qq7bjuPWgBtFNzUgXPegBtFKRilRd/fFACAEnilXj525xxRtbkgHA71Nb21xdOI7VDI5IARRkk0ANCFx5khx2A717n8FfgX4z+MviK10TRLKVoJJEDSmNtm1jg/N0r6L/Zh/YZ+IXxx1e11C/tX0/Sw6s4uomXcqHJAOR1HSv6YvgT+zZ4D+Bvh6203wxYpHOigSSPtfOQM4OB3oA8n/ZI/Y68J/s6+HLeW6tY59dmjCTyHbKo6EbSc4Nfbj7IZgSCd54x0FTskjN1G0U5lbK7cYHWgCWiiigAooooAKKKKACiiigAooooAKKKKACiiigAooooAKKKKACiiigAooooAKKKKACiiigAooooAKKKKACiiigAooooAKKKKACiiigAooooAKKKKACiiigAooooAKKKKACiiigAooooAKKKKAP/S/fyiiigAooooAKKKKACiiigAooooAKKKKACiiigAooooAKKKKACiiigAooooAKKKKACiiigAooooAKKKKACiiigAooooAKKKKACiiigAooooAKKKKACiiigAooooAKKKKACiiigAooooAKKKKACiiigAooooAKKKKACiiigAooooAKKKKACqU/yW0/8AuOf0NW2OBmqV+2LSc/8ATJ//AEE0AfyKf8FFbwXfxukIOdqOv5MK+Boy4G6P72MfhX2h+3dctc/Gu9JOdrTD8nFfF0bGM7lPJ4oA+4/2CPgsPjD8ZIbO7i8yDShHfDIyCY2Jx/47X9eGgafbaZpsMFtF5KJGqhPoAK/ET/gkT8NkstNl+IgQMbqGWDcB1254z+NfubFNJMxDxlAvTNAD2ZZfkdDiqmoaZpmpWMmm3kSywSrtZSAcirrLK3z5wP7tMjOXI8sr70Afm1+0d/wTp+FPxStZdT8N6fDpurSKzGd+fnOecAV+Afx0/Y3+KXwd1K4iXTLjULJWYi4hiPlhR7k1/ZPMD5ZyN/t61yvinwr4d8XaU+ma9ZLeW8i7WhbuKAP4Q5bWS1ke1vIzFMpwd3BGOoqGRU+5GMn2r+oz9oH/AIJh/DX4g28+oeBo7TQb1wXOELMW6nopr8WvjJ+wh8ZfhnczS6Xo15qttESDLDGApA78kdqAPhYIqcvz7V6H4A+JvjL4b6museEb57G5TBV+T93kdxXL61oup6Ncmw1izksrlPvLJwR+RNYz5XCF8gUAfsv8A/8Agq14y8ONb6b8V1udd6IHQhAp9eSa/YP4ZftwfBD4k2cV3c6vaaPO4BWG5mG8E9uBX8c/mImWb52PQ+lSWV/NZXK3cRPmqcqw6g0Af3daH428JeKUU6Lqdveg9DE2c5rp2mCfJnZjoTX8Ungr9rH45/D54x4a8S3NokeMIh6AfjX1b4V/4Ke/GnS9jeJL691Tb1BcDP8A49QB/VeZdrKm0sGGdw6VOFQ89K/nm8M/8FlpdNiSPV/CN3ebQASZkGf/AB+vSLP/AILS+G5vlk8C3CfWdP8A4ugD9zmDj7rYqLbL13ivxYi/4LG+D5R+88ISp9Zl/wDi6pX/APwWU8JWikQ+DJpfpMv/AMXQB+2yCXPLg0+QjBPT3r+fHxF/wWbF9G8Wj+Druzc5w4mQ4/8AIlfLnjL/AIKifG3XvOTQdQvdMEgIT5wduf8AgRoA/p91j4geD/DiyLrusW1gyDlpn2ivhz44f8FDvhF8L4ngsJo9euUBANpKOCPqK/mk8Z/tPfG7x8zxeKPElzeiTOQ565rwma4mubpp7p9zscsT3NAH6V/H/wD4KS/Fv4myTaT4W1CfS9Gm3LJbyclh25BFfm9qeo3+r3s2oXsrTTTMXdic5J61RLJuII356VIg2ISJAvP3aAK6bS2CpJpKlMoXlBtPrUXXmgApMZIFLSEHtQA+XaAFXtSpAXXdkAUxF3ZJ7Vatba5vpRb26lsnGBQBXOW4HQdTT5PLcAQoQRwT6mvpD4ZfsrfGL4lahb2uk+Hr4WVwQDdqilAD365/Sv2B+An/AASf0/SpbXV/iFewanE+HktJYiCP9k/LQB+Kvw1+BvxJ+Jl/Dp3hvR7qaCYgGZI9yDnvz71+6X7Kn/BLvQ/Cq23iX4qrBq0pxIsIUoyFvmAOQfu1+q3w3+CXw5+E+nx2/grSIbEoAGMQ6kd69XldwoaI5PHAoA5/w94Y0bwbpsWlaBbLBaxqFWNQOOMegrqYgwT5uTUZOcEna3FTjp1zQAtFFFABRRRQAUUUUAFFFFABRRRQAUUUUAFFFFABRRRQAUUUUAFFFFABRRRQAUUUUAFFFFABRRRQAUUUUAFFFFABRRRQAUUUUAFFFFABRRRQAUUUUAFFFFABRRRQAUUUUAFFFFABRRRQAUUUUAFFFFAH/9P9/KKKKACiiigAooooAKKKKACiiigAooooAKKKKACiiigAooooAKKKKACiiigAooooAKKKKACiiigAooooAKKKKACiiigAooooAKKKKACiiigAooooAKKKKACiiigAooooAKKKKACiiigAooooAKKKKACiiigAooooAKKKKACiiigAooooARsY5rI1cqlhczs+1Vhk4/4Ca1XZUUs3QVUuvs8sLW8oG2VSCD7jFAH8Y37YmonVPjFquxdxS4uFz7B6+WLKJ7idLZE3M7BfzOK/r28UfsFfCvxXrtx4g1OGEy3Du5zFn75zXN23/BOX4QWsyTxQQ70cOP3I7HNACf8ABMPwuvhn9mTS47pMXDXc7EkYOGxiv0U+dZSxPynoK4jwF4F0bwB4eg8LaMqxwW53BVGBzj/Cu5VsuYz/AA0AT0UUUAFMCIDkDmn0UAN2LndjmsrVdLsdVt2tNRt1uYXGGVuhBrXqM5A+XmgD4z+Kn7D/AMD/AIkQzSnw/Y2d7KD/AKQEJYE9+/evyv8Ai9/wSGv7Mz614N12W7Jzts4ogAMcj+Cv6GB5h6rTH3txjbigD+MPx1+xd8efBN3NHdeGLxrWL/luVABAr5p1rw7q/hy7a11a2aCRTghvWv7tNV0HRNbUwalp8N2h4YSDIxXi3i79lT4HeLoGF74S02Odwcy+US2T360AfxOKoJ3s2M9KCGY4T5q/qd8af8Esfhb4seb7Hef2WshO3yYR8v0zXyr4s/4I22OneZNoHie+u2OSqeUoH0+7QB+BYCkEOcGmfdPy81+tfiH/AIJTfF6z3/2RZ3d2AflO3Gf/AB2vINZ/4Jm/tSWWW03wndXIH1H/ALLQB+emWY88CkZT0U5FfZV/+wJ+1NpxxfeDriMDr1/+Jrnp/wBjH9oO2bY3hqcEfX/CgD5UwRThksM8e9fS7/sg/H6M8+Gp/wBf8KYv7I3x6zj/AIRqbn6/4UAfN5VAdwfJphO45619RQ/sbftBXLBYPC87E/X/AArprH9gb9qS+wbTwdcPn0z/APE0AfGpJHbFKMHlq/QDR/8Agm3+1Xetm78G3Mag9een/fNe1+HP+CU3xf1Qp/btld6eD1wucfmtAH5LYDnANNGCeTiv3y8Mf8Ea7W7CS614mvrVhglfKU/+y19Y+Af+CWXwr8JyRyald/2rsxkTwjn8sUAfy6aRoeq63OLXS7driQ8AL1Oa+gPB37I/x58azxpo3he8ljfG50AO1T3r+srwx+yZ8DPC6obXwnprSpj955RB4/Gvb9G8I+F9ABTRdNgtOMYiXHH50Afzj/Cf/gkv4v8AEywXXi/VLjRs4LxSRA/h901+oHwk/wCCcPwd+HFura5YWniGZAPnljIJI+gWv0Y8tTwBtxTzuRcKN1AHJeFPAnhPwfZx2vhvS4dOiQACOIEAAfWuxCqM4HWgEkAng0tADQqr0GM0BFByBinUUANKKTkjNOAx0oooAKKKKACiiigAooooAKKKKACiiigAooooAKKKKACiiigAooooAKKKKACiiigAooooAKKKKACiiigAooooAKKKKACiiigAooooAKKKKACiiigAooooAKKKKACiiigAooooAKKKKACiiigAooooAKKKKAP/1P38ooooAKKKKACiiigAooooAKKKKACiiigAooooAKKKKACiiigAooooAKKKKACiiigAooooAKKKKACiiigAooooAKKKKACiiigAooooAKKKKACiiigAooooAKKKKACiiigAooooAKKKKACiiigAooooAKKKKACiiigAooooAKKKKACiiigBCARg81GEDffUcdKlooAjYHoBxSKpzuPB9KlooAryB1IeNcsTg/SpQgDb+5p9FABRRRQAUUUUAFQvDv6MRU1FAECRFP4iae6bwOcYqSigCABw33Rj1qYrkYpaKAKzwFxjcR9KfHEEGCd31qaigCIxZcNngdqVt2MAVJRQBlz6bZ3P+vto5P8AeGaz28LeH35fTbcn/cFdJRQByp8HeGn4bS7b/vgUo8E+FR/zDLb/AL4FdTRQBza+EPDaHMenwKfZBWhBo+n2/wDqYETHoK1KKAIvJUcJ8o9qds96fRQBGdw+6KTy++TUtFAERMnYUbS3XipaKAGBdo45qICQvk8CrFFABRRRQAUUUUAFFFFABRRRQAUUUUAFFFFABRRRQAUUUUAFFFFABRRRQAUUUUAFFFFABRRRQAUUUUAFFFFABRRRQAUUUUAFFFFABRRRQAUUUUAFFFFABRRRQAUUUUAFFFFABRRRQAUUUUAFFFFABRRRQAUUUUAFFFFABRRRQB//1f38ooooAKKKKACiiigAooooAKKKKACiiigAooooAKKKKACiiigAooooAKKKKACiiigAooooAKKKKACiiigAooooAKKKKACiiigAooooAKKKKACiiigAooooAKKKKACiiigAooooAKKKKACiiigAooooAKKKKACiiigAooooAKKKKACiiigAooooAKKKKACiiigAooooAKKKKACiiigAooooAKKKKACiiigAooooAKKKKACiiigAooooAKKKKACiiigAooooAKKKKACiiigAooooAKKKKACiiigAooooAKKKKACiiigAooooAKKKKACiiigAooooAKKKKACiiigAooooAKKKKACiiigAooooAKKKKACiiigAooooAKKKKACiiigAooooAKKKKACiiigAooooAKKKKACiiigAooooAKKKKACiiigD/9b9/KKKKACiiigAooooAKKKKACiiigAooooAKKKKACiiigAooooAKKKKACiiigAooooAKKKKACiiigAooooAKKKKACiiigAooooAKKKKACiiigAooooAKKKKACiiigAooooAKKKKACiiigAooooAKKKKACiiigAooooAKKKKACiiigAooooAKKKKACiiigAooooAKKKKACiiigAooooAKKKKACiiigAooooAKKKKACiiigAooooAKKKKACiiigAooooAKKKKACiiigAooooAKKKKACiiigAooooAKKKKACiiigAooooAKKKKACiiigAooooAKKKKACiiigAooooAKKKKACiiigAooooAKKKKACiiigAooooAKKKKACiiigAooooAKKKKACiiigAooooAKKKKACiiigAooooAKKKKACiiigAooooA//X/fyiiigAooooAKKKKACiiigAooooAKKKKACiiigAooooAKKKKACiiigAooooAKKKKACiiigAooooAKKKKACiiigAooooAKKKKACiiigAooooAKKKKACiiigAooooAKKKKACiiigAooooAKKKKACiiigAooooAKKKKACiiigAooooAKKKKACiiigAooooAKKKKACiiigAooooAKKKKACiiigAooooAKKKKACiiigAooooAKKKKACiiigAooooAKKKKACiiigAooooAKKKKACiiigAooooAKKKKACiiigAooooAKKKKACiiigAooooAKKKKACiiigAooooAKKKKACiiigAooooAKKKKACiiigAooooAKKKKACiiigAooooAKKKKACiiigAooooAKKKKACiiigAooooAKKKKACiiigAooooAKKKKAP/0P38ooooAKKKKACiiigAooooAKKKKACiiigAooooAKKKKACiiigAooooAKKKKACiiigAooooAKKKKACiiigAooooAKKKKACiiigAooooAKKKKACiiigAooooAKKKKAGlsZJ7VE02Cv8AtVHujWVvmJJ7dqdcQiaErnaccEdqAHtI46D6UrSrGm6TioE3xLGg+ZVGGJ60iyYDmcfLnj6UASJLIzD5flPepgzYJI6VWKidD8xUD0pIVxzGxbHHNAEsUrsm51wc4qRnIGV5qqzuZjEQBHjqPWpEi8r7p3fWgAeaRQmFzk4PtU3mKxKryRUQLGUjHyilSPY7yKfvUATZbbnHNN8xQQrcMe1VVE3mEn8Oae6bpUlJ+51oAdHLI27euMHA96kMoVgD3ppyZBt+6etRlWXOz5ue9AErtKGAVcj1pxZgcYqMoM7ixzjpR5iFcHrQBNk+lJvByF5Iqsk2Qy+gzTUCuglLEfSgCSSaRCny8H73tSpdQybwhyU603KRo0zHK4zUKJBIplU7Q3PHGaALPn8gj7vc0rTbV3H8KqibcNlsobbwc1Z8sOVkY8gdO1AD97lhgfKR1p4J6GqJfyczTnHYAc0pmXAWQkEnIx6UAWXmWMgPxninZbJ447VCyAyZbpjj61CWczurcIoyCKALm5uOPrQ8irx3PSqLRGQCWFyc9qtqG8oFgN4oAfubAOOtMM25W8r5mXjFV5xsTzJCVA+9jtUGSCsinB/hHqPegDRVzt3SDFCSiRS0fODiqwwpCZJducHpUihs7MBQfSgCZWO3MgxQXY4KDIpmCPl6iosKF+VjntQBOJMuU9KVXJdlx0qluuM7pVAHcipi+9P3POepoAt0UyMEIAetPoAZJIsa73OAKbvJwVGVxnNLKMoRjPsagSN0Gc5z2oAfHdRSsVjOSKeZVyUXlgM4qNdsXzOoX6VBcbHwd23ngjrmgCxG8xQF0w2eR7VJvwTnoKgUlP3jnnuKqyuJ3ViSqZ+XHf60AaSur9DTFnjZygPI61TRUeZtrkOvVe1WXUBSwA3UAK84U5/hHU+lOEobBXlfWq8kiwoGcDYfvUR+WwMkJJ9jxQBYMuG/2fWl3sTwOKgikLoxlG3BxxTJkjLCUuwHAwKALJmVE3ScUolDqHj5BpmxC/rx0NQsyAmIZBPGB2oAtM/UJyRUQnKqTKNtQxxIivErlmA71HtECgMSzv0B6UAWTM7YMS7getSRzJJwDyODUKkoADxu647U9kzhVGAep70AOaYKefu9zUgbP0qoI4ogY2fOTnJNNmaFgAZMY/u80AXiW7CmtKinDGqqNJ92PlPU9aAksfyqAw9T1oAthwwyvNR+eqnD8Go5XSNV8w7c+lDDzEXZyD1J60AWC4AzSLJvBx2qBVYEL1Ve9PclTlAMDrQA8yfMBTPPVn2JyafGgA3ZyTzTVGG5AFAEilicEU+qwiKybtxIqzQAUUUUAFFFFABRRRQAUUUUAFFFFABRRRQAUUUUAFFFFABRRRQAUUUUAFFFFABRRRQAUUUUAFFFFABRRRQAUUUUAFFFFABRRRQAUUUUAFFFFABRRRQAUUUUAFFFFABRRRQB/9H9/KKKKACiiigAooooAKKKKACiiigAooooAKKKKACiiigAooooAKKKKACiiigAooooAKKKKACiiigAooooAKKKKACiiigAooooAKKKKACiiigAooooAKKKKACiiigDy34veK77wD8PfEHjOwRHl0uze4UOMglSO341+IGlf8FYvijrGvQ6Dp+mWs0skmwKtvuOfwQ1+zv7SCJc/BHxnCfvf2ZJj35FfkH/AME5/wBljRNX8Saj8Q/FdqJHtWjuLAMAUJ+UHKngjk0AfY/hP4yfteeNbCDU9I0XSltp1DETDYwB9ild7L4g/bTeaIRaRofllfm3Ov8A8RX2paWWn2qultbpCF6qiBR+AAFKN7sbe5HD8oVHQe5oA+IbvxX+2TZQy393pmhRWtujGRjIo+6M919q/PTxj/wVW+I/g/WJ/D15aae17BM0JEcYZSVbb1C+tfZP/BQ39pTT/hD8NL3wvo9yBrV4qvFtYH5CCGzjnPIr+fj9mr4R6v8AtD/GGC3u45Jopbg3kknzbcrJvI3dPwoA/p5/ZE+NfjT47fDuPxj4mtI7YyTyIAqeWcL0OCBX1y6vtAi6981wnw58Fab8P/B+n+H9MhWGOGKIEIAPmCgE8e9d/Nuwuz15oAAwjXa3JpjSBV3ucKvJJpWcbvLx9a8r+NniX/hEPhlr2rWzhbq3s2e3XPzMwI4A6n8KAPkJ/wBtHTI/2hl+ERlT5r/7JnA9M9a/RGPy5oxLG2VfkHPWv4ttT+Lev6T+0PN8RtS82OZNQ+0NuVlOcY6Gv65PgJ42tfH/AMLvDXiGGUSPcWKSSYOSCSeooA9pR1b5R1HFV5FZ5wo4XHP1qxGnl5J7mn7RnNAHz78XtY+NGjRPP8MrOyuhGm4/aiOwy38Jr8ofiT/wU2+Lnwr8Qy+FfFemWUOoQ/M6rBldpPY7K/dpFSRWRwDnI5Ga/D/9qn9nLRfjN+0r4i0e4hCNbaF9pg8rCZlVHK5xjPIoA9j/AGRv+Cg8Hx68ZXfhzxE1vausCsgVRHuZiRgZAz0r9VrcRBP3RJ471/E0bfxF+zn8VIY7pprXUtKukmbYWVWRWO0HHXp0r+rv9kb9oSy+Pvwy03XbiaP+1Wi33Ma4UqMDHy9RQB9VukkjJkDaDyK+V/jb4l/aI8OXMd98ONP06406HcZfPI345xgbTX1kFVeQc1C9tBKjI4Dh+oYZH5GgD8O4P+Cj3xYk8ef8IBJpEC60kpgEYtiEZxjODs561+k3wM8Q/HTxBB/aPxFsrK2sbkiRPIPzhG6cbRivku++G2hWX7ZHhTVHsoAzzyuR5a4b5l6jHNfqdFCE/dqqpGOAEGAB9BQB+WH7bX7dPij9mvx9Z+FdBtreeC4tFnJnj3ncdvT5T61xnwb/AG0v2kfjVALnwtodiYzuAaeExjK+5SvOP+CgfwwT4n/tP+HPDHll1exhlbHXCNHnmv11+DXwu8LfDfwXp2jaLZQoBbxM7eWu7eUGecZ60AfLmo+Ov2v7Hw9P4h1PStHSG1R5m2MM7UGTxsr4RuP+CqHj+LxInhOW0sRqDSiEARDaWJwOdvtX7Z/E1EHw98SKFAA0y6wMf9MzX8Yeplv+F52u3r/aS/8AobUAf0z+FviZ+174r0NPEWj6VozW8qb13MBx9NteM/FP9rj9p34O2Uuq+KdEsPJVSzNBEZAAPomK+/f2cIwfhFoe/G/yvn/IV2XxD+HmhfEPwtqXhbW7SB7XUYjEX2LvUE54YjigD8w/2Wf+Cgfjj49eOoPC91aWqxTTiJ8R7WGQP9ketZv7Rn7cvxl+AHjZtN8TaZapayM7WLxxb1MKnq52YBrxj9lT4Oy/C39qnXtJsECW0GsbLLdz8gRP61+jv7av7PGnfGz4U6iILVDr0EOy3cKBjgk89aAPzU0j/grR421e5XTdKsrWW+ncLGpgz1OP7vqa/Uf4CePP2gPGM1tf/EXT7C2srqETRm34bY43Ln5Rzg1/J34Wu5/hD8WwNTt8S6bfG3ZZEypAkAJwRz0r+yb4KeNdF8bfDvRta0IxtGtlbRyFNpxIIxkcdOaAPWYwvmnBO/b07V4v8Z9Y+K+keH4JfhTaWl1qQmJnW74QRcdODz1r2hWA/euPmPHFTMu9jkKVI7gUAfiL8Uv+Ch3xx+C+tzaN4+0myhlB2IY4dys3oDsANfR37KH7U3xn/aAu5Ly90u1t9IAV1kEXlsUbGcfIM9a8w/bk+Hel/HD4jeF/Aeh20ZvNL1VJdSKIoPkuCOSBnt3r9K/hP8MtC+FHgyx8LaLbxRraR7A6qu4/VhyaAPVIgwjAfr3qSmRligLdafQBHK4RCxryT4n/ABc8LfCfw3ceIvGVyIIYvuqhBc5Bx8uQa9bmYJEzHsCfyr+aL/gpn8add8QfF/SfAtrcsmmSeUkqRsVyRIi9uO5oA/Qjwn+1x8cfjxr01p8DdLs7jS4ndDLfx+Uf3ZIPJTHbivd5J/2u0tRcxafpDXQ6qZBt/wDQa9B/Zb+Hfh/4efCvSItJgi/0u1t7h5FCl980YY/MOepr6SiiiRiy5yR/F0oA+CbH9rO5+HOotoXx9t2sdWXAY2UJa35+7h8BfrW7+z7+1VL8cPjX4x8GaYsL+HtEt45rGZVAkYsxB3EDnj3ruf2pfg7ofxW+GmrWV1bqmoWVtNPBNGoRzJt4y4wT09a/NT/glT4P1vwb8RvGeja+4ae3s4wctuf7/ck5oA/bbXI9UtdNvLrQFSS/ZMxLJ90v79a/N/40/tGftNfA2xvfEfifSdNOloDIrQr5jBB6gJxX6cyMS0fua+Zf2x9Ntb79n3xYZoY5GWzO0soJHPbIoA/IiP8A4K4eJ7m7QC0t2kzgRiDOfw21+hvwV+LH7UfxRlsfEj6VpcOgTIGZiAkmH5HylB2zX8x3w10+Of41W9m8asn2kjaQCO3bpX9m/wAJNPt7H4daDHBEkQNjDkIoUdPagDtbY3BMP2kASGMGQDpuxzivOvixP8S7Tw4ZPhdb2tzqYcHZdkBNnfqDXqEYwpPvTsZkwehFAH4qfF39vr49/AnVJNH+ImlWEFyuArQxbozu+782zFcF4H/4Kj/E/wAfaxbeG9C02zm1S5kWNQIMoC3AyQnAruf+CxGiWlv8KNK1KKCNZm1NFMoUByPk4LYzXwZ/wSs0ix1n4z6r9uiSXyLWF03qGwdzcjOaAP6CvgprHx51u5vG+K1lYWsTRjyjaEE5zznCivpERbE8l+VHCnvUkFvFEC0QxmmTXEVtE89ywSOMZLMcAD6mgDLudT0zRbae8vZ1iii5dpWCgfixr8+fiX/wUA8J23iCTwH8MEm1HxDuaJA0Bkg3rwcuoYY5FfCv/BQ/9tvVNR1Sb4S/DadlX95a6gyA7y4yRsZeehHQ19Vf8E+/2V7Xwp4Wg+I3jCEXerakI7u2af8Ae4Vxznfk5yKAPafCl/8AtaeL7IXPiSw0y2sbnEkbQvtkCnpn5QRWX41vP2v/AAVZvqXgzTtKvYohuYXL7mwBlsAqe1foKkEcEPl7Qq+ijAH4UsqRt8rqrIV6MAQfwoA/KT4cf8FGrPTvEK+Dfjlbtper79hFvblY8k7V+YqvGa/TXw54v0TxjpcOseHbqO4hmAK7XVjjAPYn1r8yP+Cgv7JWmfEXwvcfEDw5bi3121G9/s+Ih5UA3ZwmOcCvzS/Yc/bG8S/CPxfb/D7xNcSvYSXAtVM+52DM5Ukl84FAH9RLYZU8/wC9ntXmPxLvviXY6XNJ4BtrWa5VT5azkAZ7Z4Nd1putWOraZBqOnSLNHcKNjqwZckZ6jitOBpHHlzYLj73pQB+Lnxl/b2+O/wAB722074g6XYwG5JXdFFuHy5zg7PauN+H3/BTr4jfEjxNZ+FfCFja3F1etsAeHjP12Guo/4LCaNayeG/Dl3FBGrRxSksqAE/f74r4R/wCCWmkQXvxo065miSURXa/fUN/d9aAP2wtvFn7aU9mmoJpGifZpFDjLDdg+2yvLPFH7a3iv4S3axfFjTnhUEb3srdpFHPqFxX6htEiJtVRgcBQOMfSvHvir8L/CfxJ8H6jomp6fA7PE7CQxJvDKpxhiM9aAOQ+DP7Ufwv8AjfZRv4W1ALKeCk5WJsr14Jz1r6YUgqCDnI61/Gf4tn8a/sx/GuaXSb2aCOO/dxF5r7fKM2fu5x92v6jv2UfjbH8cfhPp3i9WDS8W78YOY1APH1oA+o8iioG2kkntzSQyGQ7u1AFiiiigAooooAKKKKACiiigAooooAKKKKACiiigAooooAKKKKACiiigAooooAKKKKACiiigAooooAKKKKACiiigAooooAKKKKACiiigAooooAKKKKACiiigAooooA//0v38ooooAKKKKACiiigAooooAKKKKACiiigAooooAKKKKACiiigAooooAKKKKACiiigAooooAKKKKACiiigAooooAKKKKACiiigAooooAKKKKACiiigAooooAKKKKAPI/jbpVx4g+F3ifSLFCbqawdIuM5Ykdu9ebfsveAbjwR8LdFt9Ri8vUHtgJcDb8wPcV9PTxiRGHGccZqBIzGiEsox1I6GgB5lCD51JYeneuL+IHjrSPh14TvfFniCQJa2qEkkhSMg45P0rs+cklgS33K/B7/gqV+1VEtgfhF4Xu/OS9hZbzyWyI5EJGGx0PNAH5YftRfF/Xfjz8W7oiV7iJLmS3tlXJHllwBxnmv3x/wCCc/7Mdr8Jfh5D4l8QW4/te6bzYnxjEUwLAYPPQivyM/4J2fsx3vxf+I9t4y1+AzaHYyMkysvWTIKndyP4TX9UOmadb6fp9rpsEeyC1ijhRRxgRgKP0FAGln92M888U/O1yx+7il8tgxIPy44FRJuMeG6jmgCTKZ34OW4r4f8A2jNan8TfEDwf4K0wtJbf2gYtTRef3RVuuOnOOtfZer6pb6RpF1q90wSK1jMjZ4wBXxt8DNMk8b/Fjxb4+1H/AEnSropLpj/wg5GSD34NAH4i/wDBTP4B23wo8Z2OsaJalLTWJZHJUZCgbupH0r71/wCCUfxw/wCEn8J6j4M1OfM1jJFb2qMcHGAeAevWvpP/AIKM/B+2+I3wV1TxGsYe40Czd4RjLEknp+dfgP8AsKfFC8+En7QehpqDNDpxuwbuMnbnGOtAH9gxZvMRD0I5qQE79prH0HVbfW9Ls9Zg5ivIlljOf4WraIJbIoAawEfzLX58zyRSftpapFMhZW0aIYx6hq/QkfNwa/PyXYv7aupdj/Y8X8moA+LP+Cm/7I8Wr6ePip4RtCdSeTdebBuHkxAH7oxjqea/PT9hD9p7Ufgp8TIdF1CZ49P1eSO0dWzhFzyTngdK/q08VeGLLxZ4a1DQrtVZdQtngfcMjDjFfySfto/s66j8A/ilfSabA0WmGfFpKqkIWGTwaAP65PDHiDTfEukxa5pUyT2lwu6NkYNkfUVsyo7bZYTjuRX4v/8ABML9qm08XeGj8M/Ed2ILrSII4YBO+DOxK8IO5r9oTIyFMDAbtQB8E+Ihby/tSeD2l4dWk74/iFffu8KOfwr8/fFEcMv7VXg0hT96TP13Cv0F2DAHagD4O8e/DXV/EX7Wmi+LTDu0+30lomYrkbvk79O1fdFnAlvBHEnAVQPyFLNbBmEsQAkHG4jnFTjKgbuTQBwnxO/5J94l/wCwZdf+i2r+MLUTj462hHbUl/8AQ2r+z/4nL/xbzxI3rpd1/wCizX8YGpgj45WpH/QSX/0NqAP6+/2c4wPhRosr5JmiwfyFe2KpmMlswIjXj8K8c/ZuG74Q6Fu5Ii/oK9xkBYgDgd6APgyL4T65pnx9svE9jGFs3vDLI23tx1Nfd0iJLEYnAbcCDnkc1IsQ3dBge3NSCJFBAHXrQB/Md/wU6/ZqfwL45Tx94btSulyxtLdMgyPPkII5HA6Gvf8A/glB+0hJcA/B/Xbr5pHluUaQ4AVc4GT9a/WT9pj4K2Hxo+F2q+D5lQecvnAuM8xqxH86/kx8N6r4q/Zw+OD3ESyWE1pqLwDcCu6ATbSRz0K0Af2rgL/rcjDDg9jmuY8W64nhnwzf61NIqfZIJJVBOCxQZwPevPvgX8TtJ+LXw50zxLp7eavlRRvht37xEG79a8H/AGlvF+q+J9d0v4YeEpSLqK8ifUUX5i1pIQGGBjHAPNAFX9nTw+PHvjLV/jpexnZr8QiRZBypjYnOD06191pHFGg2HPpzXF+CfCWk+CfDFl4d0KD7PaRD7nXBYDPYV2DxhNix9FPSgC2OlLSDkZpaAK93zbSgdSjAflX8in7e9jqnhz4+pc62G3b2ni4I+QSKR1r+vJuhr8gv+CkH7HUnxbsD8R/D0AfVbCAQqqrucpjLcD/doA9S/wCCf/7Sfhz4mfDy18N3t2i6pagRrG7gNshXaOOvav0e3xyt5R5wMhh0r+ITwN8QviR+z148/tDQJJtM1C0donV1OSithuMjrX9AH7KH/BSrwt49t7bwv8QS9pqAABvbiQJGx6ADrzkUAfrhqNlFqtlNYTrxIhUntzXxn8C/gPqnw6/aC8deMXKf2ZrEEcduq9QVYk98fpX2HoniHRvEVimp6NeRXVtMPkeNtwP41tKu0DbgE0ASFASPavnT9rAiT4BeLl/6dDX0Xk5+lfOf7VA2/AjxaTzutDQB/JN8Lcn4/wBug/5+2H8q/sr+Gz7fAugR+tjF/Kv42/hUyL+0NAzdBeN/7LX9knw42v4H0GVDkCxi/lQB3QXgj3prMEfJ9KPN5wBTHZS+1uKAPxt/4LIOf+FI6O2ODqq/+yV8C/8ABJNR/wALk1on/nzi/wDQmr9Av+CyHl/8KL0dQOf7WXn/AL4r4C/4JIL/AMXi1ssuQLKLH/fTUAf1D+aPnReqivlX9sD4nD4bfBHxDqkMoivXsXaDnncCOlfVaCM5kHU9a/Ez/gsN411Dw74Z8LaNZykQ6qJo5FHcAOefyoA/I39mbQJvjv8AtN6ONaJmj1a/3XJc8ZIA79K/r98J6FD4T8NWGgxBVhsYVhj29Aq1/MT/AMEtvDtpqfxfttTkiLNZ3ibW9Mha/qXlgaXamcRY5XvQA9MlCZ2BzyPpQ6F5B/cAoS2yuyY5H8PsKsFW4CcAUAc3renWur6Rf2U8e83VtNblTzw6len41/H/APto+A5vg3+0RqWkaTGYUt/LukKjgM7Meor+yIwrv80D5sYNfzP/APBWjw+tj8VLjxGiYa48mJmx1A//AF0AfqT/AME4vizB8QvgLoumalMZtUsUaSdie2FA681+iSNGxMqkfN096/n+/wCCPGuNqOu6/oayYig09DsJ6ZNf0AR2kEaqijCx/doA/HX/AIK5sP8AhCNH3dfIlx+bV8G/8Eojj4pxZ6/bEx+S193f8Fd083wXozKw+WCXj8Wr4N/4JTbj8WrXAIAvEz+S0Af1AMJD847VE214pI1+6ysD9SMVdchOScCse9kjt7O5nB2IkbyHP+yCaAP5Wv8Agqd4eXQP2iFsoSoWXT45vl6ZYKf61+kH/BIvXr9/hougSFjbpJcSAnpnnvX5T/8ABQLxunxT/aBM1pJ50kSLYqynPKMEA/MV+4n/AATK+FN98P8A4H2tzrMJjvZZpW+YbTsfkcfQ0Afpht5JbvTkVVG1aq+c2fMPRuAKtqCBzyaAHUUUUAFFFFABRRRQAUUUUAFFFFABRRRQAUUUUAFFFFABRRRQAUUUUAFFFFABRRRQAUUUUAFFFFABRRRQAUUUUAFFFFABRRRQAUUUUAFFFFABRRRQAUUUUAFFFFAH/9P9/KKKKACiiigAooooAKKKKACiiigAooooAKKKKACiiigAooooAKKKKACiiigAooooAKKKKACiiigAooooAKKKKACiiigAooooAKKKKACiiigAooooAKKKKACiiigCNlGG3/dPWqaiJyY5MbD92rOcuyP0NZGp6ha6VZT6hfARW9ou4u3TFAHzd+1J8brD4HfDHV/Esk4i1C2gMllHuw74z92v5Mgnij9oT4wXP2ISS3Ot3jTAAbj8xGa+y/8Ago/+09dfFXx0/hHSLkiw0aSW1kVGyrg5P/s1fWP/AASx/ZZdoZfij4wsvs89tOj2AlXmWJxnKn04oA/VX9lb4IaR8EPhZYaNo9usE99FDc3WwYJl2ndnpzk19SpITgdTjmq6RCONUg+VUG0KKJ7mGygM8hAA60AWTIQcEcUrfdylZ9jqFvqSFoyDyR+VXc+WGyeBzmgD5n/aX8cWvhrwcvhu4bbN4r36dA2cYdh1962/2d/CJ+HXwp0XwrqDiS4tIdksmMZ6dq+SvjV4X1n9ov4yf8IBpGrPp3/CHXCX6SqN2C2R0wcdK9ab9nb4xxviP4l3RSTggIMAf98UAfUfi/QtK8W+HL7w1qTpLZX8flurfdC+9fxx/tKeGdR+Fnxy8Qx6UDbwQ6hJ9lZRgbAB0r+ng/s3/GMI2PiddFT0XZ/9hX5Bf8FH/wBlrX/A9tp/jOfVH1QJbvLdzFMfNk8k4HpQB+wH7Dfxfj+LHwe05vN8xtHggtZjnPzYP+FfbXHGOmK/m1/4JO/HM6F4qb4UXU+E1m584ZPZOOn/AAKv6SEKlVKnII4NACr1/Gvz/eNJP219TD9tGiI/Jq/QBev41+fVxx+2tqPOP+JPD/JqAPv6PlQ/TgDFfEn7av7POmfHP4b6gDbK19o8EtxasRktIeBt96+2ASoDMeGAGKhnt2uVa1cfuv4vRh6UAfxMeEdd8U/s6/Fu1vbhZbe90a7DyL91sqD71/XN+zP8a9M+Nvw30rxDDcLNffZle6G7LI7H+L3r8gf+Cnv7JL2V4nxT8JWXmRXEklxqTRLxCgDYLH64r5g/4J4/tUXvwk+IEXgzWblm0jWblEMjthIkUD39qAP2s8RAR/tVeDwj7gzSEgf7wr9Bq/Oi8v8ATNa/aW8B6zpdws8F2ryKV6EFhX6L0AFNbtTqa3agDhvid/yTrxJ/2DLr/wBFmv4wdU/5Lhaf9hJf/Q2r+z74nf8AJOvEn/YMuv8A0Wa/jB1T/kuFp/2El/8AQ2oA/sD/AGbv+SRaH/1y/oK9yP3q8N/Zu/5JFof/AFy/oK9yP3qAHjqaXPam+tMzzQAk0YlRo2GQwIP0Nfzxf8FVP2chpeoj4p6JabbdEiid1Xje2M8/Wv6Iu1eHftAfDnRPiX8L9Y0HXIEubeK3muQrjIDxRswP4EUAfht/wTP/AGqf+ERsNQ+G/iO9+z21taXd1AZWwrTBHKqPckACv1L/AGbfDt1478UX3x31hCJ9TRrNYn++FhLbTn0O71r+VTTZZ9B+Lq2elzGCEa79lJXp5YudhH5V/ZV8AbK00z4Z6Xb2ADReUr5XoWZFzQB7QpbG9zgdgacpOGkHOegqAM8oDONo96WRyGjEX3SeaALaEsoJGKdRRQA187eDis+6QXMbWkgykilWPbB4Iq5cSxQxNLMcIoJJPtXnfhP4k+FvGFzc2Gk3kU81tK0TohyQyEg0Afnz+1b/AME6vBHxYtbrXvBkVvo+tFTIbgqWZyBuK8KfvGv52vi38BPib8F9ce01zTrmOK2m3R3DJtUkNwRz+Nf2yB/tcJx8m1v5V4z8W/gZ4G+MejXGn+KNLhuJnjYRzSjJVsYB/A0AfzY/sq/8FA/H3wk1iz8O+LLm41DQiyRpBu2rCScFjk+mK/pm+EPxZ8MfF3wvaeKNBu4pkuV3eWjbivTr+dfy/ftpfsV+IP2f9WbxHZo9zo9zN5cTKm1AQcnHA6AivS/+Ca/7RniDwd8RYvBN9cyTabqDRW1tbM2FiJPJH5UAf1I92r50/ar/AOSD+Kv+vQ/zr6L7tXzp+1X/AMkH8Vf9eh/nQB/If4OtL6/+NZtNLuPst1Jdt5c393pX9NfgT4MftMz+ENHuNO+KItrZrSMrF5b8AjgdK/mu+FnH7QkLEZAvGz/47X9k/wAOdr+AND8s7f8AQof5UAfK7fBn9qJvufFMR+5jf/CiH4N/tOLGYZ/igJpDnEnltx6du1fb5KlQv3qauI22Ae9AH8+X/BTH4ffF7wn8HtLuviH41XxJA2pgLAFZSp+TB5Arw3/gkpMrfGXXQvyp9hiwv/Amr7r/AOCx4cfBTSGVMf8AE1Xn/vivgf8A4JJn/i8mtcf8uUXP/AmoA/qHVCHcMcK3SvwC/wCC0KzJ/wAILC5yplmC/lJX9AE2HZdrfc5Ir8V/+CwHgifxJ4V8N67ApK6UJpWOPXeP60AfJf8AwSQMKeONREuC4vI9v/fKV/S+ZD5iD1r+Un/gmL4wi0T45aToTuAdTvEyM9cBR/Sv6uC0fD5oAI8sST2NTU0Fe3enUAFfzpf8FebqJ9djtAMOJ4yT9cV/RbX8w/8AwVo8WWl18YrvwqpHn2ywykZ5wc/4UAdn/wAEX4JU+KHjInlP7Mj2ntnca/o9VgIh5nfrX4cf8Ehvh5c6Ppd543ZCE1S0Ee7HXac9fxr9yJAjfIeg6igD8Zf+Cuox4M0RoDhfIlzj6vX58f8ABM3xV4d8I/Ey1utd1WCzRrpG/ekjgBfav0L/AOCua/8AFE6MEGAsEvT6tX5x/wDBNDwP4S8cfE62s/EmnxXiC6RcSc8YWgD+ke7/AGifgfHH5N14y0yNiOQztn/0Gvin9pT9smaHT5fB/wAHNPm8SXl5CQt9pzBlQMNpXDFT3/SvrW4/ZN/Z7vJN9z4OsJW7sVP+NdL4a+APwf8ABk4uPDnhy0siDndGCOaAPw2/ZV/YE8VfEfxi/wASvi9A1oj3klytneR4csZDIrZGR6V/QhoOjWnh7S7bRdLi8iC3jRBjphQB/StVoYoERYIsqoAAHYCpnllGFCHFAEm2N8KP4eaepYuR2qIoACF+8adAWA2PyR3oAsUUUUAFFFFABRRRQAUUUUAFFFFABRRRQAUUUUAFFFFABRRRQAUUUUAFFFFABRRRQAUUUUAFFFFABRRRQAUUUUAFFFFABRRRQAUUUUAFFFFABRRRQAUUUUAFFFFAH//U/fyiiigAooooAKKKKACiiigAooooAKKKKACiiigAooooAKKKKACiiigAooooAKKKKACiiigAooooAKKKKACiiigAooooAKKKKACiiigAooooAKKKKACiiigAooooArNIjybQclOo9K/Mb/go5+09Z/Cf4ey+DtNuVS/8QQSQLIGw8TDJyOevy+lff/xK8baf8PPCGreLNQKpHp9u07Fu+3FfyAftQ/F7W/j38XNQ1SKVrjT5rpmsULZRVI/hHagCH9mT4N65+0L8ZbKzuxJdWVzdgX92RuwWA5Ix6V/X98OfA+n/AA+8H6V4Y0uJVjsrZITIBgnb3r89v+Ccv7OejfCP4dp4u1RY5L7xDFFdx+bjMZHy4U/8Br9QGvYsL5UkZGORvFAFhFDN5iNnHBHvXhX7QXjKXwT8PbvWANjs3kqM4wXBANev3ur2VjbvcXc8UUSAszBx259a/Dr/AIKN/tm6JqNrH8KvBlwk+Z4JZJ1OHDIy7l4J4oA/Sr9j7VtZ1T4XSX+s3Ul/dSahcEPKcsIyxIHGOAK96+JXiEeHfA2r6sTslitJmj56uq5FfJX7AGry3X7PltqExDP9okZix7Dk18u/8FC/2utF8OWmk+CvD16rXkWoIb6NDj/R2Kg5IJyODQB9h/sj6Z/wknhf/hbd5EF1XW1aOY9WYIcjJ79a+yPmKq8hMZP8NfLP7IHjbw54r+CWhahoEkKwSBjsUhccLnjNfUrOm5yjb37DtmgCUtLj5Vzjp718p/tlfCyP4r/AjxF4ZSHdf3dvsgkAy6delfViySeRnb+8x096y3tbSKGU6nKrJNyUkIwPpmgD+Kz4Y+Jb/wCBPxwS/jcxzaLdtbM+dpzuXOfyr+yP4WeJ7Xxf4K0PW7a4803FjA8n+8yAmv5C/wBrzR9G0f4z+IJPD0nnJLqE0spAxscMOBjNfs//AMEvP2l7LxL4Sb4d+ILpf7WWXFujtk+TGCOCSPagD9jrmSUyCMfJH13j19K+CpCD+2dqLnlxo8WR7ANzX3k81na28lzcTr5aKZCWIAwBn1r8ePFHx78KaV+25c3y3qm2uLG3sweMbyWXHX3oA/ZCIrLGJ1O8Y4HoRTjc4RGf5dxxis3S9Rt9Rto3tHjMLxqylWBPI9K0nhRUXdyE55oA4L4meBNL+JHhi98MaoA1reRGKUMMjaea/kV/a0+CWufs/fFu9FrE9nYz3TnTJFG0NGo6rx6g1/ZI6LOyOp2r2A/ir4C/b2/ZksPjX8NbzVNKtVbXdLtn+yIq8u7E9+3WgD84v+CfPxW1n4nfFPwpBqZZzomLYOxyTyDX9FVfzIf8Ez/DWpeFf2gF0HUFaO5sb/yrhD2cbeK/pvoAKgly3yqeRzU9U59ofduwR1+lAHE/EeSST4deIvMTb/xLboH6eWa/jK1lAnx4t0iO5V1FDn/gbV/X98f/AIg+GvB3ws1+51a8SIXFhcwx4IJLlCAOvvX8a82u2jfEKLxDHIXSC9812P8AdDE0Af2S/s5sf+FO6EV4zFyfTgV7YkoZdgbLDofWvkr9jT4keGPGnwR0O80+9RmNvudCQNo496+r3jjnMVxbtwvI2nhqANKM5XB6jrT9opkZYjLDBNSUAHauQ8aebF4M10ou8nTrvj28p6689K8g+MfjDR/CXw+1q8v7pEV7O4iHzDOXjYDvQB/GBPtf4zsJB5f/ABUh+X/t7r+zL4EJ5fw00lkPHkpx/wAAWv4wLy8jj+KT6wvzQDXml3H0+0lq/sN/ZZ8Y6V4t+D+kajY3CNwExuA5VV96APpgbjGSV59KrkkoCFw6/wANI/7zYWcowPQd6d++M3KAKD19aALUTMyBnG0nqKfRRQBn6qIzp1x5vC+W2fyNfj9+zB8RFj/aV1LwLAQftN1ezdeflf8A+vX7CaiUFhceZyPLf+Rr+UPxn8SvEfwk/amuPGulLIqwXs8bBM7djyjcePYUAf1fRQrv3rwMYK+9SMVibezYB4xXhvwS+Nvgn4yeC7DWvDOoCYrDFHcbsKROqDeOT2YGvbDJAVJaRSuOuRQB8x/tc+ANC+I3we1+11VEkbSLG4vIlYZw4XjH5V/KL+zGmo/8NB+EY7HdCyavFvC9xz1r+lT9uz47+Gfhx8Lb/REvR/aGqxTWm1eWO9QAODX5Z/8ABNj9ljxJ4s8Ux/EvxFZNDp9syXVlMRkyOp5ByBjg0Af0iWf2iO1Z3y8uPun1r56/asmeT4AeLJCNjpZnK19JFmRN4A3HrXyF+2d4r0nw3+z94uNzcJ9onsyUj3A5I/GgD+WT4YLKPj1bPKuxWumJP4iv7I/hkI28A6EUOQLGLP5V/FX4G8UxaX8UYfEU7ZVZy20/d5xX9mXwd8RabrPwx8O31jNGxawg3KGHBK+maAPVndTGSTswcZqLy3a583cdmzHtTSkcKebMx2t2+tJNMtrbhgwwxxljjrQB+Pf/AAWIilb4D6MYyZB/a6/N/wB8V8Cf8EkyT8ZtaUJ0sos/99NX11/wV8+IOhXfgTTvh/ZXQk1C2v47h41OcK230PtXwf8A8EzPGWmeCvjPcrqswhbUYobdM9CxZqAP6u2mgV2UYL+lfLv7X3wt/wCFn/BbX9MtrfztRFk62sYGWLkjpX06rwyhjCUdsdVYE/pSukclqy3CiQY+ZW5FAH8V3wl8Qaj+z7+0HY3+rRmGfw/e4mjc4wwAODX9i3wv8W23jPwDo/iaFxJ9vtUmIHQbs1+M/wDwUD/YS1bX5pviT8NLAzTyh7i8VBtAc5A6A54ArM/YG/bK/wCEQnPwg+KL/Y7u1lW2gWTJwsfBxnHrQB+95bChyMDFQr5yAhcuCc59Ky7DU7PWIbfUrGZJLeWMMuGHIPSrt7cQ21q8ryqioC7EkDCjk0AZninWofDnhnUdXuZNotbWeYE+qIW/pX8gX7Q+v3v7R/7S9xqOnZlN/PFZBlO77rsvvX7Gft7ftgQRab/wq74ZyfbtYvZUtnRMg7ZyI25GfU1zX7A37CF54T1AfFL4m27fbr1d6Wsw3pGxJdWBODn5qAP0O/Y8+EUnwb+Cmi+Eb2Dy7y1QmSRhh2DBev8A+qvqgDBLKM5qi0gUm1tRllABXoAKkjeOOJRNIEMf3snFAH44f8FdROnhLQtq5RoZd/sMvXwt/wAEpAT8WECICDep83pwtfWH/BXbx7pMul6BodjOs0jpKkoBB2n5/Q18G/8ABNLxvY+EfjdpVlqEgigu7tSztxgDbQB/WCcKcE7T6etDpsiO1d+T0qpa6nY6hbJc2UqTBwCvzDJBqdUzIJA5zjG3tQAqTI0gEbZOOVq7jPWqMLBXJlQI3tV+gBNoznHNGB1paKACiiigAooooAKKKKACiiigAooooAKKKKACiiigAooooAKKKKACiiigAooooAKKKKACiiigAooooAKKKKACiiigAooooAKKKKACiiigAooooAKKKKACiiigAooooA//1f38ooooAKKKKACiiigAooooAKKKKACiiigAooooAKKKKACiiigAooooAKKKKACiiigAooooAKKKKACiiigAooooAKKKKACiiigAooooAKKKKACiiigAooooAKKKKAPF/jT8G9M+NHhmXwtq1/c2NrcI0crWxwSrfiK/PLTP+CP/AMENN1CO/TxDq7NA25AwGD9f3lfrrRQB8Kad+wz4f0u1is7Lxr4gighXbHGszBVHoB5nFWF/Yp0+EtJH478RsSeAZ2x/6Mr7jooA/PvWf2CtK1SJg3xA8TAvwUFw2Of+2leNXf8AwSN+Deo6mNW1PxNrV1P1LSncc9epk9a/WmigD5s+Hf7Nnh34a/C6b4V6Dql6LGXzT9pJ2zKZQQcYbtnjmvjPVv8Agk78J9cv577WfFWuX8s7Mxe4bew3EngmTtniv1fooA/NnwH/AME3/CPw7vLWbw/478SRW1m4eO1WZlhOO20SYx+FfoVoOkDRtOh0/wAx5/JGPMkOXb6mtyigCJ1LAgcZr56+N37PVn8bPsf2vxJquhfZIzH/AMS6QpvyScthl55r6KooA/J7U/8Agkl8GNZvDfal4k1meZiSzyfMWJ7kmTk1o+G/+CVXws8K6pDq+geLNc0+eBwym3byyQDnBIk745r9UKKAPlj4h/sw2Pj3w7b+H5PFWs2CQRxRGW2lZXcRqFySGHXHNfJtz/wSe+FF5qw1y48Ya+16CD5pYl8g5HPmZ61+rNFAHyH8JP2TrD4Taob+z8Xa3qyBFVYr2ZmQbfYua+tDEWXLdfSrFFAFU2wZlckjb2HSkmt1u45ILlA0bcYPOat0UAfIvhT9k3wd4M+K5+J2jSSpdS3DXMsYUKhZseh9q+uqKKACuW8T+Hj4msJtLkuJLWOVGXzYThxuGOORXU0UAfnP4v8A+Cd3hXxsrwa1458RSQSOzmIzMyfMemDJ0ryn/h0F8Co3Eia5qhOcnKjn/wAiV+t1FAH5r+Fv+Cbvg3whKDoPjbxDZwJjZbwylIwB2wJK+8/BXg6PwdoFnoUd5PeraJsEtw26Rvckk12tFACDNLRRQBHNH5sTxZI3qVyOoyMV8GfEj9hLQPiLfXF9qPjTX40uGZmtkmbyvmOcY3gV970UAfkkf+CRXwSnBnm1vVFm3FhhRy3XP3/WvXfh7/wT78N+Ari1udM8beIIo7WQOtqszCE7T/d8zHPfiv0QooAybHS1sLOK0WR5fK/jflj9a0Wj3rtJI+lS0UANRdihc5x606iigCC5hFxBJCejqV/MV8neBf2UvAWhXOsX2u6bBqc+o3cs4a7iWQqJCTgE54Ga+uKKAPgvxB+xdpVpfNrvgnW9R0uYuSLG1cw2/JznCtj9Ke/wn+M/2f8AshbiX7KRt877Q3mYPGen9a+8aKAPzc0j/gnt4U1XxMvjLxz4g1XU7ncrmyun863BU54DPjnPpX334X8IaD4P0yPSNAs4bO3iG1VhQIMfQV1FFAGPrOmtqulXOm+Y8PnpsEiHDL7ivgH4g/8ABO7wl8S7i5n8ReN/EPlXRJe2ErNEM9sGTpX6LUUAfkfF/wAEg/gbENq65qmR/FtGf/Q6+ifhf+xFofwr1q01PSfGWvXkNou1bWeZvJxxgbd5HavueigDMtLeZLdYZxu8sBVzzkDua4H4m/DdPiR4cbw3LqV3pcbPv8+0cpID6ZBHH416jRQB+W3iX/gl38N/FsrXfiHxVreoTyHlrhjIQPYmTtWJpX/BJL4OaPPHcaZ4m1q1miYMs0Xyvke4kr9ZKKAPmv4Lfs623wZlupbXxNq2u/aIwgGoys4XB6jLNX0H5dwjqVUEOfnz2rRooApXtjbX9s1ndRLJDIMMrDII+lfGnxY/YX+E/wAULo6iN+hXnP7/AE6NY5MnvuBU5r7YooA/O7wx+zL8Q/hjA1l4V1vUNVhVv3f2y4bhR0HVq6jV/gT8R/iGn2DxVql5pNuy7WeynbdwMf7PWvumigD5B+E/7HPw1+Gk32+7VvEN4WZvO1OMSuCTngsWPB6V9X22n29oR9nURoAFEa8KMegq/RQBW8nLucY3DGR1rzP4i/DCH4i6T/Y9xql5paAECa0Yq5z6kEV6rRQB+WXin/glf8MfGl4bvxJ4w1++YHKidzJjPpmSsnTf+CSHwZ0a6jvtK8T61aXERyskXysD7ESV+sdFAHx98Nf2RdL+G2sWmrWnjHXdRFqMCG6mZo2+oLmvrZLUIEAY/IuM+tW6KAIwuTkipKKKACiiigAooooAKKKKACiiigAooooAKKKKACiiigAooooAKKKKACiiigAooooAKKKKACiiigAooooAKKKKACiiigAooooAKKKKACiiigAooooAKKKKACiiigAooooAKKKKAP/W/fyiiigAooooAKKKKACiiigAooooAKKKKACiiigAooooAKKKKACiiigAooooAKKKKACiiigAooooAKKKKACiiigAooooAKKKKACiiigAooooAKKKKACiiigAooooAKKKKACiiigAooooAKKKKACiiigAooooAKKKKACiiigAooooAKKKKACiiigAooooAKKKKACiiigAooooAKKKKACiiigAooooAKKKKACiiigAooooAKKKKACiiigAooooAKKKKACiiigAooooAKKKKACiiigAooooAKKKKACiiigAooooAKKKKACiiigAooooAKKKKACiiigAooooAKKKKACiiigAooooAKKKKACiiigAooooAKKKKACiiigAooooAKKKKACiiigAooooAKKKKACiiigAooooAKKKKACiiigAooooAKKKKAP/1/38ooooAKKKKACiiigAooooAKKKKACiiigAooooAKKKKACiiigAooooAKKKKACiiigAooooAKKKKACiiigAooooAKKKKACiiigAooooAKKKTI/OgBaKaGVshTnHWl3D1oAWikyKMjrQAtFNDqehzRuUjOaAHUUU0OpyM9OtADqKTcPXrS0AFFFNLKDgnmgB1FMSVHG5DkdKXeoOCeaAHUUwyIoyTjNLuXG7PHrQA6imhlOMHrShgeAelAC0U3cuM56UB1YZU5oAdRSbhnGeaWgAopjSImNxxmlLqDgmgB1FISFBZjgCgMrAEHINAC0UZ7UhIAyaAFopu5c4zzTqACikBDDI5pvmIWKZ+YdqAH0UUUAFFFFABRRTd6btuefSgB1FM3pu25564pdy4zmgB1FISB1pqyIzFFOSvUUAPopCwBwTSFlBCk8npQA6ikJA5NIWUdTQA6imGRFOCQDTtwoAWimh0ZdwOR60qsrDcpyKAFoqMyxqQrMAT0FHmx7tu4Z9KAJKKTIo3AHGeaAFopnmIBnIxSq6t905oAdRTC6A4J5p2QTigBaKTIpNyg4zzQA6ikLAdTigsAMk8UALRTVZWGVOaC6KMk4FADqKbvXOM89aQSxk4DCgB9FIWUDJOKRWVvunNADqKRmVRljgUm5SNwPFADqKQsAMk8Ubh0zQAtFR+bGH8rcN2M4p+4dc0ALRTd6noaTzEyRnkdaAH0U0MpGQcg0F1B2k8mgB1FJuHrS0AFFJkZx3paACiiigAooooAKKKKACiiigAooooAKKKKACiiigAooooAKKKKACiiigAooooAKKKKACiiigAooooAKKKKACiiigAooooAKKKKACiiigAooooA//0P38ooooAKKKKACiiigAooooAKKKKACiiigAooooAKKKKACiiigAooooAKKKKACiiigAooooAKKKKACiiigAooooAKKKKACiiigAooooAZJnaQOtMJ2Rh26insO/pVWItKZFf7ueKAPHvj14vu/AXwx1XxVp5KyWyBgVOPWuV/Zx+ImpfEbwzPqd8WYpIq5Jz1BqL9rp0i+A/iFWGR5Y/ka8/wD2I5lPw/vFVRzOn8moA+1A+6TA6YpVJB9qewVRuxyaROm09aAAKiggdTXzz+0T491D4d+CjrNgWV13nKnH3QK+hFRhIWPSvkL9s90/4Vk4cZBEvX6CgD079nPx1e/EX4Q6D4vviWmv4tzZOT0Fe3uoDDAxu618q/sXhR+zp4SEQwog/oK+pt7bpCRnb0oA+G/gr8ddW8dfGjxp4MmdjBoGqC0UFsgDYh/9mr7wr8kv2VEjg/aa+KRQcza+C3/fuKv1toAK+O/2qPFnxB+Helw+M/B0M+oRxTQRT2kZwBESPMcnjouT1r7ErnfEukaf4g0u50e/iWZLiJ0KsM4DKRn8M0Aeb/Br4o6H8XPB1t4g8PTI8S4jnaM5CzRgCRT7hgQa8T/aI/aHk8F6vpvg3wbD/aOt3V3HDcRRNh4YpCAHPP1r4e8beJfE/wCw94+1BNHD3nhTVopIrVJDshF9eZAAAxyHcd6+i/2TPhdqnjK9f46fE+Nv7W1QGJNPnG5IlQlkdTwcnd+lAH3Z4Eg1lNAt28QM73BXcwk65IFdxEd6nIwtIq/KN3AHaiRfNUCI4HtQAlxlYD5IywHFfDH7LPxy1v4kfEH4n+H9XLmPwzrAs4dxzhdiNx+dfcczfZ7cyE5MYzzX5U/sFmKb40/HXJ5m8SA4/wC2UdAH6vfK6cDhua+Jv2ivjPq/w88Z6boWllljuUjZtpx95lH9a+1huUgD7o4r8xf2yTFB8R9GklALFIcZ/wB9KAP0l0i7e70Swv3Hzz28Lk+7oCf51sb3AzjNYnhhQ3hnSTjj7DbHH/bNa2GLugKDvQBl65cvb6TcXiR5eJGYD0xX5Ov8X/jR8RPjH4m8HeEZrxItIVXCwkEAMSPev1Z8UzPF4evtq5PkPx+FfmR+x95p/ag+Jc86YDWsW3PrvNAD9X8QftXeDoDcWWj6l4hdh80OQMY/Kve/2c/2oW+Il3N4O8c2I8O+ItPdYDZyNmSSQ4JHU8jNfagAJyygE/rX5L+JW0zU/wBsLw7/AMIbGiSWepsNWMPGXxxv69sUAfrZuLgqflJ6VBGjvG6s+TnrUkcqdCeR19qjWSJyYkbDHmgD4e+PHxk8UfBf4m6b4hvlkk8MvFHbSKxxF50xVQT0OetfZWiapDr2jWmrWk2Y7qKOYY6DzFDY/WvMvjl8KdN+K/gu70PUYgWjUzxORk+ZECVx+IFfHH7Knxmv/Bf9sfCj4jTFNV0sXt9Es7Zf7JBvZPTjYooA+m/2jfjra/B7w1atCiy3+qXAsYI84YSSYVSORzk13vwPuPEd94Asb3xekiapKWaQS/f2nBWvgzwNBd/tTfGK48b3kX2nwTZECykPzQ/bLZjnA7EEDvX6gWsTW221VNkUagKw74oA1KKKKACiiigAr83/ANrj40+NPB/jS08JeDzNHPcxxMGibB+faP61+kB6V+Uv7VxI/aA0aKNQ7GC3Oe/3koAvhP2oLSzj1O2XUr55IlkEeRzuXOO1Hg39rT4p+BNftfDXxn8ITaLY3cy28GpXT8SSucbQA3Xp271+lmhlYtF08O3P2WH/ANAFfAv7f+o+FbHwn4aXVGjN3Pq6R25YfMJSU24980AfoHpeo2mp6fHfWconjdQysO+Rmp9ucOg2M/3q8b/Z9g1C1+FelQam7Pc7Tkv97BAxXs8akgKxwU60ASsCqj5dxFfjfYfGz43/ABR+KPjvwz4MN4I/DeqGzUQsDj5VI6/Wv2NGEflzz0Ffkz+xHELf9oL404fJl8SA49P3cdAGtqmuftX+ErddUttK1PXJI1ybTIG/19P5173+zz+1IvxNvT4P8c2Q8OeJ0ZlTTpG3SyJHwz9T7fnX2hkDcZQM84z6V+TXiq10i9/4KEeFrnwYFVE0W5W4ih4VpcxZJ689aAP1pWIfxDdxkGoyDIxAfBH8PtUUUTssatIQ4VcrVvBVydvAHWgDifG/jjRPh9oEmu63KkFsisfnOB8oya+Ab39qv4u/FDU59L+FPgme60IH9xrVs+UlB7gFu30qj+3L4m1PxRrvhD4fadI0ECa1Ebzyz/rIJCoKsPTiv0E+H/gnwz4D8NWuleGbSK3tY0AHlDaOgoA/Pe6+JX7UHw1ik1m58IX/AIkijG9kdgAgH0ZetfUXwH/aR8P/ABrspLUpHpuv2m1L+xDbntpWx8jcnnBFfTcsEF7avFIomjkXBRujCvyl+PnheD4L/tMfDjxB4P8A+JVY67dvPrEduNqTY3Ab/X7ooA/WJQYIss24jvUmNxV/asbS9Ti1fSYr6EgpKgZSO4NbBB8oBevFAHnPxU16Xwr4MvtWt/vxIzLjj5gpIr8vfhP8SP2h/i7p2o+IdJ+328MF7c2yRoQQRE7KD364r9Ifj6nm/DTUkPB8t/z2Gvl//gnKso+EOrC5y7/27f4Y9cea+BQBxf8Awnv7Tvw9tP7Vm8L6h4kYEhoXYDCjvwRXuXwR/av034j37eGfGFmnhrxHAoabTnbdIueBnk9cGvsV1jmVo50BBByD3FfmB+2t8P4PCmt+DviV4HgWxvW1lDqMtuNrSwR4O1zzkcmgD9Py5CtL1wMgUsR8xBIRgt+lcX8P/FEXjnwlYeJIMLHdLuwvI7V2LN5Toq9GP5UALKwH7tjhj92vhz9lT43658UvGXxD0TVi7R+Htbayh3HICAZ45r7b1E4iadOWj6Cvy1/4J6Fbjx78aGb5X/4Shv8A0EUAfqpCpjVs9zxXxJ8f/jPrHgLxrYeH7ZnCXDQHg44dlH9a+4eCNvXFflv+2IYm+LejEgHAtf8A0JKAP030qcXOl2d0/wB+a2icn/eQH+tTBV3FQMEc5ql4fQHRNNbt9jg/9FrV64Z0YeSm8tw3sKAI7qYJCJusa8sfQV8M/HH9rxvBmux+CfhXpY8X69NKYLq0gfbJankgnkdcV9F/HLxBceF/hX4n1OJjC9rp0skDA4JcCvj79hH4c6f4l8FW/wAa/ENutxqniKBZvOkGWRwQcg+tAGLH4k/al1uH+17jRNR0+XG/7DkHJ/u9T/OvVvgn8dvirqXiVfB/j3whPpqmURLdTPnIGMnG4+tfcoi/1bL8xHes2bQ9NfUI742kZlU58zHINAGmxzBv655xTs5T5fvbTin4RF2nkdqcpRuVoA+FfjJY/G1vE3meDpr0Q7RxDjH8q+L/ABn8Zf2hfCPjWHwpdS3/AJkhiGCwz+8OK/bR0Jl3+WCema/Kn9o7YP2kbGMjA3WfH/AxQB3Phm3/AGjZ9Us7u8fUPsjtGWBxjaeT2r9BdGW9XTIftqE3DjEhPX8avadxaW8SqAohjI/75FWXjlVyUJYNx9KAGZKkIp4Tqa+aP2kPj/D8FdMtls7NdS1XUUY2dtu2tIyk8DkelfS7pIrIiDcM/Oa/Of8Abh+H/ivWvEnhD4neF7JtRtvBnmS3Vr/yzkyWwHwM96AOU0rxF+098SbP/hI4tP1HQYnAeK3UgiRW/OvZvgr8Sfj23jK38GeOfB93FpsoYvq0zcLswBxu759Ko/DD9t/4H6rYWPhvWtat9J1qFBFLYrz5cg6rye2a+zPDniXSPE1quo6HMt5bkD94O2aAOhgYmQj74/ventV2oFi2vuXgHqBU9ABRRRQAUUUUAFFFFABRRRQAUUUUAFFFFABRRRQAUUUUAFFFFABRRRQAUUUUAFFFFABRRRQAUUUUAFFFFABRRRQAUUUUAFFFFABRRRQAUUUUAf/R/fyiiigAooooAKKKKACiiigAooooAKKKKACiiigAooooAKKKKACiiigAooooAKKKKACiiigAooooAKKKKACiiigAooooAKKKKACiiigCCZjkJ/e4prRHZ5YOM9+9SyZ4wBn3qJgMrvJB9qAPmj9rJ0b4D+I1fkJGBn8DXB/sRyxN4AvVQf8ALdP5GvZf2g/BviHx98MtW8K+HIo5Lm8TChztBOD3/Gvzp+HXh3/goN8K4LrSPC3hfw/NZGbMbTT/ADFRnGf3RoA/X5hJLlx1BxjtTi3IDHDDsK/NCz8Z/wDBRiS+iSbwp4dWIsPMIn6DPOP3XpX314EvvF9xocUnj63httWIG9Lc7kHHY4HegDuWdfLDOdo6V8s/taaQ+q/CTVbmMFlsbaaYY6nAFfUp252N92sPxBoNp4i0i70LUUDWl3E0TcZ4brQB8ofsF+JLTV/2bPCSl1Wdbf5488rwO3WvrvUtXsdIs7nUL6RY4YF3OxPavzI1r9nn44/BXxVd6r+z+qahY3jbVtb6cpBEi8jYmGA/AVn6ton7c3xQX/hEfiJo+laTot3+6kudOuCJth6nhF5/GgBn7FMP/CSfHv4weIIATbR68rRPjhlMUXIr9ZK8C+A3wQ0T4L+HhYaazSXd2im8lk5d5F7k5JJwBXvtABXH+M/E+m+ENGutc1aRYYLeJ3DHuyqSB+OK7Cvh39qf4ZfGL4s6jZ+FPC6RxeGvMt57idZjHOWRlLLgDlSM96APj6H4d63+2/431bxxqBltvCtrBPb2ZiztN5a7gh2nGCWUc5r1D9lb4mX3wg8Z3X7O/wAQZGD6ann29zMSzuZiwVcnA6KK/QT4c/D/AEv4c+HbTQNGhWJUiQyhVCgyFRvPHUk5r55/ae/Z6f4l21hrHhBPs3iHT7pbpZoj5TTFMFUdxyVyOnNAH2VCxf5uqkZHPWnB137emK8e+DKfEa18DWNt8TIIYNZQFZFgfevGAOcCvWHKgIlxwzcfLQBZlQyRujAYPT3r8jP2RrqDwb+0P8VNF1J/Ik13xB5kG7jcBHGOM49K/Wg+W8iwlmBQ4GO9fC37QX7NGq+I9cg8ffDxmtfEthue2ijfyYp3Y9ZSvX8QaAPvMtEsAJf5cdc1+V37U+qWfir9orw74Es382aWzW4+TniNo89PrU9tqf8AwUOtrYaRJ4c0FljHlxObjLMnTJPl9a9W/Z+/Zg1jRvFP/C0finI0vicFwsRfzokWTlgpJ4AIGOKAPuHQYGt9E06EHmK0gjIP+ygFa7YB46+lVDtljES5XYeMccCrGUliyDgdM0AZHiTa+g6hGvLeQ/8AKvwx+H9t8YpP2l/H8fw3sVupUijMimQoAu446Ka/cm/ie70280+1+aR4WVd3cmvjH9n34G+N/Afxw8aeOfEkMcen6vBGtsyPuJKsScjFAHyV8cNP/a7tfBt9rmrWkmlWVhC0s81tcMXVM4yBsHrX0l+xH8PfBn/CF2/jeLUpdZ1zVIkuL2S6AMsEvTg5J6AV97axpmneI9MudI1CNZbe6Ty5EkAIIPbB618L/DX4EfFD4Q/GC+1HwoiTeFNbvPNuUmlOLeIAACJMEAcdBigD73tkR1dASeetWXt0Zdo+U+o60RgZ5wCOoFWKAK0lv5gALHGMEetfjh/wUk8Aw+GbrRPiJ4Zu5dO1HUdU07SZxb/JuguJY43BI65Vjmv2Yr4Q/bf+BXjv42eGNB07wNBFNcWOuaffTCV9gENvPG7kdedqmgD3/wCBfw60T4Z/DrS/D+lKNssMdyzbcEvMisx/OvZIg8beW4ynZu9Y+l211YaFptltXzre2gilz2KIqnH4itlOcL2FAFuiiigAooooAD0r8bP27x4ln+MWmWvhGETXxt4CuW2nqnfmv2SPSvgT46/A/wAe+NPjJp3jLwxBFLZW8MSSGV9pBUrnjHtQB4xY+HP2u73Q7a3k0vyo3hRRIty24KVAB+56V0fw1/Yu8Ra54kg8WfFzWr+8a3kWeKxuG82FJEOQRnGD+Hav0j0uKeLTbS0nUCaKGNXA6ZVQDWujDdtoArW+nW1pbx2tqgijiAAVRgcVc2D1p9FAEDeWzjPUV/Px8GrT4yXH7Qvxhb4Y2S3oXxCfN3SmPDeXHjGAa/oBnc8oB8x+7X5+/sz/AAD+Ivw1+LnxG8ZeLYIYNP1/WftlkYpNxeLYgywwMHINAHy/+0Bpn7YVj4KuNXFlJZJDtWR4LlsgHOf4PSvp39iX4a+C4dBHjlNUm1vX0YLcz3YBlglcHfGpyTtBH6V97X+nadrenz2F7Gs0MwIZJACOR6GvhD4d/A34r/CH4zMfB6Rz+B9Raa7vHnl/eJcOwIVEwRt5PegD9AlYtJuVRtx1qFm8mTzJT8p4pJJH2JEoxJgFsdPepDiSIEc9jmgD8vP259GuvCXiPwf8RrONpbaXW4Vu+MiOGMqS3GfWv0P8B+N/DPjjw5Z+IfDlys9ldqNnQHgDPGTR4z8F6N450O78Na5bpNbTRMqO6BmRnGNy56GvzyP7PPx1+CWozS/BWX+1bFT+6h1G5IQAei/MBQB+nss9rHktII1i5bJAFflF8ffFlh8Yv2oPh94W8MMbu20O8eDVXUf6oncRjGQeo9K2NQ0v9un4ho2leLtI0vS7C4GwzWNyVl2nqeEXn8a+ofgN+zZ4f+ENu2sXTyahr2pbZbiS5/elJRgfKxJPQUAfTWk2Vrp2mwaVAflgQIDj0rQjY4J/u8U1NkfzOPm71K2GTK0AeK/HtSfhzqTsdv7t+n+41fMX/BOyRYfg/qqyk869fYP/AG2evrr4u+G7/wAVeCb3R9OG6eaNlQZwCxUgfrX5W/CHwZ/wUF+Bejah4V8J+F/D93pdxqNzdxS3NwDJiaRmH/LM9j60AfsrNfWkchjdwrYzzwPzr8xf24/H9hr+ueDPh34alNzqUetINQiTkRwSYGcjOehqxJD+3l42tW0rxnoWjabbuDmayuMSjPuI1New/Ar9ljSvAl23jbxrPPqev3YCyJdN56RleQVLE4PJ7UAfT3w88NQ+FvCOn6LZsTFbLgZ4rt0g2M0jElm6D0+lRmPeqPbjauc46Vc+fALD60AV2VNpMvTuK/Jf9jS+XwT8bPiToN8RD/bniGSeLfwSoAHGcV+tW9ZmMa9Bwc18D/HX9mPXfEXjG0+KXw3ZrbX9JVxDbI/k287Oc5lx1PA6g0AffAliQDDAgjOa/K79pnUrfxP+0xo3gKxIluDaQ3eU54QoTyKkfxB/wUQhhbw/L4Z0H7O3yJMJ8yeX0znyuuDXsX7P37MWqeFNbPxP8fSPd+KpC6lJX86NI5TlgpY8AdhigD7b0pPK0iwthkNFbwqf+AoBWizo58vo3eokmAnEJAACjpU+NzEADGOvegDxn48aA/iX4U+JtDTJkn0+ZIsdSzAV8hfsDfEHR9H8Ex/BPULjytV8K26xzRyfKdxIHU4zX6LyRbh5EqLJE3BD85H418JfHD9kyLXvE/8Awnnw8urjTtZaUzSRWzmCKRgDgNtIyOe4oA++VAZBtYYPcGqiahYmf7IJ0MhONu4Zz9M1+Yq6r/wUQ0QxaRoXhzQrrTrP5Ipp7j966+rfuzz+Nen/AAX+CXxU1PxnF8Rfi1ez2OpW0vmrZWlwzWrE4yCvyjH4UAffKMkmcc44NOKAjA4+lRwBlBUjp0PrU9AEYTauM5r8nv2kQzftIWDj72+zGPbeK/WQ9DXwH8ZfgN8QvGfxltPGWjW8LafE1uWZnwcRsCeMelAH3VYsgtLcE4JhjH/joq6wxGUB5Pes6ESRQwwqAZY40VgenAAqTKs7LIWDtwQOgoAnDmGPc3IX7xqhexaRfQG2vxC8NwMNHIRhx9Ceatos0SPGwBUD5M9T9a+Uf2hvgv4t8eS6X4o8GaldW+qaMrNDaxztFbysc8SAHBHPoaAOv8Zfsz/CjxjaTpbaTaaVczf8vdrEBICe+c9a/PG60fW/2Xv2m/DWgaX4ivtX0HUraWeeK5fKq+5AqhQTxya9Vl13/goZYWh0jTvDWgyrENkEjz/Myjux8vrWl8LP2ZfiD4o+I9h8XPjpiHxBpitFb2dvL5tq0chBYsDgZBUY4oA/RrRrx9Ss7e/k+Xz4ldVHTDDNblZ1gkFvEltF0jUKB2GK0aACiiigAooooAKKKKACiiigAooooAKKKKACiiigAooooAKKKKACiiigAooooAKKKKACiiigAooooAKKKKACiiigAooooAKKKKACiiigAooooA//0v38ooooAKKKKACiiigAooooAKKKKACiiigAooooAKKKKACiiigAooooAKKKKACiiigAooooAKKKKACiiigAooooAKKKKACiiigAooooAhkiV2VyT8vpTGeRTuYDb+tWaMUAVlRMiQZ55pVVHJYZGKsYFGMUAVgRyGGD7Ckfa/LDjPpzVrAowKAInxtOB24qsr7IVSXOXOOKvYFJgelAFUw7YmjblAOD3qIZSNPKGVXruHNaFJgdKAKsVugbzgWy3OCat0UUAFVJIiZhImd+Pwq3RQBUlEoAZcbicH6UHn92Bz3NW6MCgCjtJVUi/h/vUMmTuIy4/LNXqMCgCFQSoLAbqpXBlmcAD92vDnv+FadJgelAFZYVLK56qOPpSSwIJRcZO4DGO1W6KAM2NxvNvICGILZA4x9akWKLygo3YDZq7gZzjmjAoApSxMjebAPmbg5o2XQCbQuSfn+lXqKAKNwkfmxlgQQeNvT8aklWYsCuOOlWcA9aWgCjFsmk3nIaPg9hV6kwB0FLQAVDKHbhOtTUUAVZIvNUCTIKnPFNRXWcufuEYFXKMCgAooooAKKKKAA9KqNE8kZV8A54xxVuigCrBCYoyrck96lhQRrt71LRQAUUUUARt1AA5rNQO0rrDnbn5939K1qQADoKAKb2qSkNyCo7cVCqy+U32rs2F2+ladGBQBX2lEBj5PHX0pkyRygK2Rt+bjjpVujAoAprIJEL4O0jHTmojbQzxoCWwhyOetaGB0xS4FAFEQM3ytwo+5ipsFSigA47mrFFAFZgWJWQdemKc2EXaoqeigCHACfOM0nlgphfrzU9FAFU/uz5knJPHHSo5EnB3KFI9DV4gHrRQBUjmBwhBBHoOKajTu8qy/cH3cVcwPSlwKAMzZKriVvuL6dTVhyZlwgwD17GreB0owBQBQJM0ZMCjzEOMsKlAwPKP3iMmrIAHSlx3oAzjaxOvlEtkHdnv+dSpCBIZkJ5GMGrmBRQBnXEAnZPMJCqcjHHPvUv8TIRkdjVzAowKAK+07Aq077igY5PpU1FACL0paKKACoOQ21OvvU9FAFViOBIPmz2p4GGwAOO/epsCloAoytHKxJ3Zi5+tOMkbqqEMPM9O1W8D060YHpQBU3COVIgMj1x/WmpCsDMqZLOc5POKu4HWlwKAK8aMr8Abe/1qxRRQAUUUUAFFFFABRRRQAUUUUAFFFFABRRRQAUUUUAFFFFABRRRQAUUUUAFFFFABRRRQAUUUUAFFFFABRRRQAUUUUAFFFFABRRRQAUUUUAFFFFAH//T/fyiiigAooooAKKKKACiiigAooooAKKKKACiiigAooooAKKKKACiiigAooooAKKKKACiiigAooooAKKKKACiiigAooooAKKKKACiiigAooooAKKKKACiiigAooooAKKKKACiiigAooooAKKKKACiiigAooooAKKKKACiiigAooooAKKKKACiiigAooooAKKKKACiiigAooooAKKKKACiiigAooooAKKKKACiiigAooooAKKKKACiiigAooooAKKKKACiiigAooooAKKKKACiiigAooooAKKKKACiiigAooooAKKKKACiiigAooooAKKKKACiiigAooooAKKKKACiiigAooooAKKKKACiiigAooooAKKKKACiiigAooooAKKKKACiiigAooooAKKKKACiiigAooooAKKKKACiiigAooooAKKKKAP/1P38ooooAKKKKACiiigAooooAKKKKACiiigAooooAKKKKACiiigAooooAKKKKACiiigAooooAKKKKACiiigAooooAKKKKACiiigAooooAKKKKACiiigAooooAKKKKACiiigAooooAKKKKACiiigAooooAKKKKACiiigAooooAKKKKACiiigAooooAKKKKACiiigAooooAKKKKACiiigAooooAKKKKACiiigAooooAKKKKACiiigAooooAKKKKACiiigAooooAKKKKACiiigAooooAKKKKACiiigAooooAKKKKACiiigAooooAKKKKACiiigAooooAKKKKACiiigAooooAKKKKACiiigAooooAKKKKACiiigAooooAKKKKACiiigAooooAKKKKACiiigAooooAKKKKACiiigAooooAKKKKACiiigD/9X9/KKKKACiiigAooooAKKKKACiiigAooooAKKKKACiiigAooooAKKKKACiiigAooooAKKKKACiiigAooooAKKKKACiiigAooooAKKKKACiiigAooooAKKKKACiiigAooooAKKKKACiiigAooooAKKKKACiiigAooooAKKKKACiiigAooooAKKKKACiiigAooooAKKKKACiiigAooooAKKKKACiiigAooooAKKKKACiiigAooooAKKKKACiiigAooooAKKKKACiiigAooooAKKKKACiiigAooooAKKKKACiiigAooooAKKKKACiiigAooooAKKKKACiiigAooooAKKKKACiiigAooooAKKKKACiiigAooooAKKKKACiiigAooooAKKKKACiiigAooooAKKKKACiiigAooooAKKKKACiiigAooooA//W/fyiiigAooooAKKKKACiiigAooooAKKKKACiiigAooooAKKKKACiiigAooooAKKKKACiiigAooooAKKKKACiiigAooooAKKKKACiiigAooooAKKKKACiiigAooooAKKKKACiiigAooooAKKKKACiiigAooooAKKKKACiiigAooooAKKKKACiiigAooooAKKKKACiiigAooooAKKKKACiiigAooooAKKKKACiiigAooooAKKKKACiiigAooooAKKKKACiiigAooooAKKKKACiiigAooooAKKKKACiiigAooooAKKKKACiiigAooooAKKKKACiiigAooooAKKKKACiiigAooooAKKKKACiiigAooooAKKKKACiiigAooooAKKKKACiiigAooooAKKKKACiiigAooooAKKKKACiiigAooooAKKKKAP/1/38ooooAKKKKACiiigAooooAKKKKACiiigAooooAKKKKACiiigAooooAKKKKACiiigAooooAKKKKACiiigAooooAKKKKACiiigAooooAKKKKACiiigAooooAKKKKACiiigAooooAKKKKACiiigAooooAKKKKACiiigAooooAKKKKACiiigAooooAKKKKACiiigAooooAKKKKACiiigAooooAKKKKACiiigAooooAKKKKACiiigAooooAKKKKACiiigAooooAKKKKACiiigAooooAKKKKACiiigAooooAKKKKACiiigAooooAKKKKACiiigAooooAKKKKACiiigAooooAKKKKACiiigAooooAKKKKACiiigAooooAKKKKACiiigAooooAKKKKACiiigAooooAKKKKACiiigAooooAKKKKACiiigD/9D9/KKKKACiiigAooooAKKKKACiiigAooooAKKKKACiiigAooooAKKKKACiiigAooooAKKKKACiiigAooooAKKKKACiiigAooooAKKKKACiiigAooooAKKKKACiiigAooooAKKKKACiiigAooooAKKKKACiiigAooooAKKKKACiiigAooooAKKKKACiiigAooooAKKKKACiiigAooooAKKKKACiiigAooooAKKKKACiiigAooooAKKKKACiiigAooooAKKKKACiiigAooooAKKKKACiiigAooooAKKKKACiiigAooooAKKKKACiiigAooooAKKKKACiiigAooooAKKKKACiiigAooooAKKKKACiiigAooooAKKKKACiiigAooooAKKKKACiiigAooooAKKKKACiiigAooooAKKKKACiiigAooooA//R/fyiiigAooooAKKKKACiiigAooooAKKKKACiiigAooooAKKKKACiiigAooooAKKKKACiiigAooooAKKKKACiiigAooooAKKKKACiiigAooooAKKKKACiiigAooooAKKKKACiiigAooooAKKKKACiiigAooooAKKKKACiiigAooooAKKKKACiiigAooooAKKKKACiiigAooooAKKKKACiiigAooooAKKKKACiiigAooooAKKKKACiiigAooooAKKKKACiiigAooooAKKKKACiiigAooooAKKKKACiiigAooooAKKKKACiiigAooooAKKKKACiiigAooooAKKKKACiiigAooooAKKKKACiiigAooooAKKKKACiiigAooooAKKKKACiiigAooooAKKKKACiiigAooooAKKKKACiiigAooooAKKKKAP/0v38ooooAKKKKACiiigAooooAKKKKACiiigAooooAKKKKACiiigAooooAKKKKACiiigAooooAKKKKACiiigAooooAKKKKACiiigAooooAKKKKACiiigAooooAKKKKACiiigAooooAKKKKACiiigAooooAKKKKACiiigAooooAKKKKACiiigAooooAKKKKACiiigAooooAKKKKACiiigAooooAKKKKACiiigAooooAKKKKACiiigAooooAKKKKACiiigAooooAKKKKACiiigAooooAKKKKACiiigAooooAKKKKACiiigAooooAKKKKACiiigAooooAKKKKACiiigAooooAKKKKACiiigAooooAKKKKACiiigAooooAKKKKACiiigAooooAKKKKACiiigAooooAKKKKACiiigAooooAKKKKACiiigD/9P9/KKKKACiiigAooooAKKKKACiiigAooooAKKKKACiiigAooooAKKKKACiiigAooooAKKKKACiiigAooooAKKKKACiiigAooooAKKKKACiiigAooooAKKKKACiiigAooooAKKKKACiiigAooooAKKKKACiiigAooooAKKKKACiiigAooooAKKKKACiiigAooooAKKKKACiiigAooooAKKKKACiiigAooooAKKKKACiiigAooooAKKKKACiiigAooooAKKKKACiiigAooooAKKKKACiiigAooooAKKKKACiiigAooooAKKKKACiiigAooooAKKKKACiiigAooooAKKKKACiiigAooooAKKKKACiiigAooooAKKKKACiiigAooooAKKKKACiiigAooooAKKKKACiiigAooooAKKKKACiiigAooooA//U/fyiiigAooooAKKKKACiiigAooooAKKKKACiiigAooooAKKKKACiiigAooooAKKKKACiiigAooooAKKKKACiiigAooooAKKKKACiiigAooooAKKKKACiiigAooooAKKKKACiiigAooooAKKKKACiiigAooooAKKKKACiiigAooooAKKKKACiiigAooooAKKKKACiiigAooooAKKKKACiiigAooooAKKKKACiiigAooooAKKKKACiiigAooooAKKKKACiiigAooooAKKKKACiiigAooooAKKKKACiiigAooooAKKKKACiiigAooooAKKKKACiiigAooooAKKKKACiiigAooooAKKKKACiiigAooooAKKKKACiiigAooooAKKKKACiiigAooooAKKKKACiiigAooooAKKKKACiiigAooooAKKKKAP/1f38ooooAKKKKACiiigAooooAKKKKACiiigAooooAKKKKACiiigAooooAKKKKACiiigAooooAKKKKACiiigAooooAKKKKACiiigAooooAKKKKACiiigAooooAKKKKACiiigAooooAKKKKACiiigAooooAKKKKACiiigAooooAKKKKACiiigAooooAKKKKACiiigAooooAKKKKACiiigAooooAKKKKACiiigAooooAKKKKACiiigAooooAKKKKACiiigAooooAKKKKACiiigAooooAKKKKACiiigAooooAKKKKACiiigAooooAKKKKACiiigAooooAKKKKACiiigAooooAKKKKACiiigAooooAKKKKACiiigAooooAKKKKACiiigAooooAKKKKACiiigAooooAKKKKACiiigAooooAKKKKACiiigD/9b9/KKKKACiiigAooooAKKKKACiiigAooooAKKKKACiiigAooooAKKKKACiiigAooooAKKKKACiiigAooooAKKKKACiiigAooooAKKKKACiiigAooooAKKKKACiiigAooooAKKKKACiiigAooooAKKKKACiiigAooooAKKKKACiiigAooooAKKKKACiiigAooooAKKKKACiiigAooooAKKKKACiiigAooooAKKKKACiiigAooooAKKKKACiiigAooooAKKKKACiiigAooooAKKKKACiiigAooooAKKKKACiiigAooooAKKKKACiiigAooooAKKKKACiiigAooooAKKKKACiiigAooooAKKKKACiiigAooooAKKKKACiiigAooooAKKKKACiiigAooooAKKKKACiiigAooooAKKKKACiiigAooooA//X/fyiiigAooooAKKKKACiiigAooooAKKKKACiiigAooooAKKKKACiiigAooooAKKKKACiiigAooooAKKKKACiiigAooooAKKKKACiiigAooooAKKKKACiiigAooooAKKKKACiiigAooooAKKKKACiiigAooooAKKKKACiiigAooooAKKKKACiiigAooooAKKKKACiiigAooooAKKKKACiiigAooooAKKKKACiiigAooooAKKKKACiiigAooooAKKKKACiiigAooooAKKKKACiiigAooooAKKKKACiiigAooooAKKKKACiiigAooooAKKKKACiiigAooooAKKKKACiiigAooooAKKKKACiiigAooooAKKKKACiiigAooooAKKKKACiiigAooooAKKKKACiiigAooooAKKKKACiiigAooooAKKKKAP/0P38ooooAKKKKACiiigAooooAKKKKACiiigAooooAKKKKACiiigAooooAKKKKACiiigAooooAKKKKACiiigAooooAKKKKACiiigAooooAKKKKACiiigAooooAKKKKACiiigAooooAKKKKACiiigAooooAKKKKACiiigAooooAKKKKACiiigAooooAKKKKACiiigAooooAKKKKACiiigAooooAKKKKACiiigAooooAKKKKACiiigAooooAKKKKACiiigAooooAKKKKACiiigAooooAKKKKACiiigAooooAKKKKACiiigAooooAKKKKACiiigAooooAKKKKACiiigAooooAKKKKACiiigAooooAKKKKACiiigAooooAKKKKACiiigAooooAKKKKACiiigAooooAKKKKACiiigAooooAKKKKACiiigD/9H9/KKKKACiiigAooooAKKKKACiiigAooooAKKKKACiiigAooooAKKKKACiiigAooooAKKKKACiiigAooooAKKKKACiiigAooooAKKKKACiiigAooooAKKKKACiiigAooooAKKKKACiiigAooooAKKKKACiiigAooooAKKKKACiiigAooooAKKKKACiiigAooooAKKKKACiiigAooooAKKKKACiiigAooooAKKKKACiiigAooooAKKKKACiiigAooooAKKKKACiiigAooooAKKKKACiiigAooooAKKKKACiiigAooooAKKKKACiiigAooooAKKKKACiiigAooooAKKKKACiiigAooooAKKKKACiiigAooooAKKKKACiiigAooooAKKKKACiiigAooooAKKKKACiiigAooooAKKKKACiiigAooooA//S/fyiiigAooooAKKKKACiiigAooooAKKKKACiiigAooooAKKKKACiiigAooooAKKKKACiiigAooooAKKKKACiiigAooooAKKKKACiiigAooooAKKKKACiiigAooooAKKKKACiiigAooooAKKKKACiiigAooooAKKKKACiiigAooooAKKKKACiiigAooooAKKKKACiiigAooooAKKKKACiiigAooooAKKKKACiiigAooooAKKKKACiiigAooooAKKKKACiiigAooooAKKKKACiiigAooooAKKKKACiiigAooooAKKKKACiiigAooooAKKKKACiiigAooooAKKKKACiiigAooooAKKKKACiiigAooooAKKKKACiiigAooooAKKKKACiiigAooooAKKKKACiiigAooooAKKKKACiiigAooooAKKKKAP/0/38ooooAKKKKACiiigAooooAKKKKACiiigAooooAKKKKACiiigAooooAKKKKACiiigAooooAKKKKACiiigAooooAKKKKACiiigAooooAKKKKACiiigAooooAKKKKACiiigAooooAKKKKACiiigAooooAKKKKACiiigAooooAKKKKACiiigAooooAKKKKACiiigAooooAKKKKACiiigAooooAKKKKACiiigAooooAKKKKACiiigAooooAKKKKACiiigAooooAKKKKACiiigAooooAKKKKACiiigAooooAKKKKACiiigAooooAKKKKACiiigAooooAKKKKACiiigAooooAKKKKACiiigAooooAKKKKACiiigAooooAKKKKACiiigAooooAKKKKACiiigAooooAKKKKACiiigAooooAKKKKACiiigD/9T9/KKKKACiiigAooooAKKKKACiiigAooooAKKKKACiiigAooooAKKKKACiiigAooooAKKKKACiiigAooooAKKKKACiiigAooooAKKKKACiiigAooooAKKKKACiiigAooooAKKKKACiiigAooooAKKKKACiiigAooooAKKKKACiiigAooooAKKKKACiiigAooooAKKKKACiiigAooooAKKKKACiiigAooooAKKKKACiiigAooooAKKKKACiiigAooooAKKKKACiiigAooooAKKKKACiiigAooooAKKKKACiiigAooooAKKKKACiiigAooooAKKKKACiiigAooooAKKKKACiiigAooooAKKKKACiiigAooooAKKKKACiiigAooooAKKKKACiiigAooooAKKKKACiiigAooooAKKKKACiiigAooooA//V/fyiiigAooooAKKKKACiiigAooooAKKKKACiiigAooooAKKKKACiiigAooooAKKKKACiiigAooooAKKKKACiiigAooooAKKKKACiiigAooooAKKKKACiiigAooooAKKKKACiiigAooooAKKKKACiiigAooooAKKKKACiiigAooooAKKKKACiiigAooooAKKKKACiiigAooooAKKKKACiiigAooooAKKKKACiiigAooooAKKKKACiiigAooooAKKKKACiiigAooooAKKKKACiiigAooooAKKKKACiiigAooooAKKKKACiiigAooooAKKKKACiiigAooooAKKKKACiiigAooooAKKKKACiiigAooooAKKKKACiiigAooooAKKKKACiiigAooooAKKKKACiiigAooooAKKKKACiiigAooooAKKKKAP/1v38ooooAKKKKACiiigAooooAKKKKACiiigAooooAKKKKACiiigAooooAKKKKACiiigAooooAKKKKACiiigAooooAKKKKACiiigAooooAKKKKACiiigAooooAKKKKACiiigAooooAKKKKACiiigAooooAKKKKACiiigAooooAKKKKACiiigAooooAKKKKACiiigAooooAKKKKACiiigAooooAKKKKACiiigAooooAKKKKACiiigAooooAKKKKACiiigAooooAKKKKACiiigAooooAKKKKACiiigAooooAKKKKACiiigAooooAKKKKACiiigAooooAKKKKACiiigAooooAKKKKACiiigAooooAKKKKACiiigAooooAKKKKACiiigAooooAKKKKACiiigAooooAKKKKACiiigAooooAKKKKACiiigD/9f9/KKKKACiiigAooooAKKKKACiiigAooooAKKKKACiiigAooooAKKKKACiiigAooooAKKKKACiiigAooooAKKKKACiiigAooooAKKKKACiiigAooooAKKKKACiiigAooooAKKKKACiiigAooooAKKKKACiiigAooooAKKKKACiiigAooooAKKKKACiiigAooooAKKKKACiiigAooooAKKKKACiiigAooooAKKKKACiiigAooooAKKKKACiiigAooooAKKKKACiiigAooooAKKKKACiiigAooooAKKKKACiiigAooooAKKKKACiiigAooooAKKKKACiiigAooooAKKKKACiiigAooooAKKKKACiiigAooooAKKKKACiiigAooooAKKKKACiiigAooooAKKKKACiiigAooooAKKKKACiiigAooooA//Q/fyiiigAooooAKKKKACiiigAooooAKKKKACiiigAooooAKKKKACiiigAooooAKKKKACiiigAooooAKKKKACiiigAooooAKKKKACiiigAooooAKKKKACiiigAooooAKKKKACiiigAooooAKKKKACiiigAooooAKKKKACiiigAooooAKKKKACiiigAooooAKKKKACiiigAooooAKKKKACiiigAooooAKKKKACiiigAooooAKKKKACiiigAooooAKKKKACiiigAooooAKKKKACiiigAooooAKKKKACiiigAooooAKKKKACiiigAooooAKKKKACiiigAooooAKKKKACiiigAooooAKKKKACiiigAooooAKKKKACiiigAooooAKKKKACiiigAooooAKKKKACiiigAooooAKKKKACiiigAooooAKKKKAP/0f38ooooAKKKKACiiigAooooAKKKKACiiigAooooAKKKKACiiigAooooAKKKKACiiigAooooAKKKKACiiigAooooAKKKKACiiigAooooAKKKKACiiigAooooAKKKKACiiigAooooAKKKKACiiigAooooAKKKKACiiigAooooAKKKKACiiigAooooAKKKKACiiigAooooAKKKKACiiigAooooAKKKKACiiigAooooAKKKKACiiigAooooAKKKKACiiigAooooAKKKKACiiigAooooAKKKKACiiigAooooAKKKKACiiigAooooAKKKKACiiigAooooAKKKKACiiigAooooAKKKKACiiigAooooAKKKKACiiigAooooAKKKKACiiigAooooAKKKKACiiigAooooAKKKKACiiigAooooAKKKKACiiigD/9L9/KKKKACiiigAooooAKKKKACiiigAooooAKKKKACiiigAooooAKKKKACiiigAooooAKKKKACiiigAooooAKKKKACiiigAooooAKKKKACiiigAooooAKKKKACiiigAooooAKKKKACiiigAooooAKKKKACiiigAooooAKKKKACiiigAooooAKKKKACiiigAooooAKKKKACiiigAooooAKKKKACiiigAooooAKKKKACiiigAooooAKKKKACiiigAooooAKKKKACiiigAooooAKKKKACiiigAooooAKKKKACiiigAooooAKKKKACiiigAooooAKKKKACiiigAooooAKKKKACiiigAooooAKKKKACiiigAooooAKKKKACiiigAooooAKKKKACiiigAooooAKKKKACiiigAooooAKKKKACiiigAooooA//T/fyiiigAooooAKKKKACiiigAooooAKKKKACiiigAooooAKKKKACiiigAooooAKKKKACiiigAooooAKKKKACiiigAooooAKKKKACiiigAooooAKKKKACiiigAooooAKKKKACiiigAooooAKKKKACiiigAooooAKKKKACiiigAooooAKKKKACiiigAooooAKKKKACiiigAooooAKKKKACiiigAooooAKKKKACiiigAooooAKKKKACiiigAooooAKKKKACiiigAooooAKKKKACiiigAooooAKKKKACiiigAooooAKKKKACiiigAooooAKKKKACiiigAooooAKKKKACiiigAooooAKKKKACiiigAooooAKKKKACiiigAooooAKKKKACiiigAooooAKKKKACiiigAooooAKKKKACiiigAooooAKKKKAP/1P38ooooAKKKKACiiigAooooAKKKKACiiigAooooAKKKKACiiigAooooAKKKKACiiigAooooAKKKKACiiigAooooAKKKKACiiigAooooAKKKKACiiigAooooAKKKKACiiigAooooAKKKKACiiigAooooAKKKKACiiigAooooAKKKKACiiigAooooAKKKKACiiigAooooAKKKKACiiigAooooAKKKKACiiigAooooAKKKKACiiigAooooAKKKKACiiigAooooAKKKKACiiigAooooAKKKKACiiigAooooAKKKKACiiigAooooAKKKKACiiigAooooAKKKKACiiigAooooAKKKKACiiigAooooAKKKKACiiigAooooAKKKKACiiigAooooAKKKKACiiigAooooAKKKKACiiigAooooAKKKKACiiigD/9X9/KKKKACiiigAooooAKKKKACiiigAooooAKKKKACiiigAooooAKKKKACiiigAooooAKKKKACiiigAooooAKKKKACiiigAooooAKKKKACiiigAooooAKKKKACiiigAooooAKKKKACiiigAooooAKKKKACiiigAooooAKKKKACiiigAooooAKKKKACiiigAooooAKKKKACiiigAooooAKKKKACiiigAooooAKKKKACiiigAooooAKKKKACiiigAooooAKKKKACiiigAooooAKKKKACiiigAooooAKKKKACiiigAooooAKKKKACiiigAooooAKKKKACiiigAooooAKKKKACiiigAooooAKKKKACiiigAooooAKKKKACiiigAooooAKKKKACiiigAooooAKKKKACiiigAooooAKKKKACiiigAooooA//W/fyiiigAooooAKKKKACiiigAooooAKKKKACiiigAooooAKKKKACiiigAooooAKKKKACiiigAooooAKKKKACiiigAooooAKKKKACiiigAooooAKKKKACiiigAooooAKKKKACiiigAooooAKKKKACiiigAooooAKKKKACiiigAooooAKKKKACiiigAooooAKKKKACiiigAooooAKKKKACiiigAooooAKKKKACiiigAooooAKKKKACiiigAooooAKKKKACiiigAooooAKKKKACiiigAooooAKKKKACiiigAooooAKKKKACiiigAooooAKKKKACiiigAooooAKKKKACiiigAooooAKKKKACiiigAooooAKKKKACiiigAooooAKKKKACiiigAooooAKKKKACiiigAooooAKKKKACiiigAooooAKKKKAP/1/38ooooAKKKKACiiigAooooAKKKKACiiigAooooAKKKKACiiigAooooAKKKKACiiigAooooAKKKKACiiigAooooAKKKKACiiigAooooAKKKKACiiigAooooAKKKKACiiigAooooAKKKKACiiigAooooAKKKKACiiigAooooAKKKKACiiigAooooAKKKKACiiigAooooAKKKKACiiigAooooAKKKKACiiigAooooAKKKKACiiigAooooAKKKKACiiigAooooAKKKKACiiigAooooAKKKKACiiigAooooAKKKKACiiigAooooAKKKKACiiigAooooAKKKKACiiigAooooAKKKKACiiigAooooAKKKKACiiigAooooAKKKKACiiigAooooAKKKKACiiigAooooAKKKKACiiigAooooAKKKKACiiigD/9D9/KKKKACiiigAooooAKKKKACiiigAooooAKKKKACiiigAooooAKKKKACiiigAooooAKKKKACiiigAooooAKKKKACiiigAooooAKKKKACiiigAooooAKKKKACiiigAooooAKKKKACiiigAooooAKKKKACiiigAooooAKKKKACiiigAooooAKKKKACiiigAooooAKKKKACiiigAooooAKKKKACiiigAooooAKKKKACiiigAooooAKKKKACiiigAooooAKKKKACiiigAooooAKKKKACiiigAooooAKKKKACiiigAooooAKKKKACiiigAooooAKKKKACiiigAooooAKKKKACiiigAooooAKKKKACiiigAooooAKKKKACiiigAooooAKKKKACiiigAooooAKKKKACiiigAooooAKKKKACiiigAooooA//R/fyiiigAooooAKKKKACiiigAooooAKKKKACiiigAooooAKKKKACiiigAooooAKKKKACiiigAooooAKKKKACiiigAooooAKKKKACiiigAooooAKKKKACiiigAooooAKKKKACiiigAooooAKKKKACiiigAooooAKKKKACiiigAooooAKKKKACiiigAooooAKKKKACiiigAooooAKKKKACiiigAooooAKKKKACiiigAooooAKKKKACiiigAooooAKKKKACiiigAooooAKKKKACiiigAooooAKKKKACiiigAooooAKKKKACiiigAooooAKKKKACiiigAooooAKKKKACiiigAooooAKKKKACiiigAooooAKKKKACiiigAooooAKKKKACiiigAooooAKKKKACiiigAooooAKKKKACiiigAooooAKKKKAP/2Q==;strokeWidth=0;sketch=1;curveFitting=1;jiggle=2;clipPath=inset(33.33% 22.97% 33.33% 22.97%);" parent="DCx8q5uBIvwL8sgJVXqC-1" vertex="1">
          <mxGeometry x="10" y="55" width="120" height="120" as="geometry" />
        </mxCell>
        <mxCell id="PJI_jjz8yj8HRDqB5Nlp-1" value="" style="strokeWidth=1;shadow=0;dashed=0;align=center;html=1;shape=mxgraph.mockup.containers.browserWindow;rSize=0;strokeColor=#666666;strokeColor2=#008cff;strokeColor3=#c4c4c4;mainText=,;recursiveResize=0;" vertex="1" parent="1">
          <mxGeometry x="-780" y="-2190" width="550" height="380" as="geometry" />
        </mxCell>
        <mxCell id="PJI_jjz8yj8HRDqB5Nlp-2" value="Page 1" style="strokeWidth=1;shadow=0;dashed=0;align=center;html=1;shape=mxgraph.mockup.containers.anchor;fontSize=17;fontColor=#666666;align=left;whiteSpace=wrap;" vertex="1" parent="PJI_jjz8yj8HRDqB5Nlp-1">
          <mxGeometry x="60" y="12" width="110" height="26" as="geometry" />
        </mxCell>
        <mxCell id="PJI_jjz8yj8HRDqB5Nlp-3" value="https://www.draw.io" style="strokeWidth=1;shadow=0;dashed=0;align=center;html=1;shape=mxgraph.mockup.containers.anchor;rSize=0;fontSize=17;fontColor=#666666;align=left;" vertex="1" parent="PJI_jjz8yj8HRDqB5Nlp-1">
          <mxGeometry x="130" y="60" width="250" height="26" as="geometry" />
        </mxCell>
      </root>
    </mxGraphModel>
  </diagram>
</mxfile>
